<svg width="72" height="72" viewBox="0 0 72 72" fill="none" xmlns="http://www.w3.org/2000/svg">
<g clip-path="url(#clip0_372_342)">
<path d="M52.74 0H19.26C8.623 0 0 8.623 0 19.26V52.74C0 63.377 8.623 72 19.26 72H52.74C63.377 72 72 63.377 72 52.74V19.26C72 8.623 63.377 0 52.74 0Z" fill="url(#paint0_linear_372_342)"/>
<path d="M53.5263 33.0206H49.3105C49.1849 33.0206 49.0644 32.9706 48.9755 32.8818C48.8867 32.793 48.8368 32.6725 48.8368 32.5469V27.1232C48.8368 26.9976 48.7869 26.8771 48.6981 26.7882C48.6092 26.6994 48.4888 26.6495 48.3631 26.6495H45.3315C45.2673 26.6496 45.2037 26.6366 45.1446 26.6113C45.0856 26.586 45.0323 26.549 44.9879 26.5025C44.9436 26.456 44.9093 26.4009 44.8869 26.3407C44.8645 26.2805 44.8546 26.2163 44.8579 26.1521V20.6811C44.8579 20.5555 44.808 20.435 44.7191 20.3461C44.6303 20.2573 44.5098 20.2074 44.3842 20.2074H27.7342C27.6086 20.2074 27.4881 20.2573 27.3992 20.3461C27.3104 20.435 27.2605 20.5555 27.2605 20.6811V26.1285C27.2637 26.1926 27.2538 26.2568 27.2315 26.317C27.2091 26.3772 27.1747 26.4323 27.1304 26.4788C27.0861 26.5253 27.0328 26.5624 26.9737 26.5876C26.9147 26.6129 26.8511 26.6259 26.7868 26.6258H23.7552C23.6296 26.6258 23.5091 26.6757 23.4203 26.7646C23.3315 26.8534 23.2815 26.9739 23.2815 27.0995V32.4995C23.2815 32.6251 23.2316 32.7456 23.1428 32.8344C23.054 32.9233 22.9335 32.9732 22.8079 32.9732H18.5921C18.5278 32.9731 18.4642 32.9861 18.4052 33.0114C18.3461 33.0366 18.2928 33.0737 18.2485 33.1202C18.2042 33.1667 18.1698 33.2218 18.1474 33.282C18.1251 33.3422 18.1152 33.4064 18.1184 33.4706V51.2716C18.1184 51.3972 18.1683 51.5177 18.2571 51.6066C18.346 51.6954 18.4664 51.7453 18.5921 51.7453H22.3815V42.7311C22.3815 42.5426 22.4564 42.3619 22.5897 42.2287C22.7229 42.0954 22.9036 42.0206 23.0921 42.0206H24.3379C24.5263 42.0206 24.707 42.0954 24.8403 42.2287C24.9735 42.3619 25.0484 42.5426 25.0484 42.7311V51.8163H28.3926V42.7311C28.3926 42.5426 28.4675 42.3619 28.6007 42.2287C28.734 42.0954 28.9147 42.0206 29.1031 42.0206H30.3489C30.5374 42.0206 30.7181 42.0954 30.8513 42.2287C30.9846 42.3619 31.0594 42.5426 31.0594 42.7311V51.8163H34.6452V42.7311C34.6452 42.5426 34.7201 42.3619 34.8533 42.2287C34.9866 42.0954 35.1673 42.0206 35.3558 42.0206H36.5968C36.7853 42.0206 36.966 42.0954 37.0992 42.2287C37.2325 42.3619 37.3073 42.5426 37.3073 42.7311V51.8163H40.8931V42.7311C40.8931 42.5426 40.968 42.3619 41.1012 42.2287C41.2345 42.0954 41.4152 42.0206 41.6037 42.0206H42.8494C43.0379 42.0206 43.2186 42.0954 43.3519 42.2287C43.4851 42.3619 43.56 42.5426 43.56 42.7311V51.8163H47.141V42.7311C47.141 42.5426 47.2159 42.3619 47.3491 42.2287C47.4824 42.0954 47.6631 42.0206 47.8515 42.0206H49.0973C49.2858 42.0206 49.4665 42.0954 49.5998 42.2287C49.733 42.3619 49.8079 42.5426 49.8079 42.7311V51.8163H53.5973C53.723 51.8163 53.8434 51.7664 53.9323 51.6776C54.0211 51.5888 54.071 51.4683 54.071 51.3427V33.5179C54.0754 33.4473 54.0639 33.3766 54.0373 33.311C54.0108 33.2454 53.9699 33.1866 53.9176 33.1389C53.8654 33.0912 53.8031 33.0558 53.7354 33.0353C53.6677 33.0149 53.5962 33.0098 53.5263 33.0206Z" fill="white"/>
</g>
<defs>
<linearGradient id="paint0_linear_372_342" x1="-42.45" y1="71.9995" x2="72" y2="71.9995" gradientUnits="userSpaceOnUse">
<stop stop-color="#000249"/>
<stop offset="1" stop-color="#0F4392"/>
</linearGradient>
<clipPath id="clip0_372_342">
<rect width="72" height="72" fill="white"/>
</clipPath>
</defs>
</svg>
