<svg width="88" height="88" viewBox="0 0 88 88" fill="none" xmlns="http://www.w3.org/2000/svg">
<g clip-path="url(#clip0_328_150)">
<path d="M87.686 31.0698L78.4735 47.9905C77.9871 48.8877 77.016 49.4104 75.9985 49.3279C75.5007 49.2868 75.0255 49.102 74.6306 48.7959C74.2358 48.4899 73.9384 48.0757 73.7745 47.6038L72.3548 43.5197C70.447 44.7368 68.0528 46.5294 65.7084 49.0117C63.651 51.1895 60.6587 55.0003 57.974 59.368L57.9964 32.06C61.219 29.4421 64.2818 27.5892 66.8153 26.3034L65.2993 21.5129C65.1456 21.0271 65.1392 20.5067 65.2808 20.0173C65.4224 19.5279 65.7058 19.0913 66.0951 18.7627C66.8909 18.0924 68.0115 17.9652 68.9379 18.443L86.6032 27.5462C86.9086 27.7034 87.1794 27.92 87.3999 28.1833C87.6204 28.4466 87.786 28.7513 87.8871 29.0795C87.9876 29.4079 88.0216 29.7531 87.9871 30.0949C87.9525 30.4366 87.8502 30.7681 87.686 31.0698ZM57.0612 19.2438H52.8502L52.8193 56.3615C49.5654 47.2535 44.5079 38.97 38.1446 32.5206C37.1786 31.5353 36.1788 30.5836 35.1471 29.6673V19.2439H30.9362C28.7551 19.3161 27.5073 16.4663 29.0456 14.9123L42.1081 0.817388C43.0757 -0.2723 44.9216 -0.2723 45.8893 0.817388L58.9518 14.9123C60.4901 16.4644 59.244 19.316 57.0612 19.2438ZM47.2872 56.2945C44.3469 48.7894 40.0768 41.8494 34.4651 36.1336C29.6748 31.2451 24.8692 28.1734 21.1824 26.3032L22.6984 21.5127C23.44 19.4139 21.0044 17.3566 19.0598 18.4428L1.39585 27.546C0.131191 28.1642 -0.38495 29.8484 0.313035 31.0698L9.52399 47.9905C10.4978 49.9327 13.5794 49.6773 14.223 47.6038L15.6427 43.5197C17.5506 44.7368 19.943 46.5294 22.2874 49.0117C30.1015 57.2881 33.7548 68.867 34.929 80.6392C35.0768 82.1433 35.1473 83.7075 35.1473 85.4211C35.1473 86.8444 36.3023 87.9994 37.7254 87.9994H50.2192C51.6318 88.0292 52.8688 86.7557 52.7956 85.3438C52.4692 74.5664 50.6164 64.7944 47.2872 56.2945Z" fill="url(#paint0_linear_328_150)"/>
</g>
<defs>
<linearGradient id="paint0_linear_328_150" x1="44.0001" y1="0.00012207" x2="44.0001" y2="87.9999" gradientUnits="userSpaceOnUse">
<stop stop-color="#2192FF"/>
<stop offset="1" stop-color="#2C39E5"/>
</linearGradient>
<clipPath id="clip0_328_150">
<rect width="88" height="88" fill="white"/>
</clipPath>
</defs>
</svg>
