<svg width="72" height="72" viewBox="0 0 72 72" fill="none" xmlns="http://www.w3.org/2000/svg">
<g id="Frame">
<g id="Group">
<path id="Vector" d="M72 3.06458L49.4585 56.603L28.4862 46.3384L72 3.06458ZM66.1662 6.33227L26.3262 45.9323C26.1785 46.0984 26.0862 46.283 26.0677 46.5046L24.6277 54.9969L17.1877 41.2246L66.1662 6.33227ZM64.5415 5.2615L15.7662 40.0246L0 37.6984L64.5415 5.2615ZM35.52 51.7661L26.2523 56.16L27.6369 47.9076L35.52 51.7661ZM34.2277 58.283C34.6708 58.523 34.8185 59.0769 34.5785 59.52L29.9631 67.9569C29.7785 68.2707 29.4646 68.4369 29.1508 68.4369C29.0031 68.4369 28.8554 68.4 28.7262 68.3261C28.2831 68.0861 28.1354 67.5323 28.3569 67.0892L32.9723 58.6523C33.2308 58.2092 33.7662 58.0615 34.2277 58.283ZM23.4277 60.1476C23.8523 60.3876 24.0185 60.9415 23.7785 61.3846L19.7538 68.4738C19.5877 68.7692 19.2738 68.9353 18.96 68.9353C18.8123 68.9353 18.6646 68.8984 18.5169 68.8246C18.0923 68.5846 17.9262 68.0307 18.1662 67.5876L22.1908 60.4984C22.4492 60.0553 22.9846 59.9076 23.4277 60.1476ZM17.3538 53.483C17.7785 53.723 17.9446 54.2953 17.7046 54.72L12.2215 64.3569C12.0554 64.6707 11.7415 64.8369 11.4277 64.8369C11.28 64.8369 11.1138 64.8 10.9846 64.7261C10.56 64.4861 10.3938 63.9138 10.6338 63.4892L16.1169 53.8338C16.3569 53.3907 16.9108 53.2246 17.3538 53.483ZM12.0554 45.083C12.4985 45.323 12.6462 45.8769 12.4246 46.3015L7.32923 55.6246C7.16308 55.9384 6.84923 56.1046 6.53539 56.1046C6.38769 56.1046 6.24 56.0676 6.11077 55.9938C5.66769 55.7538 5.52 55.2 5.74154 54.7753L10.8369 45.4523C11.0954 45.0092 11.6308 44.8615 12.0554 45.083Z" fill="url(#paint0_linear_450_2630)"/>
</g>
</g>
<defs>
<linearGradient id="paint0_linear_450_2630" x1="36" y1="3.06458" x2="36" y2="68.9353" gradientUnits="userSpaceOnUse">
<stop stop-color="#F704FE"/>
<stop offset="1" stop-color="#24BCE3"/>
</linearGradient>
</defs>
</svg>
