<svg width="113" height="38" viewBox="0 0 113 38" fill="none" xmlns="http://www.w3.org/2000/svg">
<g clip-path="url(#clip0_527_407)">
<path d="M104.001 0.0001235H9.0037C8.65742 0.0001235 8.31529 0.0001235 7.96993 0.0020235C7.68083 0.0039235 7.39403 0.009443 7.10216 0.0140885C6.46807 0.0215952 5.83547 0.0777159 5.20985 0.181963C4.58512 0.28848 3.97996 0.489293 3.41483 0.777613C2.8504 1.06837 2.33466 1.44618 1.88633 1.89734C1.43564 2.34723 1.05995 2.86724 0.773721 3.43738C0.486698 4.00638 0.287675 4.61612 0.183527 5.24553C0.0783881 5.87415 0.021812 6.51002 0.0143063 7.14743C0.0055431 7.4387 0.00461768 7.73094 0 8.02225V29.9808C0.00461768 30.2758 0.0055431 30.5615 0.0143063 30.8566C0.0218143 31.494 0.0783904 32.1298 0.183527 32.7584C0.287388 33.3882 0.486422 33.9983 0.773721 34.5675C1.05982 35.1358 1.43556 35.6537 1.88633 36.1011C2.33296 36.5542 2.84903 36.9323 3.41483 37.2208C3.97995 37.5099 4.58505 37.7119 5.20985 37.8201C5.83557 37.9235 6.46811 37.9797 7.10216 37.9881C7.39403 37.9945 7.68083 37.9982 7.96993 37.9982C8.31528 38.0001 8.65744 38.0001 9.0037 38.0001H104.001C104.341 38.0001 104.686 38.0001 105.025 37.9982C105.313 37.9982 105.608 37.9945 105.896 37.9881C106.528 37.9801 107.16 37.924 107.784 37.8201C108.411 37.7112 109.018 37.5092 109.586 37.2208C110.151 36.9321 110.667 36.5541 111.113 36.1011C111.563 35.6519 111.939 35.1344 112.229 34.5675C112.514 33.9979 112.711 33.3878 112.814 32.7584C112.919 32.1297 112.978 31.494 112.989 30.8566C112.993 30.5615 112.993 30.2758 112.993 29.9808C113 29.6357 113 29.2924 113 28.9417V9.05945C113 8.71155 113 8.36643 112.993 8.02225C112.993 7.73094 112.993 7.4387 112.989 7.14739C112.978 6.50992 112.919 5.8742 112.814 5.24549C112.711 4.61644 112.514 4.00675 112.229 3.43734C111.646 2.29456 110.722 1.36435 109.586 0.777527C109.018 0.489912 108.411 0.289152 107.784 0.181877C107.16 0.0771711 106.528 0.0210309 105.896 0.0139555C105.608 0.0093195 105.313 0.0037525 105.025 0.0019C104.686 0 104.341 0 104.001 0V0.0001235Z" fill="#ECF1F4"/>
<path d="M7.97461 37.1686C7.6869 37.1686 7.40614 37.1649 7.12068 37.1584C6.52934 37.1506 5.93937 37.0989 5.35563 37.0034C4.81132 36.9091 4.28403 36.7337 3.79115 36.4829C3.3028 36.2343 2.85738 35.9082 2.47195 35.5172C2.08095 35.1308 1.75543 34.6826 1.50828 34.1905C1.2584 33.6952 1.08547 33.1642 0.995515 32.6162C0.898369 32.0273 0.845808 31.4318 0.838288 30.8349C0.832301 30.6346 0.824463 29.9675 0.824463 29.9675V8.02193C0.824463 8.02193 0.832811 7.36509 0.838335 7.17211C0.845536 6.57616 0.897791 5.98163 0.994647 5.39365C1.08477 4.84409 1.25783 4.31162 1.50784 3.81465C1.75408 3.32285 2.0778 2.87437 2.46645 2.4866C2.85466 2.09515 3.3015 1.76738 3.79069 1.51525C4.28244 1.26529 4.80873 1.0911 5.35194 0.998511C5.9376 0.902149 6.52961 0.850051 7.123 0.842654L7.97507 0.831055H105.02L105.883 0.84312C106.471 0.850149 107.057 0.901782 107.638 0.99758C108.186 1.09133 108.718 1.26674 109.215 1.51804C110.195 2.02614 110.993 2.83001 111.496 3.81697C111.742 4.3105 111.912 4.83864 112.001 5.38345C112.099 5.97625 112.154 6.57546 112.165 7.1763C112.168 7.44534 112.168 7.73432 112.168 8.02193C112.176 8.37818 112.176 8.71726 112.176 9.05913V28.9414C112.176 29.2865 112.176 29.6233 112.168 29.9628C112.168 30.2717 112.168 30.5548 112.165 30.846C112.154 31.4361 112.1 32.0247 112.003 32.6068C111.915 33.1589 111.743 33.6939 111.493 34.1933C111.244 34.6801 110.921 35.1244 110.534 35.5098C110.148 35.9029 109.702 36.2309 109.213 36.4811C108.717 36.7338 108.186 36.9099 107.638 37.0034C107.054 37.0994 106.464 37.1512 105.873 37.1584C105.596 37.1649 105.306 37.1686 105.025 37.1686L104.001 37.1705L7.97461 37.1686Z" fill="#ECF1F4"/>
<path d="M23.3895 19.2867C23.3997 18.4938 23.609 17.7163 23.9981 17.0266C24.3872 16.337 24.9433 15.7575 25.6148 15.3422C25.1883 14.7293 24.6255 14.2249 23.9713 13.8691C23.317 13.5133 22.5893 13.3158 21.8459 13.2924C20.2602 13.125 18.7229 14.247 17.9149 14.247C17.0912 14.247 15.8471 13.3091 14.5073 13.3368C13.6408 13.3649 12.7962 13.6185 12.056 14.0726C11.3158 14.5268 10.7051 15.1661 10.2835 15.9283C8.45721 19.1093 9.81946 23.7843 11.5689 26.3555C12.4442 27.6146 13.4671 29.021 14.8056 28.9712C16.1155 28.9165 16.6047 28.1309 18.1857 28.1309C19.7521 28.1309 20.2111 28.9712 21.5767 28.9395C22.9822 28.9165 23.8677 27.6748 24.7123 26.4038C25.3412 25.5066 25.8251 24.5151 26.1462 23.4659C25.3296 23.1184 24.6328 22.5369 24.1426 21.7937C23.6524 21.0505 23.3905 20.1786 23.3895 19.2867Z" fill="#222C34"/>
<path d="M20.81 11.6012C21.5764 10.6757 21.9539 9.48618 21.8625 8.28516C20.6917 8.40887 19.6102 8.9718 18.8335 9.86179C18.4538 10.2966 18.1629 10.8024 17.9776 11.3503C17.7923 11.8982 17.7161 12.4775 17.7535 13.0551C18.3391 13.0612 18.9184 12.9335 19.4479 12.6816C19.9773 12.4298 20.4431 12.0604 20.81 11.6012Z" fill="#222C34"/>
<path d="M39.9465 25.7833H35.4767L34.4032 28.9719H32.51L36.7437 17.1748H38.7107L42.9445 28.9719H41.0189L39.9465 25.7833ZM35.9396 24.3119H39.4826L37.736 19.137H37.6872L35.9396 24.3119Z" fill="#222C34"/>
<path d="M52.0878 24.6719C52.0878 27.3447 50.6658 29.0619 48.5199 29.0619C47.9763 29.0905 47.4357 28.9645 46.96 28.6984C46.4842 28.4323 46.0926 28.0367 45.8299 27.5571H45.7893V31.8173H44.0344V20.3709H45.7331V21.8014H45.7654C46.0401 21.3241 46.4384 20.9306 46.9177 20.6629C47.3971 20.3951 47.9396 20.2631 48.4877 20.2809C50.6575 20.2809 52.0878 22.0065 52.0878 24.6719ZM50.284 24.6719C50.284 22.9305 49.3895 21.7857 48.0247 21.7857C46.6839 21.7857 45.782 22.9546 45.782 24.6719C45.782 26.4049 46.6839 27.5655 48.0247 27.5655C49.3895 27.5655 50.284 26.429 50.284 24.6719Z" fill="#222C34"/>
<path d="M61.4977 24.6718C61.4977 27.3447 60.0757 29.0619 57.9298 29.0619C57.3862 29.0905 56.8456 28.9645 56.3699 28.6984C55.8942 28.4323 55.5025 28.0367 55.2398 27.5571H55.1992V31.8172H53.4443V20.3709H55.143V21.8014H55.1753C55.45 21.3241 55.8483 20.9306 56.3276 20.6629C56.807 20.3951 57.3495 20.2631 57.8975 20.2809C60.0674 20.2809 61.4977 22.0065 61.4977 24.6718ZM59.694 24.6718C59.694 22.9305 58.7994 21.7857 57.4346 21.7857C56.0938 21.7857 55.1919 22.9546 55.1919 24.6718C55.1919 26.4049 56.0938 27.5655 57.4346 27.5655C58.7995 27.5655 59.694 26.429 59.694 24.6718H59.694Z" fill="#222C34"/>
<path d="M67.717 25.6854C67.847 26.8552 68.9767 27.6234 70.5204 27.6234C71.9996 27.6234 73.0637 26.8552 73.0637 25.8004C73.0637 24.8847 72.4219 24.3364 70.9022 23.9607L69.3824 23.5923C67.2291 23.0691 66.2295 22.056 66.2295 20.4121C66.2295 18.3766 67.9927 16.9785 70.4964 16.9785C72.9743 16.9785 74.6729 18.3766 74.7301 20.4121H72.9586C72.8526 19.2348 71.8852 18.5241 70.4715 18.5241C69.0578 18.5241 68.0904 19.2431 68.0904 20.2896C68.0904 21.1236 68.7083 21.6144 70.2197 21.9901L71.5117 22.3093C73.9177 22.8817 74.9173 23.854 74.9173 25.5795C74.9173 27.7866 73.1698 29.1689 70.3903 29.1689C67.7898 29.1689 66.034 27.8191 65.9205 25.6853L67.717 25.6854Z" fill="#222C34"/>
<path d="M78.7047 18.3359V20.3714H80.3305V21.7695H78.7047V26.5111C78.7047 27.2478 79.0302 27.591 79.7449 27.591C79.9379 27.5876 80.1306 27.574 80.3222 27.5502V28.9399C80.0008 29.0003 79.6742 29.0277 79.3474 29.0216C77.6165 29.0216 76.9415 28.3675 76.9415 26.6994V21.7695H75.6984V20.3714H76.9414V18.3359H78.7047Z" fill="#222C34"/>
<path d="M81.2721 24.6724C81.2721 21.9662 82.8564 20.2656 85.3269 20.2656C87.8057 20.2656 89.3826 21.9661 89.3826 24.6724C89.3826 27.386 87.814 29.0791 85.3269 29.0791C82.8407 29.0791 81.2721 27.386 81.2721 24.6724ZM87.5945 24.6724C87.5945 22.816 86.7489 21.7203 85.3269 21.7203C83.9049 21.7203 83.0602 22.8243 83.0602 24.6724C83.0602 26.5362 83.9049 27.6235 85.3269 27.6235C86.7489 27.6235 87.5945 26.5362 87.5945 24.6724H87.5945Z" fill="#222C34"/>
<path d="M90.8295 20.3708H92.5032V21.8347H92.5438C92.6571 21.3775 92.9233 20.9735 93.2978 20.6905C93.6723 20.4075 94.1323 20.2628 94.6003 20.2808C94.8025 20.2801 95.0042 20.3022 95.2016 20.3467V21.998C94.9462 21.9195 94.6799 21.8835 94.4131 21.8913C94.1581 21.8809 93.904 21.9262 93.668 22.0239C93.4321 22.1216 93.22 22.2696 93.0463 22.4576C92.8725 22.6456 92.7413 22.8692 92.6616 23.113C92.5818 23.3569 92.5555 23.6152 92.5844 23.8702V28.9718H90.8295L90.8295 20.3708Z" fill="#222C34"/>
<path d="M103.293 26.4462C103.057 28.0076 101.545 29.0791 99.6114 29.0791C97.1243 29.0791 95.5806 27.4027 95.5806 24.7132C95.5806 22.0153 97.1326 20.2656 99.5376 20.2656C101.903 20.2656 103.39 21.9003 103.39 24.5082V25.113H97.3521V25.2197C97.3242 25.5363 97.3636 25.8551 97.4676 26.1552C97.5717 26.4552 97.738 26.7296 97.9555 26.96C98.173 27.1904 98.4368 27.3717 98.7293 27.4916C99.0218 27.6116 99.3363 27.6676 99.652 27.6559C100.067 27.695 100.483 27.5984 100.839 27.3804C101.194 27.1625 101.471 26.8348 101.626 26.4462L103.293 26.4462ZM97.3604 23.8791H101.635C101.65 23.5945 101.608 23.3097 101.509 23.0426C101.41 22.7754 101.257 22.5317 101.06 22.3267C100.863 22.1217 100.626 21.9599 100.364 21.8514C100.102 21.7429 99.8209 21.6901 99.5376 21.6962C99.2518 21.6945 98.9686 21.7497 98.7041 21.8587C98.4397 21.9677 98.1993 22.1283 97.9969 22.3313C97.7945 22.5342 97.634 22.7755 97.5247 23.0412C97.4155 23.3069 97.3596 23.5917 97.3604 23.8792V23.8791Z" fill="#222C34"/>
<path d="M35.7197 8.29452C36.0876 8.26796 36.4568 8.32387 36.8006 8.45824C37.1445 8.5926 37.4544 8.80205 37.708 9.0715C37.9616 9.34094 38.1527 9.66365 38.2673 10.0164C38.3819 10.3691 38.4173 10.743 38.3709 11.1111C38.3709 12.9221 37.3981 13.963 35.7197 13.963H33.6844V8.29452H35.7197ZM34.5596 13.1614H35.6219C35.8848 13.1772 36.1479 13.1338 36.3921 13.0344C36.6362 12.935 36.8553 12.7821 37.0333 12.5869C37.2112 12.3916 37.3437 12.1588 37.421 11.9055C37.4983 11.6522 37.5185 11.3848 37.4801 11.1227C37.5157 10.8616 37.4935 10.5958 37.415 10.3444C37.3365 10.0929 37.2037 9.86208 37.0261 9.66835C36.8485 9.47461 36.6305 9.32279 36.3878 9.22377C36.145 9.12474 35.8835 9.08096 35.6219 9.09557H34.5596V13.1614Z" fill="#222C34"/>
<path d="M39.3596 11.8231C39.3329 11.542 39.3648 11.2583 39.4534 10.9903C39.542 10.7224 39.6854 10.476 39.8742 10.267C40.063 10.058 40.2931 9.89106 40.5498 9.7768C40.8065 9.66254 41.0841 9.60352 41.3649 9.60352C41.6456 9.60352 41.9232 9.66254 42.1799 9.7768C42.4366 9.89106 42.6668 10.058 42.8556 10.267C43.0444 10.476 43.1877 10.7224 43.2763 10.9903C43.3649 11.2583 43.3969 11.542 43.3701 11.8231C43.3974 12.1045 43.3658 12.3885 43.2774 12.6569C43.189 12.9253 43.0458 13.1721 42.857 13.3815C42.6681 13.5909 42.4378 13.7583 42.1808 13.8728C41.9238 13.9873 41.6459 14.0464 41.3649 14.0464C41.0838 14.0464 40.8059 13.9873 40.5489 13.8728C40.2919 13.7583 40.0616 13.5909 39.8728 13.3815C39.6839 13.1721 39.5407 12.9253 39.4523 12.6569C39.3639 12.3885 39.3323 12.1045 39.3596 11.8231ZM42.507 11.8231C42.507 10.8958 42.0929 10.3535 41.3662 10.3535C40.6368 10.3535 40.2265 10.8958 40.2265 11.8231C40.2265 12.7578 40.6368 13.2959 41.3662 13.2959C42.0929 13.2959 42.507 12.7541 42.507 11.8231H42.507Z" fill="#222C34"/>
<path d="M48.7012 13.9633H47.8307L46.9518 10.8127H46.8854L46.0103 13.9633H45.148L43.976 9.68555H44.8271L45.5888 12.9497H45.6516L46.5258 9.68555H47.3308L48.2051 12.9497H48.2715L49.0295 9.68555H49.8687L48.7012 13.9633Z" fill="#222C34"/>
<path d="M50.8545 9.68542H51.6623V10.365H51.725C51.8314 10.1209 52.0108 9.9163 52.2383 9.77969C52.4657 9.64307 52.7299 9.58125 52.9939 9.60284C53.2008 9.58719 53.4086 9.61858 53.6018 9.69467C53.795 9.77076 53.9687 9.88961 54.1101 10.0424C54.2514 10.1952 54.3568 10.3781 54.4183 10.5774C54.4799 10.7767 54.4961 10.9874 54.4657 11.1939V13.9632H53.6266V11.4059C53.6266 10.7185 53.3296 10.3766 52.709 10.3766C52.5685 10.37 52.4283 10.3941 52.2979 10.4471C52.1676 10.5001 52.0501 10.5809 51.9537 10.6839C51.8573 10.7868 51.7841 10.9096 51.7392 11.0436C51.6943 11.1777 51.6788 11.32 51.6937 11.4606V13.9632H50.8545L50.8545 9.68542Z" fill="#222C34"/>
<path d="M55.8029 8.01562H56.642V13.9633H55.8029V8.01562Z" fill="#222C34"/>
<path d="M57.8085 11.8222C57.7818 11.541 57.8138 11.2574 57.9024 10.9894C57.9911 10.7214 58.1344 10.475 58.3232 10.2661C58.5121 10.0571 58.7422 9.89009 58.999 9.77583C59.2557 9.66156 59.5333 9.60254 59.814 9.60254C60.0948 9.60254 60.3724 9.66156 60.6291 9.77583C60.8859 9.89009 61.116 10.0571 61.3048 10.2661C61.4937 10.475 61.637 10.7214 61.7256 10.9894C61.8143 11.2574 61.8463 11.541 61.8195 11.8222C61.8468 12.1036 61.8151 12.3876 61.7267 12.656C61.6383 12.9244 61.4951 13.1713 61.3062 13.3806C61.1173 13.59 60.887 13.7573 60.63 13.8719C60.373 13.9864 60.0951 14.0455 59.814 14.0455C59.533 14.0455 59.255 13.9864 58.9981 13.8719C58.7411 13.7573 58.5108 13.59 58.3219 13.3806C58.133 13.1713 57.9898 12.9244 57.9014 12.656C57.8129 12.3876 57.7813 12.1036 57.8085 11.8222ZM60.9559 11.8222C60.9559 10.8949 60.5419 10.3527 59.8152 10.3527C59.0858 10.3527 58.6754 10.8949 58.6754 11.8222C58.6754 12.7569 59.0858 13.295 59.8152 13.295C60.5419 13.295 60.9559 12.7532 60.9559 11.8222H60.9559Z" fill="#222C34"/>
<path d="M62.7031 12.7531C62.7031 11.9831 63.273 11.5392 64.2847 11.4761L65.4365 11.4093V11.0401C65.4365 10.5883 65.1395 10.3331 64.5659 10.3331C64.0975 10.3331 63.7729 10.5062 63.6797 10.8086H62.8673C62.953 10.0738 63.6401 9.60254 64.6047 9.60254C65.6707 9.60254 66.2719 10.1364 66.2719 11.0401V13.9629H65.4641V13.3617H65.3977C65.263 13.5774 65.0737 13.7532 64.8493 13.8712C64.6249 13.9892 64.3734 14.0451 64.1205 14.0334C63.942 14.052 63.7616 14.0329 63.5909 13.9771C63.4202 13.9214 63.263 13.8302 63.1295 13.7096C62.9959 13.589 62.889 13.4416 62.8156 13.2768C62.7421 13.1121 62.7038 12.9337 62.7031 12.7531ZM65.4365 12.3876V12.03L64.3981 12.0967C63.8125 12.1362 63.5469 12.3366 63.5469 12.7137C63.5469 13.0987 63.8789 13.3227 64.3354 13.3227C64.4692 13.3364 64.6043 13.3228 64.7327 13.2828C64.8611 13.2428 64.9803 13.1772 65.083 13.09C65.1857 13.0027 65.27 12.8956 65.3307 12.7749C65.3914 12.6543 65.4274 12.5225 65.4365 12.3876Z" fill="#222C34"/>
<path d="M67.3749 11.8226C67.3749 10.4709 68.0656 9.61459 69.1399 9.61459C69.4057 9.60227 69.6694 9.6663 69.9003 9.7992C70.1312 9.9321 70.3198 10.1284 70.4439 10.3651H70.5066V8.01562H71.3458V13.9633H70.5416V13.2875H70.4752C70.3415 13.5226 70.1464 13.7164 69.911 13.848C69.6757 13.9795 69.409 14.0438 69.1399 14.0338C68.0582 14.0339 67.3749 13.1776 67.3749 11.8226ZM68.2418 11.8226C68.2418 12.7299 68.6669 13.2759 69.3779 13.2759C70.0852 13.2759 70.5223 12.722 70.5223 11.8263C70.5223 10.9348 70.0806 10.373 69.3779 10.373C68.6715 10.373 68.2417 10.9227 68.2417 11.8226H68.2418Z" fill="#222C34"/>
<path d="M74.8177 11.8231C74.791 11.542 74.8229 11.2583 74.9116 10.9903C75.0002 10.7224 75.1435 10.476 75.3323 10.267C75.5211 10.058 75.7512 9.89106 76.0079 9.7768C76.2647 9.66254 76.5423 9.60352 76.823 9.60352C77.1037 9.60352 77.3813 9.66254 77.638 9.7768C77.8947 9.89106 78.1249 10.058 78.3137 10.267C78.5025 10.476 78.6458 10.7224 78.7344 10.9903C78.823 11.2583 78.855 11.542 78.8283 11.8231C78.8555 12.1045 78.8239 12.3885 78.7355 12.6569C78.6472 12.9253 78.5039 13.1721 78.3151 13.3815C78.1262 13.5909 77.8959 13.7583 77.6389 13.8728C77.382 13.9873 77.104 14.0464 76.823 14.0464C76.5419 14.0464 76.264 13.9873 76.007 13.8728C75.7501 13.7583 75.5197 13.5909 75.3309 13.3815C75.142 13.1721 74.9988 12.9253 74.9104 12.6569C74.8221 12.3885 74.7905 12.1045 74.8177 11.8231ZM77.9651 11.8231C77.9651 10.8958 77.551 10.3535 76.8244 10.3535C76.0949 10.3535 75.6846 10.8958 75.6846 11.8231C75.6846 12.7578 76.095 13.2959 76.8244 13.2959C77.551 13.2959 77.9651 12.7541 77.9651 11.8231Z" fill="#222C34"/>
<path d="M79.9542 9.68542H80.7621V10.365H80.8248C80.9311 10.1209 81.1106 9.9163 81.338 9.77969C81.5655 9.64307 81.8296 9.58125 82.0937 9.60284C82.3006 9.58719 82.5083 9.61858 82.7015 9.69467C82.8947 9.77076 83.0685 9.88961 83.2098 10.0424C83.3511 10.1952 83.4565 10.3781 83.5181 10.5774C83.5797 10.7767 83.5958 10.9874 83.5655 11.1939V13.9632H82.7263V11.4059C82.7263 10.7185 82.4294 10.3766 81.8087 10.3766C81.6683 10.37 81.528 10.3941 81.3977 10.4471C81.2673 10.5001 81.1499 10.5809 81.0534 10.6839C80.957 10.7868 80.8838 10.9096 80.8389 11.0436C80.7941 11.1777 80.7785 11.32 80.7934 11.4606V13.9632H79.9542V9.68542Z" fill="#222C34"/>
<path d="M88.3074 8.62012V9.70464H89.2286V10.4157H88.3074V12.6154C88.3074 13.0635 88.4909 13.2597 88.9086 13.2597C89.0156 13.2594 89.1224 13.2529 89.2286 13.2402V13.9435C89.0779 13.9706 88.9252 13.985 88.7722 13.9866C87.8389 13.9866 87.4673 13.6563 87.4673 12.8316V10.4157H86.7922V9.7046H87.4673V8.62012H88.3074Z" fill="#222C34"/>
<path d="M90.3749 8.01562H91.2067V10.373H91.2731C91.3846 10.1266 91.569 9.92089 91.801 9.78376C92.033 9.64663 92.3014 9.5848 92.5696 9.60669C92.7754 9.59543 92.9812 9.63 93.1722 9.70794C93.3632 9.78588 93.5348 9.90527 93.6747 10.0576C93.8145 10.2099 93.9193 10.3914 93.9814 10.5891C94.0435 10.7869 94.0615 10.9959 94.034 11.2015V13.9633H93.194V11.4097C93.194 10.7265 92.8777 10.3804 92.2847 10.3804C92.1405 10.3685 91.9954 10.3885 91.8597 10.4389C91.7239 10.4893 91.6007 10.5689 91.4987 10.6722C91.3968 10.7755 91.3184 10.9 91.2693 11.0369C91.2201 11.1738 91.2013 11.3199 91.2141 11.4649V13.9633H90.3749L90.3749 8.01562Z" fill="#222C34"/>
<path d="M98.9272 12.8079C98.8132 13.1989 98.5661 13.5371 98.2293 13.7633C97.8925 13.9896 97.4873 14.0895 97.0847 14.0455C96.8045 14.053 96.5261 13.999 96.2688 13.8873C96.0115 13.7757 95.7814 13.609 95.5945 13.3989C95.4076 13.1889 95.2684 12.9404 95.1865 12.6708C95.1047 12.4011 95.0821 12.1168 95.1204 11.8375C95.0831 11.5574 95.1061 11.2724 95.1877 11.002C95.2694 10.7316 95.4079 10.4819 95.5938 10.27C95.7797 10.0581 96.0087 9.88884 96.2653 9.77369C96.5219 9.65854 96.8 9.6002 97.081 9.60261C98.2641 9.60261 98.9779 10.4158 98.9779 11.7591V12.0537H95.9753V12.101C95.9621 12.258 95.9818 12.416 96.0329 12.5649C96.084 12.7138 96.1654 12.8504 96.2721 12.9657C96.3787 13.0811 96.5081 13.1728 96.652 13.2349C96.7959 13.2971 96.9511 13.3283 97.1077 13.3265C97.3085 13.3508 97.5118 13.3144 97.692 13.222C97.8721 13.1297 98.0209 12.9855 98.1193 12.8079L98.9272 12.8079ZM95.9753 11.4293H98.123C98.1336 11.2857 98.1142 11.1415 98.0661 11.006C98.018 10.8704 97.9422 10.7464 97.8436 10.6421C97.745 10.5377 97.6258 10.4552 97.4937 10.4C97.3616 10.3447 97.2194 10.3178 97.0763 10.3211C96.9312 10.3193 96.7872 10.3467 96.6527 10.4018C96.5183 10.4568 96.3962 10.5384 96.2935 10.6417C96.1909 10.7449 96.1099 10.8678 96.0552 11.0031C96.0006 11.1384 95.9734 11.2833 95.9753 11.4293H95.9753Z" fill="#222C34"/>
</g>
<defs>
<clipPath id="clip0_527_407">
<rect width="113" height="38" fill="white"/>
</clipPath>
</defs>
</svg>
