<svg width="18" height="18" viewBox="0 0 18 18" fill="none" xmlns="http://www.w3.org/2000/svg">
<path d="M9.00008 0.666504C4.40841 0.666504 0.666748 4.40817 0.666748 8.99984C0.666748 13.5915 4.40841 17.3332 9.00008 17.3332C13.5917 17.3332 17.3334 13.5915 17.3334 8.99984C17.3334 4.40817 13.5917 0.666504 9.00008 0.666504ZM11.3251 9.4415L8.38341 12.3832C8.25841 12.5082 8.10008 12.5665 7.94175 12.5665C7.78341 12.5665 7.62508 12.5082 7.50008 12.3832C7.38385 12.2656 7.31866 12.1069 7.31866 11.9415C7.31866 11.7761 7.38385 11.6175 7.50008 11.4998L10.0001 8.99984L7.50008 6.49984C7.25841 6.25817 7.25841 5.85817 7.50008 5.6165C7.74175 5.37484 8.14175 5.37484 8.38341 5.6165L11.3251 8.55817C11.5751 8.79984 11.5751 9.19984 11.3251 9.4415Z" fill="url(#paint0_linear_333_200)"/>
<defs>
<linearGradient id="paint0_linear_333_200" x1="9.00008" y1="0.666504" x2="9.00008" y2="17.3332" gradientUnits="userSpaceOnUse">
<stop stop-color="#138BD7"/>
<stop offset="1" stop-color="#62AAFB"/>
</linearGradient>
</defs>
</svg>
