<svg width="172" height="40" viewBox="0 0 172 40" fill="none" xmlns="http://www.w3.org/2000/svg">
<path d="M51.225 33V17H46.275V14.375H59.025V17H54.15V33H51.225ZM59.4664 33V19.475H62.1664V22.2L61.9164 21.8C62.2164 20.9167 62.6997 20.2833 63.3664 19.9C64.0331 19.5 64.8331 19.3 65.7664 19.3H66.5914V21.875H65.4164C64.4831 21.875 63.7247 22.1667 63.1414 22.75C62.5747 23.3167 62.2914 24.1333 62.2914 25.2V33H59.4664ZM74.874 33.3C73.524 33.3 72.324 32.9917 71.274 32.375C70.2407 31.7417 69.4324 30.8917 68.849 29.825C68.2657 28.7417 67.974 27.5333 67.974 26.2C67.974 24.8333 68.2657 23.625 68.849 22.575C69.449 21.525 70.249 20.7 71.249 20.1C72.249 19.4833 73.3824 19.175 74.649 19.175C75.6657 19.175 76.574 19.35 77.374 19.7C78.174 20.05 78.849 20.5333 79.399 21.15C79.949 21.75 80.3657 22.4417 80.649 23.225C80.949 24.0083 81.099 24.8417 81.099 25.725C81.099 25.9417 81.0907 26.1667 81.074 26.4C81.0574 26.6333 81.024 26.85 80.974 27.05H70.199V24.8H79.374L78.024 25.825C78.1907 25.0083 78.1324 24.2833 77.849 23.65C77.5824 23 77.1657 22.4917 76.599 22.125C76.049 21.7417 75.399 21.55 74.649 21.55C73.899 21.55 73.2324 21.7417 72.649 22.125C72.0657 22.4917 71.6157 23.025 71.299 23.725C70.9824 24.4083 70.8574 25.2417 70.924 26.225C70.8407 27.1417 70.9657 27.9417 71.299 28.625C71.649 29.3083 72.1324 29.8417 72.749 30.225C73.3824 30.6083 74.099 30.8 74.899 30.8C75.7157 30.8 76.4074 30.6167 76.974 30.25C77.5574 29.8833 78.0157 29.4083 78.349 28.825L80.649 29.95C80.3824 30.5833 79.9657 31.1583 79.399 31.675C78.849 32.175 78.1824 32.575 77.399 32.875C76.6324 33.1583 75.7907 33.3 74.874 33.3ZM83.8561 33V19.475H86.5561V22.125L86.2311 21.775C86.5644 20.925 87.0977 20.2833 87.8311 19.85C88.5644 19.4 89.4144 19.175 90.3811 19.175C91.3811 19.175 92.2644 19.3917 93.0311 19.825C93.7977 20.2583 94.3977 20.8583 94.8311 21.625C95.2644 22.3917 95.4811 23.275 95.4811 24.275V33H92.6811V25.025C92.6811 24.3417 92.5561 23.7667 92.3061 23.3C92.0561 22.8167 91.6977 22.45 91.2311 22.2C90.7811 21.9333 90.2644 21.8 89.6811 21.8C89.0977 21.8 88.5727 21.9333 88.1061 22.2C87.6561 22.45 87.3061 22.8167 87.0561 23.3C86.8061 23.7833 86.6811 24.3583 86.6811 25.025V33H83.8561ZM104.754 33.3C103.454 33.3 102.288 32.9917 101.254 32.375C100.238 31.7417 99.4295 30.8917 98.8295 29.825C98.2462 28.7583 97.9545 27.5583 97.9545 26.225C97.9545 24.8917 98.2545 23.6917 98.8545 22.625C99.4545 21.5583 100.263 20.7167 101.279 20.1C102.296 19.4833 103.446 19.175 104.729 19.175C105.813 19.175 106.771 19.3917 107.604 19.825C108.438 20.2583 109.096 20.8583 109.579 21.625L109.154 22.275V14.075H111.954V33H109.279V30.25L109.604 30.775C109.138 31.5917 108.471 32.2167 107.604 32.65C106.738 33.0833 105.788 33.3 104.754 33.3ZM105.029 30.675C105.813 30.675 106.513 30.4833 107.129 30.1C107.763 29.7167 108.254 29.1917 108.604 28.525C108.971 27.8417 109.154 27.075 109.154 26.225C109.154 25.375 108.971 24.6167 108.604 23.95C108.254 23.2833 107.763 22.7583 107.129 22.375C106.513 21.9917 105.813 21.8 105.029 21.8C104.246 21.8 103.538 21.9917 102.904 22.375C102.271 22.7583 101.779 23.2833 101.429 23.95C101.079 24.6167 100.904 25.375 100.904 26.225C100.904 27.075 101.079 27.8417 101.429 28.525C101.779 29.1917 102.263 29.7167 102.879 30.1C103.513 30.4833 104.229 30.675 105.029 30.675ZM116.453 38.525C116.119 38.525 115.786 38.4917 115.453 38.425C115.136 38.375 114.844 38.2917 114.578 38.175V35.75C114.778 35.8 115.019 35.8417 115.303 35.875C115.586 35.925 115.861 35.95 116.128 35.95C116.911 35.95 117.486 35.775 117.853 35.425C118.236 35.0917 118.578 34.5667 118.878 33.85L119.778 31.8L119.728 34.175L113.878 19.475H116.903L121.228 30.75H120.203L124.503 19.475H127.553L121.578 34.475C121.261 35.275 120.861 35.975 120.378 36.575C119.911 37.1917 119.353 37.6667 118.703 38C118.069 38.35 117.319 38.525 116.453 38.525ZM129.761 33V14.375H132.136L142.586 28.8L141.461 28.975V14.375H144.386V33H142.011L131.636 18.475L132.711 18.275V33H129.761ZM154.317 33.3C152.967 33.3 151.767 32.9917 150.717 32.375C149.684 31.7417 148.876 30.8917 148.292 29.825C147.709 28.7417 147.417 27.5333 147.417 26.2C147.417 24.8333 147.709 23.625 148.292 22.575C148.892 21.525 149.692 20.7 150.692 20.1C151.692 19.4833 152.826 19.175 154.092 19.175C155.109 19.175 156.017 19.35 156.817 19.7C157.617 20.05 158.292 20.5333 158.842 21.15C159.392 21.75 159.809 22.4417 160.092 23.225C160.392 24.0083 160.542 24.8417 160.542 25.725C160.542 25.9417 160.534 26.1667 160.517 26.4C160.501 26.6333 160.467 26.85 160.417 27.05H149.642V24.8H158.817L157.467 25.825C157.634 25.0083 157.576 24.2833 157.292 23.65C157.026 23 156.609 22.4917 156.042 22.125C155.492 21.7417 154.842 21.55 154.092 21.55C153.342 21.55 152.676 21.7417 152.092 22.125C151.509 22.4917 151.059 23.025 150.742 23.725C150.426 24.4083 150.301 25.2417 150.367 26.225C150.284 27.1417 150.409 27.9417 150.742 28.625C151.092 29.3083 151.576 29.8417 152.192 30.225C152.826 30.6083 153.542 30.8 154.342 30.8C155.159 30.8 155.851 30.6167 156.417 30.25C157.001 29.8833 157.459 29.4083 157.792 28.825L160.092 29.95C159.826 30.5833 159.409 31.1583 158.842 31.675C158.292 32.175 157.626 32.575 156.842 32.875C156.076 33.1583 155.234 33.3 154.317 33.3ZM169.149 33.15C167.733 33.15 166.633 32.75 165.849 31.95C165.066 31.15 164.674 30.025 164.674 28.575V22.025H162.299V19.475H162.674C163.308 19.475 163.799 19.2917 164.149 18.925C164.499 18.5583 164.674 18.0583 164.674 17.425V16.375H167.499V19.475H170.574V22.025H167.499V28.45C167.499 28.9167 167.574 29.3167 167.724 29.65C167.874 29.9667 168.116 30.2167 168.449 30.4C168.783 30.5667 169.216 30.65 169.749 30.65C169.883 30.65 170.033 30.6417 170.199 30.625C170.366 30.6083 170.524 30.5917 170.674 30.575V33C170.441 33.0333 170.183 33.0667 169.899 33.1C169.616 33.1333 169.366 33.15 169.149 33.15Z" fill="#D8ECFF"/>
<g clip-path="url(#clip0_359_120)">
<path d="M38.8914 17.0027C37.4124 15.5237 35.0157 15.5237 33.5367 17.0027C32.206 18.3335 32.0789 20.4055 33.1414 21.8845L30.2716 24.7542C28.7926 23.6882 26.7206 23.8188 25.3899 25.1495L21.6024 28.9371C20.8858 29.6536 19.7245 29.6536 19.0079 28.9371C18.2914 28.2205 18.2914 27.0592 19.0079 26.3426L28.4749 16.8756C29.8057 15.5449 29.9327 13.4729 28.8703 11.9939L31.74 9.12413C33.219 10.1901 35.291 10.0595 36.6218 8.72879C38.1008 7.24979 38.1008 4.85304 36.6218 3.37404C35.1428 1.89505 32.746 1.89505 31.267 3.37404C29.9363 4.70479 29.8092 6.7768 30.8717 8.2558L28.0019 11.1255C26.5229 10.0595 24.4509 10.1901 23.1202 11.5209L13.6532 20.9879C12.9366 21.7044 11.7753 21.7044 11.0588 20.9879C10.3422 20.2713 10.3422 19.11 11.0588 18.3935L14.8463 14.606C16.177 13.2752 16.3041 11.2032 15.2416 9.7242L18.1114 6.85445C19.5904 7.92046 21.6624 7.78986 22.9931 6.45911C24.4721 4.98012 24.4721 2.58336 22.9931 1.10437C21.5141 -0.374632 19.1174 -0.374632 17.6384 1.10437C16.3076 2.43511 16.1805 4.50712 17.243 5.98612L14.3733 8.85587C12.8943 7.78986 10.8223 7.92046 9.49152 9.25121L4.39798 14.3447C-1.4686 20.2113 -1.4686 29.7242 4.39798 35.5943C10.2646 41.4609 19.7774 41.4609 25.6475 35.5943L30.7411 30.5008C32.0718 29.17 32.1989 27.098 31.1364 25.619L34.0062 22.7493C35.4852 23.8153 37.5572 23.6847 38.8879 22.3539C40.3669 20.8749 40.3669 18.4782 38.8879 16.9992L38.8914 17.0027Z" fill="#FF4949"/>
</g>
<defs>
<clipPath id="clip0_359_120">
<rect width="40" height="40" fill="white"/>
</clipPath>
</defs>
</svg>
