<svg width="24" height="24" viewBox="0 0 24 24" fill="none" xmlns="http://www.w3.org/2000/svg">
<g clip-path="url(#clip0_402_491)">
<path d="M11.9998 0C6.89326 0 2.73877 4.15449 2.73877 9.26102C2.73877 11.0244 3.21929 12.8965 4.16691 14.8252C4.91832 16.3546 5.9642 17.9242 7.27553 19.4903C9.50167 22.1491 11.6925 23.8551 11.7846 23.9265C11.8462 23.9741 11.9219 24 11.9998 24C12.0757 24 12.1517 23.9754 12.215 23.9265C12.3072 23.8551 14.498 22.1491 16.7241 19.4903C18.0354 17.9241 19.0814 16.3546 19.8328 14.8252C20.7804 12.8965 21.2609 11.0244 21.2609 9.26102C21.2609 4.15449 17.1064 0 11.9998 0ZM11.9998 6.05922C13.7653 6.05922 15.2016 7.49551 15.2016 9.26102C15.2016 11.0265 13.7653 12.4628 11.9998 12.4628C10.2343 12.4628 8.79803 11.0265 8.79803 9.26102C8.79803 7.49551 10.2343 6.05922 11.9998 6.05922Z" fill="#FF4A4A"/>
<path d="M11.9998 0C11.6523 0 11.3094 0.019875 10.9717 0.0573751C15.5961 0.570517 19.2046 4.50198 19.2046 9.26107C19.2046 11.0244 18.7242 12.8965 17.7765 14.8253C17.0251 16.3547 15.9792 17.9242 14.6679 19.4903C13.2396 21.1962 11.8259 22.5098 10.9717 23.2512C11.4489 23.6653 11.7515 23.9009 11.7846 23.9265C11.8462 23.9741 11.9219 24 11.9998 24C12.0757 24 12.1517 23.9754 12.215 23.9265C12.3072 23.8551 14.498 22.1491 16.7241 19.4903C18.0354 17.9241 19.0813 16.3546 19.8327 14.8252C20.7803 12.8965 21.2609 11.0244 21.2609 9.26102C21.2609 4.15449 17.1064 0 11.9998 0Z" fill="#E7343F"/>
</g>
<defs>
<clipPath id="clip0_402_491">
<rect width="24" height="24" fill="white"/>
</clipPath>
</defs>
</svg>
