<svg width="309" height="296" viewBox="0 0 309 296" fill="none" xmlns="http://www.w3.org/2000/svg">
<g clip-path="url(#clip0_410_1065)">
<path d="M0 294.658H78.9093L85.4544 276.974C87.7705 270.705 92.5179 265.674 98.5905 262.909C104.306 260.319 111.992 255.6 119.459 247.203C133.966 230.86 141.663 213.314 141.663 213.314L92.7599 213.071C92.7599 213.071 97.1617 185.613 72.8597 149.145C70.2556 145.247 69.0802 140.563 69.4835 135.879L71.7881 109.277C71.7881 109.277 88.3005 90.7477 78.1718 67.7658C78.1718 67.7658 68.481 54.3029 64.6323 59.23C64.6323 59.23 35.364 129.193 32.6907 139.603C30.0289 150.001 26.4683 156.547 30.0289 189.245C30.9737 197.896 31.3079 205.113 31.2964 211.058C31.2733 222.451 28.7383 233.693 23.8871 243.999L0 294.658Z" fill="#F7C29E"/>
<path d="M208.865 23.1785L194.957 43.6505L181.302 63.7409C180.473 64.7471 179.505 65.0941 178.468 65.0016C175.195 64.6893 171.139 59.9472 167.982 57.3217L167.659 57.0556C163.499 53.5974 162.9 47.3517 166.346 43.1647L187.214 17.8465L193.402 10.3401C196.847 6.16474 203.069 5.5633 207.241 9.02157L207.563 9.28759C211.723 12.7459 212.311 18.9916 208.865 23.1785Z" fill="#F7C29E"/>
<path d="M183.883 198.266V15.3829C183.883 9.09097 177.822 3.99031 170.344 3.99031H156.632V5.13535C156.632 8.28134 153.601 10.8374 149.868 10.8374H107.901C104.168 10.8374 101.137 8.28134 101.137 5.13535V3.99031H86.4106C78.9322 3.99031 72.8711 9.09097 72.8711 15.3829V198.266C72.8711 204.558 78.9322 209.659 86.4106 209.659H170.355C177.834 209.659 183.895 204.558 183.895 198.266M187.617 13.6711V199.4C187.617 206.952 180.334 213.071 171.37 213.071H85.3851C76.4202 213.071 69.1377 206.941 69.1377 199.4V13.6711C69.1377 6.11847 76.4202 0 85.3851 0H171.358C180.323 0 187.605 6.13004 187.605 13.6711" fill="#062C60"/>
<path d="M183.883 15.383V198.266C183.883 204.558 177.822 209.659 170.344 209.659H86.4106C78.9322 209.659 72.8711 204.558 72.8711 198.266V15.383C72.8711 9.09101 78.9322 3.99036 86.4106 3.99036H101.137V5.1354C101.137 8.28139 104.167 10.8375 107.901 10.8375H149.868C153.601 10.8375 156.632 8.28139 156.632 5.1354V3.99036H170.344C177.822 3.99036 183.883 9.09101 183.883 15.383Z" fill="white"/>
<path d="M172.557 16.1925C172.557 15.9612 172.741 15.7761 172.971 15.7761H177.777C178.007 15.7761 178.191 15.9612 178.191 16.1925V17.6614C178.191 17.8927 178.007 18.0778 177.777 18.0778H172.971C172.741 18.0778 172.557 17.8927 172.557 17.6614V16.1925Z" fill="#3B3B3B"/>
<path fill-rule="evenodd" clip-rule="evenodd" d="M168.662 17.9275C168.662 17.9275 168.696 17.8813 168.696 17.8581C168.696 17.835 168.685 17.8003 168.662 17.7887C168.259 17.4533 167.682 17.4533 167.279 17.7887C167.256 17.8119 167.245 17.835 167.245 17.8581C167.245 17.8813 167.245 17.916 167.279 17.9275L167.901 18.5637C167.901 18.5637 167.947 18.5984 167.971 18.5984C167.994 18.5984 168.017 18.5984 168.04 18.5637L168.662 17.9275ZM167.971 17.0485C168.351 17.0485 168.719 17.1873 169.008 17.4417C169.042 17.4764 169.111 17.4764 169.146 17.4417L169.503 17.0716C169.503 17.0716 169.538 17.0254 169.538 17.0022C169.538 16.9791 169.538 16.9444 169.503 16.9328C168.639 16.1348 167.314 16.1348 166.449 16.9328C166.426 16.956 166.415 16.9791 166.415 17.0022C166.415 17.0254 166.415 17.0601 166.449 17.0716L166.807 17.4417C166.807 17.4417 166.899 17.4764 166.945 17.4417C167.233 17.1873 167.59 17.0485 167.971 17.0485ZM167.971 15.8572C168.662 15.8572 169.33 16.1232 169.837 16.609C169.872 16.6437 169.941 16.6437 169.975 16.609L170.333 16.2389C170.333 16.2389 170.367 16.1926 170.367 16.1695C170.367 16.1463 170.367 16.1116 170.333 16.1001C169.008 14.8278 166.933 14.8278 165.608 16.1001C165.585 16.1232 165.574 16.1463 165.574 16.1695C165.574 16.1926 165.574 16.2273 165.608 16.2389L165.966 16.609C165.966 16.609 166.058 16.6437 166.104 16.609C166.611 16.1348 167.279 15.8572 167.971 15.8572Z" fill="#3B3B3B"/>
<path fill-rule="evenodd" clip-rule="evenodd" d="M158.994 17.3491H159.305C159.478 17.3491 159.616 17.4879 159.616 17.6614V18.286C159.616 18.4595 159.478 18.5983 159.305 18.5983H158.994C158.821 18.5983 158.683 18.4595 158.683 18.286V17.6614C158.683 17.4879 158.821 17.3491 158.994 17.3491ZM160.457 16.7245H160.768C160.941 16.7245 161.079 16.8633 161.079 17.0368V18.2975C161.079 18.471 160.941 18.6098 160.768 18.6098H160.457C160.284 18.6098 160.146 18.471 160.146 18.2975V17.0368C160.146 16.8633 160.284 16.7245 160.457 16.7245ZM161.921 15.9959H162.232C162.405 15.9959 162.543 16.1347 162.543 16.3082V18.2975C162.543 18.471 162.405 18.6098 162.232 18.6098H161.921C161.748 18.6098 161.609 18.471 161.609 18.2975V16.3082C161.609 16.1347 161.748 15.9959 161.921 15.9959ZM163.384 15.2672H163.695C163.868 15.2672 164.006 15.406 164.006 15.5795V18.3091C164.006 18.4826 163.868 18.6214 163.695 18.6214H163.384C163.211 18.6214 163.073 18.4826 163.073 18.3091V15.5795C163.073 15.406 163.211 15.2672 163.384 15.2672Z" fill="#3B3B3B"/>
<path fill-rule="evenodd" clip-rule="evenodd" d="M78.4138 18.5751C79.255 18.5751 79.7505 17.9159 79.7505 16.7939C79.7505 16.3776 79.6698 16.019 79.52 15.7414C79.3011 15.3135 78.9093 15.0822 78.4253 15.0822C77.6994 15.0822 77.1924 15.5679 77.1924 16.2503C77.1924 16.8865 77.6533 17.3607 78.2871 17.3607C78.6789 17.3607 78.99 17.1756 79.1398 16.8633H79.1743C79.1743 17.6267 78.8863 18.0778 78.4023 18.0778C78.1142 18.0778 77.8953 17.9159 77.8261 17.673H77.2385C77.3422 18.2166 77.8031 18.5751 78.4023 18.5751H78.4138ZM80.7184 18.5404C80.9374 18.5404 81.0872 18.3785 81.0872 18.1819C81.0872 17.9852 80.9374 17.8233 80.7184 17.8233C80.4995 17.8233 80.3497 17.9737 80.3497 18.1819C80.3497 18.3901 80.4995 18.5404 80.7184 18.5404ZM85.512 18.4942H86.0996V15.1747H85.512L84.6477 15.7877V16.3544L85.4659 15.7761H85.5004V18.4942H85.512ZM83.2419 18.4942H83.8066V17.8696H84.256V17.3722H83.8066V15.1747H82.9769C82.3892 16.0537 81.9283 16.7939 81.6287 17.3491V17.8812H83.2419V18.5057V18.4942ZM82.1703 17.3491C82.5506 16.6667 82.8963 16.1231 83.2189 15.6489H83.2535V17.3838H82.1703V17.3491ZM78.4369 16.8865C78.0566 16.8865 77.7801 16.6204 77.7801 16.2388C77.7801 15.8571 78.0681 15.5795 78.4369 15.5795C78.8056 15.5795 79.0937 15.8686 79.0937 16.2388C79.0937 16.6089 78.8171 16.8865 78.4369 16.8865ZM80.7299 16.8171C80.9489 16.8171 81.0987 16.6667 81.0987 16.4585C81.0987 16.2503 80.9489 16.1 80.7299 16.1C80.511 16.1 80.3612 16.2503 80.3612 16.4585C80.3612 16.6667 80.511 16.8171 80.7299 16.8171Z" fill="#3B3B3B"/>
<path d="M193.701 162.99C193.701 162.99 181.947 163.984 181.533 167.119C181.118 170.253 182.028 175.782 193.125 176.858H204.625C204.625 176.858 201.191 167.281 201.352 166.957C201.513 166.622 193.712 163.001 193.712 163.001L193.701 162.99Z" fill="#F3AA78"/>
<path d="M174.838 209.763C173.248 210.607 172.695 212.631 173.594 214.193C178.998 223.561 200.511 260.781 202.459 263.8C204.683 267.27 210.11 275.435 228.109 279.645C246.119 283.856 253.517 295.988 253.517 295.988H309.012C309.012 295.988 295.945 275.193 285.09 221.225C285.09 221.225 276.701 176.418 260.915 177.898C260.915 177.898 251.293 167.743 241.925 169.733C241.925 169.733 224.168 159.092 214.051 159.092L189.76 130.281C187.352 127.424 183.123 126.869 180.162 129.136C179.205 129.864 178.491 130.836 178.283 132.108C177.546 136.816 183.711 148.694 193.574 163.059C203.438 177.413 227.855 222.972 217.254 243.027C217.254 243.027 206.399 234.861 197.031 221.734C189.184 210.746 179.954 207.045 174.838 209.775V209.763Z" fill="#F7C29E"/>
<path d="M214.074 159.104C217.473 161.972 220.676 165.095 223.684 168.356C227.751 172.717 232.902 179.194 235.921 184.19C239.724 190.367 242.236 195.791 243.423 202.592H243.342C241.971 196.219 238.399 189.337 235.287 184.584C232.96 180.871 228.65 174.961 223.211 168.773C220.48 165.673 217.023 162.007 214.004 159.173L214.062 159.115L214.074 159.104Z" fill="#F3AA78"/>
<path d="M241.925 169.744C244.472 171.051 246.753 172.879 248.758 174.949C250.786 177.008 252.48 179.333 253.932 181.889C255.349 184.41 256.444 187.128 257.17 189.916C257.792 192.53 258.195 194.311 258.253 198.451H258.184C257.942 195.618 257.435 192.807 256.628 190.077C255.822 187.44 254.681 184.595 253.298 182.236C251.915 179.749 250.233 177.436 248.332 175.331C246.523 173.341 244.16 171.202 241.879 169.802L241.913 169.744H241.925Z" fill="#F3AA78"/>
<path fill-rule="evenodd" clip-rule="evenodd" d="M125.693 141.234C139.382 141.234 150.502 152.395 150.502 166.136C150.502 179.876 139.382 191.037 125.693 191.037C112.003 191.037 100.884 179.876 100.884 166.136C100.884 152.395 112.003 141.234 125.693 141.234Z" fill="#C7D63F"/>
<path fill-rule="evenodd" clip-rule="evenodd" d="M135.268 143.165C144.21 146.924 150.502 155.807 150.502 166.147C150.502 179.888 139.382 191.049 125.693 191.049C116.912 191.049 109.203 186.469 104.79 179.564C107.74 180.802 110.978 181.484 114.366 181.484C128.055 181.484 139.175 170.323 139.175 156.582C139.175 151.643 137.746 147.04 135.268 143.165Z" fill="#ABCC35"/>
<path d="M113.997 167.686H111.415V171.63C111.415 172.196 111.277 172.624 111.012 172.913C110.747 173.203 110.413 173.353 110.01 173.353C109.606 173.353 109.249 173.214 108.984 172.925C108.731 172.636 108.592 172.208 108.592 171.653V160.908C108.592 160.283 108.731 159.844 109.019 159.578C109.307 159.312 109.756 159.173 110.378 159.173H113.985C115.057 159.173 115.875 159.254 116.451 159.416C117.016 159.578 117.511 159.832 117.926 160.202C118.341 160.572 118.652 161.023 118.871 161.555C119.09 162.088 119.193 162.689 119.193 163.348C119.193 164.771 118.756 165.847 117.891 166.575C117.016 167.304 115.725 167.674 113.997 167.674V167.686ZM113.317 161.289H111.427V165.546H113.317C113.985 165.546 114.538 165.476 114.976 165.338C115.425 165.199 115.76 164.967 115.99 164.655C116.22 164.343 116.336 163.927 116.336 163.406C116.336 162.793 116.151 162.284 115.794 161.902C115.391 161.486 114.561 161.289 113.305 161.289H113.317Z" fill="white"/>
<path d="M128.735 171.537L128.067 169.791H122.42L121.752 171.583C121.498 172.277 121.268 172.751 121.084 172.994C120.899 173.237 120.6 173.364 120.185 173.364C119.828 173.364 119.516 173.237 119.251 172.971C118.975 172.717 118.848 172.416 118.848 172.092C118.848 171.907 118.883 171.711 118.94 171.502C118.998 171.294 119.113 171.017 119.251 170.658L122.801 161.602C122.904 161.347 123.019 161.035 123.169 160.665C123.308 160.295 123.469 159.994 123.619 159.751C123.78 159.508 123.987 159.312 124.252 159.161C124.517 159.011 124.84 158.942 125.22 158.942C125.601 158.942 125.935 159.011 126.2 159.161C126.465 159.312 126.672 159.497 126.834 159.74C126.995 159.971 127.133 160.225 127.237 160.491C127.352 160.757 127.49 161.116 127.663 161.567L131.293 170.565C131.581 171.248 131.719 171.745 131.719 172.057C131.719 172.37 131.581 172.682 131.316 172.948C131.051 173.214 130.728 173.353 130.348 173.353C130.129 173.353 129.933 173.318 129.783 173.237C129.622 173.156 129.495 173.052 129.38 172.913C129.276 172.775 129.161 172.566 129.034 172.289C128.908 172.011 128.804 171.757 128.712 171.537H128.735ZM123.158 167.662H127.306L125.209 161.902L123.158 167.662Z" fill="white"/>
<path d="M135.683 171.63V167.211L132.295 161.937C131.996 161.463 131.788 161.093 131.661 160.827C131.535 160.561 131.477 160.329 131.477 160.133C131.477 159.809 131.604 159.531 131.846 159.3C132.099 159.069 132.399 158.953 132.768 158.953C133.148 158.953 133.447 159.057 133.643 159.277C133.839 159.497 134.139 159.936 134.542 160.584L137.135 164.817L139.762 160.584C139.923 160.329 140.05 160.11 140.165 159.925C140.269 159.751 140.396 159.578 140.523 159.427C140.649 159.277 140.799 159.15 140.949 159.069C141.11 158.988 141.295 158.942 141.525 158.942C141.882 158.942 142.17 159.057 142.412 159.289C142.654 159.52 142.77 159.786 142.77 160.087C142.77 160.329 142.712 160.584 142.585 160.827C142.458 161.07 142.263 161.417 141.974 161.856L138.495 167.211V171.63C138.495 172.208 138.356 172.636 138.091 172.925C137.826 173.214 137.492 173.353 137.077 173.353C136.662 173.353 136.317 173.214 136.063 172.925C135.81 172.647 135.671 172.208 135.671 171.63H135.683Z" fill="white"/>
<path fill-rule="evenodd" clip-rule="evenodd" d="M175.898 37.7981C175.898 36.3523 175.322 34.976 174.308 33.9466C173.294 32.9288 171.911 32.3505 170.471 32.3505H26.5489C25.1085 32.3505 23.7373 32.9288 22.7118 33.9466C21.6977 34.9644 21.1216 36.3523 21.1216 37.7981V122.138C21.1216 123.584 21.6977 124.96 22.7118 125.99C23.7258 127.008 25.1085 127.586 26.5489 127.586H170.482C171.923 127.586 173.294 127.008 174.319 125.99C175.334 124.972 175.91 123.584 175.91 122.138V37.7981H175.898Z" fill="#EA5E5D"/>
<path d="M71.5578 31.9918L38.6943 125.261C38.7174 125.712 38.8211 123.711 38.8902 127.528H83.9105L117.258 31.9918H71.5578Z" fill="#F86E6D"/>
<path d="M124.875 31.9918L91.5386 127.528H102.958L136.294 31.9918H124.875Z" fill="#F86E6D"/>
<path d="M36.3897 81.622C33.7049 81.622 31.5386 79.436 31.5386 76.7527V62.1331C31.5386 59.4498 33.7164 57.2638 36.3897 57.2638H50.9548C53.6281 57.2638 55.806 59.4498 55.806 62.1331V76.7527C55.806 79.436 53.6281 81.622 50.9548 81.622H36.3897Z" fill="#FDE998"/>
<path d="M32.7021 115.673H79.0821V111.439H32.7021V115.673Z" fill="#FAE1FC"/>
<path d="M31.5269 104.199C31.5269 104.685 31.9186 105.078 32.4026 105.078H59.447C59.931 105.078 60.3228 104.685 60.3228 104.199V93.0146C60.3228 92.5289 59.931 92.1356 59.447 92.1356H32.4026C31.9186 92.1356 31.5269 92.5289 31.5269 93.0146V104.199Z" fill="#FAE1FC"/>
<path d="M103.35 104.199C103.35 104.685 103.741 105.078 104.225 105.078H131.27C131.754 105.078 132.146 104.685 132.146 104.199V93.0146C132.146 92.5289 131.754 92.1356 131.27 92.1356H104.225C103.741 92.1356 103.35 92.5289 103.35 93.0146V104.199Z" fill="#FAE1FC"/>
<path d="M66.9717 104.199C66.9717 104.685 67.3635 105.078 67.8474 105.078H94.8918C95.3758 105.078 95.7676 104.685 95.7676 104.199V93.0146C95.7676 92.5289 95.3758 92.1356 94.8918 92.1356H67.8474C67.3635 92.1356 66.9717 92.5289 66.9717 93.0146V104.199Z" fill="#FAE1FC"/>
<path d="M138.783 104.199C138.783 104.685 139.174 105.078 139.658 105.078H166.714C167.198 105.078 167.59 104.685 167.59 104.199V93.0146C167.59 92.5289 167.198 92.1356 166.714 92.1356H139.658C139.174 92.1356 138.783 92.5289 138.783 93.0146V104.199Z" fill="#FAE1FC"/>
<path d="M87.5171 115.673H117.027V111.439H87.5171V115.673Z" fill="#FAE1FC"/>
<path d="M80.0848 47.2708C80.0848 47.9185 79.8313 48.5315 79.3819 48.9825C78.9325 49.4336 78.3103 49.6881 77.6765 49.6881H33.9469C33.3016 49.6881 32.6909 49.4336 32.2415 48.9825C31.7921 48.5315 31.5386 47.9069 31.5386 47.2708V44.3792C31.5386 43.7315 31.7921 43.1185 32.2415 42.6674C32.6909 42.2164 33.3131 41.9619 33.9469 41.9619H77.6765C78.3218 41.9619 78.9325 42.2164 79.3819 42.6674C79.8313 43.1185 80.0848 43.7431 80.0848 44.3792V47.2708Z" fill="#FAE1FC"/>
<path d="M118.295 47.1204C118.295 47.7681 118.041 48.3811 117.592 48.8322C117.142 49.2832 116.52 49.5377 115.886 49.5377H88.1046C87.4593 49.5377 86.8486 49.2832 86.3992 48.8322C85.9498 48.3811 85.6963 47.7565 85.6963 47.1204V44.2288C85.6963 43.5811 85.9498 42.9681 86.3992 42.5171C86.8486 42.066 87.4708 41.8115 88.1046 41.8115H115.886C116.532 41.8115 117.142 42.066 117.592 42.5171C118.041 42.9681 118.295 43.5927 118.295 44.2288V47.1204Z" fill="#FAE1FC"/>
<path d="M69.1492 128.928L71.7879 109.277C71.7879 109.277 83.9332 95.6518 81.0063 77.2617C80.0038 70.9697 76.8811 65.1751 72.1106 60.965C69.3912 58.5593 66.3952 56.9632 64.6322 59.2185C64.6322 59.2185 44.5246 103.783 36.8042 127.806L69.1492 128.904V128.928Z" fill="#F7C29E"/>
<path d="M201.94 94.9115L199.866 95.698L185.912 101.018C185.589 101.146 185.255 101.25 184.921 101.331C180.3 102.534 175.391 100.058 173.651 95.4898L173.444 94.9577C171.589 90.0537 174.066 84.5135 178.952 82.6514L191.961 77.6895L192.906 77.331L194.98 76.5445C199.866 74.6823 205.374 77.1691 207.229 82.0731L207.437 82.6051C209.292 87.5092 206.814 93.0493 201.929 94.9115H201.94Z" fill="#F7C29E"/>
<path d="M195.614 111.116L184.851 114.053C181.579 114.944 178.18 112.989 177.292 109.716L176.958 108.49C176.071 105.205 178.018 101.793 181.279 100.903L192.042 97.965C195.314 97.0744 198.714 99.029 199.601 102.302L199.935 103.528C200.822 106.813 198.875 110.225 195.614 111.116Z" fill="#F7C29E"/>
<path d="M201.606 76.9956C201.525 77.0187 201.456 77.0534 201.375 77.0766L187.271 80.7083C181.072 82.3045 174.653 78.9387 173.017 73.2251L172.176 70.2988C170.597 64.8165 173.985 59.0681 179.747 57.2176L184.402 56.0147L193.851 53.5858C200.05 51.9897 206.468 55.3554 208.105 61.0691L208.946 63.9953C210.501 69.4082 207.229 75.0641 201.606 77.0072V76.9956Z" fill="#F7C29E"/>
</g>
<defs>
<clipPath id="clip0_410_1065">
<rect width="309" height="296" fill="white"/>
</clipPath>
</defs>
</svg>
