<svg width="72" height="72" viewBox="0 0 72 72" fill="none" xmlns="http://www.w3.org/2000/svg">
<g id="Frame">
<g id="Group">
<path id="Vector" fill-rule="evenodd" clip-rule="evenodd" d="M6.31055 27.4074L16.7882 21.4075C17.0579 23.0428 17.5348 24.6372 18.2073 26.152C19.0735 28.1031 20.2769 30.0466 21.4282 31.843C22.3719 33.3155 23.3512 34.7681 24.3457 36.2091V59.4222L6.31055 69.75V27.4074ZM27.8615 41.1979V59.4224L44.139 68.7433V41.1981C42.3731 43.665 40.5925 46.1371 38.94 48.657L37.4113 50.988C37.09 51.478 36.5863 51.75 36.0001 51.75C35.4142 51.75 34.9104 51.4779 34.589 50.988L33.0602 48.657C31.4077 46.1371 29.6273 43.6649 27.8615 41.1979ZM53.7933 26.152C52.927 28.1031 51.7237 30.0466 50.5723 31.843C49.6285 33.3156 48.6492 34.7683 47.6546 36.2093V68.7433L65.6899 58.4158V16.0733L55.0745 22.152C54.7924 23.5275 54.3628 24.8686 53.7931 26.152H53.7933ZM50.5801 24.7254C48.2258 30.0278 39.6184 41.2121 36.0003 46.7291C32.3823 41.2121 23.7748 30.0279 21.4204 24.7254C18.8141 18.8553 19.9084 11.7051 24.7036 6.90989C27.8101 3.80334 31.9053 2.25 36.0003 2.25C40.0953 2.25 44.1903 3.80334 47.297 6.90989C52.0921 11.7051 53.1865 18.8553 50.5801 24.7254ZM40.8916 13.3152C38.1902 10.6138 33.8103 10.6138 31.1089 13.3152C28.4075 16.0166 28.4075 20.3964 31.1089 23.0979C33.8103 25.7993 38.1902 25.7993 40.8916 23.0979C43.593 20.3965 43.593 16.0166 40.8916 13.3152Z" fill="url(#paint0_linear_450_2607)"/>
</g>
</g>
<defs>
<linearGradient id="paint0_linear_450_2607" x1="36.0003" y1="69.75" x2="36.0003" y2="2.25" gradientUnits="userSpaceOnUse">
<stop stop-color="#1751FF"/>
<stop offset="1" stop-color="#17A0FF"/>
</linearGradient>
</defs>
</svg>
