<svg width="72" height="72" viewBox="0 0 72 72" fill="none" xmlns="http://www.w3.org/2000/svg">
<g id="Frame">
<g id="Group">
<path id="Vector" fill-rule="evenodd" clip-rule="evenodd" d="M55.4271 48.4629L61.3578 54.3936C63.3529 56.3886 63.3529 59.6431 61.3578 61.6382L54.3079 68.688C52.3554 70.6403 49.5517 71.1662 47.0248 70.0533C26.9008 61.1913 10.8086 45.0991 1.94645 24.9751C0.833685 22.4484 1.35948 19.6444 3.31178 17.6922L10.3617 10.6422C12.3568 8.64715 15.6113 8.64715 17.6063 10.6422L23.537 16.5729C25.5321 18.568 25.5318 21.8227 23.537 23.8175L18.2547 29.0998C24.7464 38.8744 33.1255 47.2535 42.9001 53.7452L48.1824 48.463C50.1772 46.4682 53.4319 46.468 55.427 48.463L55.4271 48.4629ZM47.8929 37.4456C48.863 37.4456 49.6507 36.6585 49.6507 35.6878C49.6507 28.3324 43.6667 22.3478 36.3107 22.3478C35.3407 22.3478 34.5529 23.1356 34.5529 24.1056C34.5529 25.0757 35.3407 25.8634 36.3107 25.8634C41.7273 25.8634 46.135 30.2706 46.135 35.6878C46.135 36.6585 46.9221 37.4456 47.8929 37.4456ZM58.3368 37.4456C57.3647 37.4456 56.579 36.6585 56.579 35.6878C56.579 24.5118 47.4862 15.4202 36.3107 15.4202C35.3407 15.4202 34.5529 14.6331 34.5529 13.6624C34.5529 12.6917 35.3407 11.9046 36.3107 11.9046C49.4257 11.9046 60.0946 22.5735 60.0946 35.6878C60.0946 36.6585 59.3068 37.4456 58.3368 37.4456ZM67.1118 35.6878C67.1118 18.7034 53.2952 4.88614 36.3107 4.88614C35.3407 4.88614 34.5529 4.09976 34.5529 3.12833C34.5529 2.15689 35.3407 1.37122 36.3107 1.37122C45.4768 1.37122 54.0958 4.94042 60.5767 11.422C67.0575 17.9035 70.6301 26.5219 70.6301 35.6879C70.6301 36.6587 69.8437 37.4457 68.8675 37.4457C67.898 37.4457 67.1118 36.6587 67.1118 35.6879V35.6878Z" fill="url(#paint0_linear_450_2627)"/>
</g>
</g>
<defs>
<linearGradient id="paint0_linear_450_2627" x1="36.0006" y1="70.6289" x2="36.0006" y2="1.37108" gradientUnits="userSpaceOnUse">
<stop stop-color="#1751FF"/>
<stop offset="1" stop-color="#17A0FF"/>
</linearGradient>
</defs>
</svg>
