<svg width="24" height="24" viewBox="0 0 24 24" fill="none" xmlns="http://www.w3.org/2000/svg">
<path d="M23.0001 10.9998C22.7348 10.9998 22.4805 10.8944 22.2929 10.7069C22.1054 10.5194 22.0001 10.265 22.0001 9.99981C21.9979 7.87872 21.1544 5.84512 19.6546 4.34529C18.1547 2.84546 16.1211 2.00192 14.0001 1.99981C13.7348 1.99981 13.4805 1.89445 13.2929 1.70691C13.1054 1.51938 13.0001 1.26502 13.0001 0.999807C13.0001 0.73459 13.1054 0.480236 13.2929 0.2927C13.4805 0.105163 13.7348 -0.00019346 14.0001 -0.00019346C16.6513 0.00271814 19.1932 1.05722 21.0679 2.93195C22.9426 4.80669 23.9971 7.34854 24.0001 9.99981C24.0001 10.265 23.8947 10.5194 23.7072 10.7069C23.5196 10.8944 23.2653 10.9998 23.0001 10.9998ZM20.0001 9.99981C20.0001 8.40851 19.3679 6.88238 18.2427 5.75717C17.1175 4.63195 15.5914 3.99981 14.0001 3.99981C13.7348 3.99981 13.4805 4.10516 13.2929 4.2927C13.1054 4.48024 13.0001 4.73459 13.0001 4.99981C13.0001 5.26502 13.1054 5.51938 13.2929 5.70691C13.4805 5.89445 13.7348 5.99981 14.0001 5.99981C15.0609 5.99981 16.0783 6.42123 16.8285 7.17138C17.5786 7.92152 18.0001 8.93894 18.0001 9.99981C18.0001 10.265 18.1054 10.5194 18.2929 10.7069C18.4805 10.8944 18.7348 10.9998 19.0001 10.9998C19.2653 10.9998 19.5196 10.8944 19.7072 10.7069C19.8947 10.5194 20.0001 10.265 20.0001 9.99981ZM22.1831 22.1638L23.0931 21.1148C23.6723 20.5337 23.9975 19.7467 23.9975 18.9263C23.9975 18.1059 23.6723 17.3189 23.0931 16.7378C23.0621 16.7068 20.6561 14.8558 20.6561 14.8558C20.0786 14.3061 19.3116 14.0001 18.5143 14.0012C17.7171 14.0023 16.951 14.3105 16.3751 14.8618L14.4691 16.4678C12.9132 15.8239 11.4999 14.879 10.3103 13.6873C9.12074 12.4957 8.17827 11.0807 7.53705 9.52381L9.13705 7.62381C9.68877 7.04798 9.99735 6.28168 9.99865 5.48421C9.99996 4.68674 9.69388 3.91943 9.14405 3.34181C9.14405 3.34181 7.29105 0.938807 7.26005 0.907807C6.6895 0.333555 5.91593 0.00682856 5.10648 -0.00177868C4.29702 -0.0103859 3.51668 0.299817 2.93405 0.861807L1.78405 1.86181C-5.00995 9.74381 9.62005 24.2608 17.7621 23.9998C18.5842 24.0046 19.399 23.8446 20.1584 23.5292C20.9177 23.2139 21.6061 22.7496 22.1831 22.1638Z" fill="#FF4949"/>
</svg>
