<svg width="126" height="33" viewBox="0 0 126 33" fill="none" xmlns="http://www.w3.org/2000/svg">
<path d="M126 32L123.049 20.8366L114.856 28.9743L126 32ZM1.77546 32.6314C2.57032 31.6552 3.42353 30.6616 4.33292 29.6579L2.85084 28.315C1.91845 29.344 1.04223 30.3644 0.224544 31.3686L1.77546 32.6314ZM9.90743 24.0653C11.7808 22.3501 13.8016 20.6471 15.9588 18.992L14.7413 17.4052C12.5372 19.0963 10.472 20.8367 8.55687 22.5902L9.90743 24.0653ZM22.4224 14.4639C24.6019 13.0751 26.8841 11.7538 29.2609 10.5267L28.3434 8.7496C25.9105 10.0057 23.5758 11.3574 21.3476 12.7773L22.4224 14.4639ZM36.4318 7.24765C38.8422 6.28461 41.3294 5.4285 43.8866 4.70142L43.3397 2.77767C40.7134 3.52438 38.1611 4.40302 35.6898 5.3904L36.4318 7.24765ZM51.5629 2.96271C54.1139 2.53143 56.7222 2.23581 59.382 2.09477L59.2761 0.0975804C56.5377 0.242783 53.8534 0.547088 51.2295 0.990692L51.5629 2.96271ZM67.2467 2.13697C69.8061 2.30051 72.406 2.61339 75.042 3.09103L75.3986 1.12308C72.6862 0.631588 70.0098 0.309449 67.3742 0.141042L67.2467 2.13697ZM82.6913 4.92454C85.1411 5.65618 87.6178 6.53575 90.1179 7.57503L90.8856 5.72824C88.3224 4.66274 85.7806 3.75985 83.2636 3.00817L82.6913 4.92454ZM97.2312 10.941C99.4855 12.1387 101.756 13.471 104.04 14.9461L105.125 13.266C102.795 11.7609 100.475 10.3998 98.1696 9.17483L97.2312 10.941ZM110.525 19.4983C112.556 21.0399 114.596 22.6983 116.644 24.4791L117.956 22.9701C115.876 21.161 113.801 19.4745 111.734 17.9052L110.525 19.4983Z" fill="#383838"/>
</svg>
