<svg width="16" height="16" viewBox="0 0 16 16" fill="none" xmlns="http://www.w3.org/2000/svg">
<g id="fi-sr-book-alt" clip-path="url(#clip0_463_623)">
<path id="Vector" d="M14.8 1.44198C14.42 1.12489 13.9741 0.896412 13.4947 0.773141C13.0153 0.64987 12.5145 0.634899 12.0287 0.729315L10.8527 1.01731C10.239 1.12978 9.68412 1.45387 9.2847 1.9332C8.88528 2.41252 8.66659 3.01672 8.66667 3.64065V13.952C8.22458 14.0167 7.77543 14.0167 7.33333 13.952V3.64065C7.33555 3.02248 7.1219 2.42292 6.72926 1.94545C6.33662 1.46798 5.78963 1.14255 5.18267 1.02531L3.93333 0.721315C3.45277 0.633377 2.95875 0.652148 2.48625 0.776299C2.01375 0.900449 1.57431 1.12694 1.19904 1.43975C0.823778 1.75256 0.521857 2.14403 0.314655 2.58645C0.107452 3.02888 3.25416e-05 3.51144 0 3.99998L0 11.1953C3.83039e-05 11.9758 0.273984 12.7316 0.774089 13.3309C1.27419 13.9302 1.96874 14.3349 2.73667 14.4746L6.92733 15.2366C7.63664 15.3655 8.36336 15.3655 9.07267 15.2366L13.2667 14.4746C14.034 14.3342 14.7278 13.9292 15.2272 13.33C15.7266 12.7308 16.0001 11.9754 16 11.1953V3.99998C16.0003 3.51161 15.8929 3.02918 15.6855 2.58704C15.4781 2.14491 15.1758 1.75394 14.8 1.44198Z" fill="#FAFBFB"/>
</g>
<defs>
<clipPath id="clip0_463_623">
<rect width="16" height="16" fill="white"/>
</clipPath>
</defs>
</svg>
