<svg width="18" height="20" viewBox="0 0 18 20" fill="none" xmlns="http://www.w3.org/2000/svg">
<path d="M8.99996 19.9999C4.40496 19.9999 0.666626 16.2616 0.666626 11.6666C0.666626 8.86825 1.92079 7.11742 3.80413 5.34992L5.84413 3.43409L5.18413 6.15325C4.95496 7.09992 4.89496 9.99159 6.11079 11.5374C6.61996 12.1849 7.29246 12.4999 8.16663 12.4999C9.08913 12.4999 9.82163 11.7633 9.83329 10.8224C9.84496 9.89159 9.45163 9.12075 9.03496 8.30575C8.60829 7.47075 8.16663 6.60825 8.16663 5.55992C8.16663 3.30075 9.34329 1.25326 9.39329 1.16742L10.0833 -0.0175781L10.8175 1.14159C11.525 2.25742 12.4791 3.29742 13.4033 4.30325C15.3358 6.40659 17.3341 8.58325 17.3341 11.6674C17.3341 16.2624 13.5958 20.0008 9.00079 20.0008L8.99996 19.9999Z" fill="#FAFBFB"/>
</svg>
