<svg width="129" height="38" viewBox="0 0 129 38" fill="none" xmlns="http://www.w3.org/2000/svg">
<g clip-path="url(#clip0_527_384)">
<path d="M124.222 38H4.77778C2.15 38 0 35.8625 0 33.25V4.75C0 2.1375 2.15 0 4.77778 0H124.222C126.85 0 129 2.1375 129 4.75V33.25C129 35.8625 126.85 38 124.222 38Z" fill="#E6E9EB"/>
<path d="M45.3124 9.72787C45.3124 10.5259 45.0735 11.1624 44.5958 11.6279C44.0606 12.1884 43.3535 12.4734 42.4935 12.4734C41.6622 12.4734 40.9647 12.1884 40.3818 11.6184C39.7989 11.0484 39.5122 10.3359 39.5122 9.49987C39.5122 8.65437 39.7989 7.95137 40.3818 7.38137C40.9647 6.81137 41.6622 6.52637 42.4935 6.52637C42.9044 6.52637 43.2962 6.60237 43.6689 6.76387C44.0415 6.92537 44.3378 7.13437 44.5671 7.40037L44.0607 7.90387C43.6784 7.45737 43.1624 7.22937 42.4935 7.22937C41.8915 7.22937 41.366 7.43837 40.9264 7.86587C40.4869 8.28387 40.2671 8.83487 40.2671 9.50937C40.2671 10.1839 40.4869 10.7349 40.9264 11.1529C41.366 11.5709 41.8915 11.7894 42.4935 11.7894C43.1338 11.7894 43.6689 11.5804 44.0989 11.1529C44.376 10.8774 44.5384 10.4879 44.5767 9.99387H42.4935V9.30037H45.2742C45.2933 9.45237 45.3124 9.59487 45.3124 9.72787Z" fill="#082032" stroke="white" stroke-width="0.2" stroke-miterlimit="10"/>
<path d="M49.7176 7.35241H47.1089V9.15741H49.4596V9.84141H47.1089V11.6464H49.7176V12.3494H46.3732V6.64941H49.7176V7.35241Z" fill="#082032" stroke="white" stroke-width="0.2" stroke-miterlimit="10"/>
<path d="M52.823 12.3494H52.0873V7.35241H50.4819V6.64941H54.4188V7.35241H52.8135V12.3494H52.823Z" fill="#082032" stroke="white" stroke-width="0.2" stroke-miterlimit="10"/>
<path d="M57.2759 12.3494V6.64941H58.0117V12.3494H57.2759Z" fill="#082032" stroke="white" stroke-width="0.2" stroke-miterlimit="10"/>
<path d="M61.2797 12.3494H60.5439V7.35241H58.9386V6.64941H62.8755V7.35241H61.2702V12.3494H61.2797Z" fill="#082032" stroke="white" stroke-width="0.2" stroke-miterlimit="10"/>
<path d="M70.3384 11.6089C69.7746 12.1884 69.0771 12.4734 68.2362 12.4734C67.3953 12.4734 66.6978 12.1884 66.134 11.6089C65.5702 11.0294 65.2931 10.3264 65.2931 9.49987C65.2931 8.67337 65.5702 7.96087 66.134 7.39087C66.6978 6.81137 67.3953 6.52637 68.2362 6.52637C69.0675 6.52637 69.7651 6.81137 70.3384 7.39087C70.9022 7.97037 71.1889 8.67337 71.1889 9.49987C71.1793 10.3359 70.9022 11.0389 70.3384 11.6089ZM66.6786 11.1339C67.0991 11.5614 67.6246 11.7704 68.2362 11.7704C68.8478 11.7704 69.3733 11.5614 69.7938 11.1339C70.2142 10.7064 70.434 10.1649 70.434 9.49987C70.434 8.83487 70.2238 8.29337 69.7938 7.86587C69.3733 7.43837 68.8478 7.21987 68.2362 7.21987C67.6246 7.21987 67.0991 7.42887 66.6786 7.85637C66.2582 8.29337 66.0384 8.83487 66.0384 9.49987C66.0384 10.1649 66.2582 10.7064 66.6786 11.1339Z" fill="#082032" stroke="white" stroke-width="0.2" stroke-miterlimit="10"/>
<path d="M72.2208 12.3494V6.64941H73.119L75.9093 11.0859H75.9379L75.9093 9.98391V6.64941H76.645V12.3494H75.8806L72.9662 7.70391H72.9375L72.9662 8.80591V12.3494H72.2208Z" fill="#082032" stroke="white" stroke-width="0.2" stroke-miterlimit="10"/>
<path d="M65.0733 20.6154C62.8277 20.6154 60.9931 22.3159 60.9931 24.6529C60.9931 26.9804 62.8277 28.6904 65.0733 28.6904C67.3188 28.6904 69.1535 26.9804 69.1535 24.6529C69.1535 22.3159 67.3188 20.6154 65.0733 20.6154ZM65.0733 27.1039C63.8406 27.1039 62.78 26.0969 62.78 24.6529C62.78 23.1994 63.8406 22.2019 65.0733 22.2019C66.306 22.2019 67.3666 23.1994 67.3666 24.6529C67.3666 26.0969 66.2964 27.1039 65.0733 27.1039ZM56.1675 20.6154C53.922 20.6154 52.0873 22.3159 52.0873 24.6529C52.0873 26.9804 53.922 28.6904 56.1675 28.6904C58.4131 28.6904 60.2477 26.9804 60.2477 24.6529C60.2477 22.3159 58.4131 20.6154 56.1675 20.6154ZM56.1675 27.1039C54.9348 27.1039 53.8742 26.0969 53.8742 24.6529C53.8742 23.1994 54.9348 22.2019 56.1675 22.2019C57.4002 22.2019 58.4608 23.1994 58.4608 24.6529C58.4608 26.0969 57.4002 27.1039 56.1675 27.1039ZM45.58 21.8599V23.5699H49.708C49.5837 24.5294 49.2588 25.2419 48.7715 25.7264C48.1695 26.3249 47.2331 26.9804 45.5895 26.9804C43.0477 26.9804 41.0602 24.9474 41.0602 22.4204C41.0602 19.8934 43.0477 17.8604 45.5895 17.8604C46.956 17.8604 47.9593 18.3924 48.6951 19.0859L49.9086 17.8794C48.8766 16.9009 47.5102 16.1504 45.58 16.1504C42.1017 16.1504 39.1777 18.9624 39.1777 22.4299C39.1777 25.8879 42.1017 28.7094 45.58 28.7094C47.4624 28.7094 48.8766 28.1014 49.9851 26.9519C51.1222 25.8214 51.4757 24.2254 51.4757 22.9429C51.4757 22.5439 51.4471 22.1734 51.3802 21.8694H45.58V21.8599ZM88.8762 23.1899C88.5417 22.2874 87.5097 20.6154 85.398 20.6154C83.3053 20.6154 81.5662 22.2494 81.5662 24.6529C81.5662 26.9139 83.2862 28.6904 85.5986 28.6904C87.462 28.6904 88.5417 27.5599 88.9813 26.9044L87.5957 25.9829C87.1371 26.6574 86.5064 27.1039 85.5986 27.1039C84.6908 27.1039 84.0411 26.6859 83.6302 25.8784L89.0673 23.6459L88.8762 23.1899ZM83.334 24.5389C83.2862 22.9809 84.5475 22.1829 85.4553 22.1829C86.1624 22.1829 86.7644 22.5344 86.9651 23.0379L83.334 24.5389ZM78.9193 28.4529H80.7062V16.5779H78.9193V28.4529ZM75.9953 21.5179H75.9284C75.5271 21.0429 74.7626 20.6154 73.788 20.6154C71.7526 20.6154 69.8893 22.3919 69.8893 24.6719C69.8893 26.9329 71.7526 28.6999 73.788 28.6999C74.7531 28.6999 75.5271 28.2724 75.9284 27.7784H75.9857V28.3579C75.9857 29.9064 75.1544 30.7329 73.8166 30.7329C72.7273 30.7329 72.0488 29.9539 71.7717 29.2984L70.2142 29.9444C70.6633 31.0179 71.8482 32.3289 73.8166 32.3289C75.9093 32.3289 77.6771 31.1034 77.6771 28.1204V20.8624H75.9857V21.5179H75.9953ZM73.9408 27.1039C72.7082 27.1039 71.6762 26.0779 71.6762 24.6719C71.6762 23.2469 72.7082 22.2114 73.9408 22.2114C75.1544 22.2114 76.11 23.2564 76.11 24.6719C76.1195 26.0779 75.164 27.1039 73.9408 27.1039ZM97.2468 16.5779H92.9755V28.4529H94.7624V23.9499H97.2564C99.2344 23.9499 101.174 22.5249 101.174 20.2639C101.174 18.0029 99.2153 16.5779 97.2468 16.5779ZM97.2851 22.2969H94.7528V18.2214H97.2851C98.6228 18.2214 99.3777 19.3234 99.3777 20.2544C99.3777 21.1854 98.6228 22.2969 97.2851 22.2969ZM108.312 20.5964C107.022 20.5964 105.684 21.1664 105.13 22.4109L106.716 23.0664C107.051 22.4109 107.682 22.1924 108.341 22.1924C109.268 22.1924 110.204 22.7434 110.214 23.7219V23.8454C109.889 23.6649 109.201 23.3894 108.35 23.3894C106.64 23.3894 104.91 24.3204 104.91 26.0589C104.91 27.6454 106.306 28.6714 107.873 28.6714C109.067 28.6714 109.736 28.1394 110.147 27.5124H110.204V28.4339H111.924V23.8834C111.934 21.7744 110.348 20.5964 108.312 20.5964ZM108.092 27.1039C107.51 27.1039 106.697 26.8094 106.697 26.0969C106.697 25.1849 107.71 24.8334 108.589 24.8334C109.373 24.8334 109.746 25.0044 110.214 25.2324C110.08 26.3249 109.124 27.1039 108.092 27.1039ZM118.202 20.8529L116.157 26.0019H116.1L113.979 20.8529H112.058L115.24 28.0539L113.424 32.0534H115.288L120.19 20.8529H118.202ZM102.149 28.4529H103.936V16.5779H102.149V28.4529Z" fill="#082032"/>
<path d="M9.97593 7.16318C9.69882 7.45768 9.53638 7.91368 9.53638 8.49318V29.5072C9.53638 30.0962 9.69882 30.5522 9.97593 30.8372L10.0428 30.9037L21.8822 19.1427V19.0002V18.8577L10.0428 7.09668L9.97593 7.16318Z" fill="url(#paint0_linear_527_384)"/>
<path d="M25.8286 23.0666L21.8822 19.1431V19.0006V18.8581L25.8286 14.9346L25.9146 14.9821L30.5873 17.6231C31.9251 18.3736 31.9251 19.6086 30.5873 20.3686L25.9146 23.0096L25.8286 23.0666Z" fill="url(#paint1_linear_527_384)"/>
<path d="M25.9146 23.0185L21.8822 19L9.97595 30.837C10.4155 31.3025 11.1417 31.3595 11.9635 30.894L25.9146 23.0185Z" fill="url(#paint2_linear_527_384)"/>
<path d="M25.9147 14.9911L11.954 7.10611C11.1322 6.64061 10.406 6.69761 9.96643 7.16311L21.8822 19.0001L25.9147 14.9911Z" fill="url(#paint3_linear_527_384)"/>
<path opacity="0.2" d="M25.8286 22.9238L11.954 30.7613C11.18 31.1983 10.4824 31.1698 10.0428 30.7708L9.97595 30.8373L10.0428 30.9038C10.492 31.3028 11.18 31.3313 11.954 30.8943L25.9146 23.0093L25.8286 22.9238Z" fill="black"/>
<path opacity="0.12" d="M9.97593 30.704C9.69882 30.4095 9.53638 29.9535 9.53638 29.374V29.5165C9.53638 30.1055 9.69882 30.5615 9.97593 30.8465L10.0428 30.78L9.97593 30.704Z" fill="black"/>
<path opacity="0.12" d="M30.5873 20.235L25.8191 22.9235L25.9051 23.009L30.5778 20.368C31.2466 19.988 31.5811 19.494 31.5811 19C31.5333 19.4465 31.1989 19.893 30.5873 20.235Z" fill="black"/>
<path opacity="0.25" d="M11.954 7.23931L30.5873 17.7653C31.1893 18.1073 31.5333 18.5443 31.5906 19.0003C31.5906 18.5063 31.2562 18.0028 30.5873 17.6323L11.954 7.10631C10.6162 6.35581 9.52686 6.98281 9.52686 8.50281V8.64531C9.52686 7.11581 10.6257 6.48881 11.954 7.23931Z" fill="white"/>
</g>
<defs>
<linearGradient id="paint0_linear_527_384" x1="20.8307" y1="8.27449" x2="4.88765" y2="24.3107" gradientUnits="userSpaceOnUse">
<stop stop-color="#00A0FF"/>
<stop offset="0.00657445" stop-color="#00A1FF"/>
<stop offset="0.2601" stop-color="#00BEFF"/>
<stop offset="0.5122" stop-color="#00D2FF"/>
<stop offset="0.7604" stop-color="#00DFFF"/>
<stop offset="1" stop-color="#00E3FF"/>
</linearGradient>
<linearGradient id="paint1_linear_527_384" x1="32.3305" y1="19.002" x2="9.20906" y2="19.002" gradientUnits="userSpaceOnUse">
<stop stop-color="#FFE000"/>
<stop offset="0.4087" stop-color="#FFBD00"/>
<stop offset="0.7754" stop-color="#FFA500"/>
<stop offset="1" stop-color="#FF9C00"/>
</linearGradient>
<linearGradient id="paint2_linear_527_384" x1="23.7234" y1="21.1814" x2="2.10342" y2="42.9278" gradientUnits="userSpaceOnUse">
<stop stop-color="#FF3A44"/>
<stop offset="1" stop-color="#C31162"/>
</linearGradient>
<linearGradient id="paint3_linear_527_384" x1="6.97287" y1="0.167596" x2="16.6272" y2="9.87826" gradientUnits="userSpaceOnUse">
<stop stop-color="#32A071"/>
<stop offset="0.0685" stop-color="#2DA771"/>
<stop offset="0.4762" stop-color="#15CF74"/>
<stop offset="0.8009" stop-color="#06E775"/>
<stop offset="1" stop-color="#00F076"/>
</linearGradient>
<clipPath id="clip0_527_384">
<rect width="129" height="38" fill="white"/>
</clipPath>
</defs>
</svg>
