<svg width="88" height="88" viewBox="0 0 88 88" fill="none" xmlns="http://www.w3.org/2000/svg">
<g clip-path="url(#clip0_328_156)">
<mask id="mask0_328_156" style="mask-type:luminance" maskUnits="userSpaceOnUse" x="0" y="0" width="88" height="88">
<path d="M0 0.000259399H87.9997V88H0V0.000259399Z" fill="white"/>
</mask>
<g mask="url(#mask0_328_156)">
<path d="M0.654175 13.8626C0.654175 6.13872 6.97125 -0.109777 14.7207 0.00177002C22.2273 0.109707 28.3311 6.26591 28.3787 13.773C28.4052 17.9771 26.5596 21.7504 23.6271 24.3098C23.3175 24.5798 23.3622 25.0728 23.7158 25.2819L26.3278 26.8274C26.75 27.0773 26.5728 27.7246 26.0821 27.7246L14.2541 27.7217C6.71928 27.5816 0.654175 21.4307 0.654175 13.8626Z" fill="#7ACAA6"/>
<path d="M26.3277 26.8274L23.7157 25.2819C23.3641 25.074 23.3152 24.5817 23.6231 24.3132C26.5891 21.7265 28.4443 17.8985 28.3771 13.6385C28.2606 6.26969 22.2965 0.220909 14.93 0.00623894C13.9085 -0.0241776 12.8868 0.0576668 11.8832 0.250299C18.2508 1.47078 23.1033 7.08351 23.1456 13.773C23.1661 17.0127 22.075 19.9964 20.2313 22.3661C19.1181 23.7971 19.4799 25.8718 21.0401 26.7951L21.0948 26.8274C21.5124 27.0744 21.343 27.7095 20.8647 27.7232L26.0821 27.7246C26.5728 27.7246 26.75 27.0773 26.3277 26.8274Z" fill="#57BE92"/>
<path d="M68.1985 50.3174H36.7513C28.897 50.3174 24.5989 41.164 29.6154 35.1204L29.8943 34.7842C32.1043 32.1216 33.314 28.7702 33.314 25.31V19.2457C33.314 8.61668 41.9304 0.000270844 52.5594 0.000270844C63.1885 0.000270844 71.8049 8.61668 71.8049 19.2457V25.5147C71.8049 29.0111 73.0399 32.3952 75.2921 35.0697C80.3713 41.1011 76.0837 50.3174 68.1985 50.3174Z" fill="#C59191"/>
<path d="M84.729 65.9022V86.6921H20.2212V66.0586C20.2212 61.3871 23.0209 57.171 27.3248 55.3594L37.7386 50.8322L41.2447 49.3077C43.9053 48.151 45.6258 45.5265 45.6258 42.6252V41.2795H59.3226V42.5565C59.3226 45.4698 61.0601 48.1046 63.7396 49.2527L77.8247 55.2907C82.0219 57.1504 84.729 61.3097 84.729 65.9022Z" fill="white"/>
<path d="M37.7377 55.789C42.6547 57.2584 47.7688 57.961 52.8999 57.8721C57.76 57.7866 62.5815 56.9918 67.2119 55.5128L68.91 51.4691L63.7388 49.2528C62.4283 48.6911 61.3113 47.7571 60.5264 46.5667C59.7415 45.3763 59.3232 43.9818 59.3232 42.5559V41.2799H45.6263V42.6253C45.6264 44.0448 45.2118 45.4333 44.4335 46.6203C43.6552 47.8074 42.5472 48.7412 41.2454 49.3071L37.0574 51.1281L37.7377 55.789Z" fill="#FFCEBF"/>
<path d="M77.824 55.2897L67.214 50.742L67.2122 50.7422V86.6917H84.7293V65.9021C84.7293 61.3103 82.0222 57.1499 77.824 55.2897Z" fill="#8795DE"/>
<path d="M37.7385 50.8322V86.6921H20.2211V66.0586C20.2211 61.3871 23.0207 57.171 27.3246 55.3594L37.7385 50.8322Z" fill="#8795DE"/>
<path d="M57.2227 48.7976C58.7488 48.7992 60.2601 48.4976 61.6687 47.9102C60.9293 47.2281 60.3391 46.4001 59.9355 45.4786C59.5318 44.5571 59.3234 43.562 59.3233 42.556V41.28H45.6265V42.6254C45.6265 43.6523 45.4091 44.6675 44.9886 45.6043C47.0627 47.5814 49.8685 48.7976 52.96 48.7976H57.2227Z" fill="#FFB09E"/>
<path d="M66.1643 20.6756V32.0064C66.1643 38.3897 60.9896 43.5645 54.6062 43.5645H50.3436C43.9603 43.5645 38.7855 38.3897 38.7855 32.0064V20.6756C38.7855 16.5229 42.1519 13.1564 46.3045 13.1564H58.6451C62.7978 13.1564 66.1643 16.5229 66.1643 20.6756Z" fill="#FFCEBF"/>
<path d="M66.1642 26.5708C66.1591 26.5864 66.1529 26.6015 66.1481 26.6175C65.7303 28.0604 64.6339 30.786 61.9839 32.8294C60.7499 33.7809 59.3425 34.4686 57.8007 34.8732C57.4696 34.9653 57.1881 35.184 57.017 35.4819C56.8458 35.7799 56.7988 36.1332 56.886 36.4656C56.9732 36.798 57.1876 37.0827 57.483 37.2582C57.7784 37.4338 58.131 37.4861 58.4646 37.4039C60.3472 36.9099 62.0686 36.0679 63.5817 34.9014C64.5494 34.1541 65.4151 33.2831 66.1565 32.3109C66.1593 32.2095 66.1642 32.1086 66.1642 32.0065V26.5708Z" fill="#7A6D79"/>
<path d="M56.3659 38.4897H53.3002C51.9047 38.4897 50.7734 37.3585 50.7734 35.963C50.7734 34.5677 51.9047 33.4365 53.3002 33.4365H56.3659C57.7613 33.4365 58.8926 34.5677 58.8926 35.963C58.8926 37.3585 57.7613 38.4897 56.3659 38.4897Z" fill="#685E68"/>
<path d="M55.2063 10.1576C55.4998 6.45541 59.0442 3.99846 62.4364 2.7259C68.0481 6.08846 71.8049 12.228 71.8049 19.2458V20.5689C71.4986 20.6339 71.1904 20.6897 70.8807 20.7365C69.0119 21.0156 67.4204 20.8949 66.3333 20.7365C59.3273 19.8032 54.8517 14.6289 55.2063 10.1576Z" fill="#B98080"/>
<path d="M52.5592 0.000185013C56.9056 0.000185013 60.915 1.44152 64.1367 3.87166C62.5296 6.66823 58.8391 12.1974 51.9188 16.2908C46.7816 19.3297 41.9375 20.3508 38.9543 20.7363H33.3137V19.2457C33.3137 8.6166 41.9301 0.000185013 52.5592 0.000185013Z" fill="#C59191"/>
<path d="M74.0731 86.6919H32.195L29.8852 64.9023C29.7214 63.3568 30.933 62.01 32.4871 62.01H73.7811C75.3352 62.01 76.5469 63.3568 76.3828 64.9023L74.0731 86.6919Z" fill="#EFEDEF"/>
<path d="M73.7809 62.01H68.548C70.1022 62.01 71.3138 63.3568 71.1498 64.9023L68.84 86.6919H74.0729L76.3827 64.9023C76.5465 63.3568 75.335 62.01 73.7809 62.01Z" fill="#E5E1E5"/>
<path d="M86.7107 88H1.28906C0.947179 88 0.6193 87.8642 0.377554 87.6224C0.135809 87.3807 0 87.0528 0 86.7109C0 86.3691 0.135809 86.0412 0.377554 85.7994C0.6193 85.5577 0.947179 85.4219 1.28906 85.4219H86.7107C87.0526 85.4219 87.3804 85.5577 87.6222 85.7994C87.8639 86.0412 87.9997 86.3691 87.9997 86.7109C87.9997 87.0528 87.8639 87.3807 87.6222 87.6224C87.3804 87.8642 87.0526 88 86.7107 88Z" fill="#C9BFC8"/>
<path d="M56.7969 74.3509C56.7969 76.3741 55.1569 78.0139 53.1339 78.0139C51.111 78.0139 49.4709 76.3741 49.4709 74.3509C49.4709 72.3278 51.111 70.6879 53.1339 70.6879C55.1569 70.6879 56.7969 72.3278 56.7969 74.3509Z" fill="#C9BFC8"/>
<path d="M10.5918 13.8625C10.5918 14.0343 10.558 14.2044 10.4923 14.3631C10.4266 14.5219 10.3302 14.6661 10.2087 14.7876C10.0873 14.909 9.94304 15.0054 9.78432 15.0711C9.62559 15.1369 9.45548 15.1707 9.28369 15.1707C9.11189 15.1707 8.94177 15.1368 8.78305 15.0711C8.62433 15.0053 8.48011 14.909 8.35863 14.7875C8.23715 14.666 8.14079 14.5218 8.07505 14.3631C8.0093 14.2043 7.97546 14.0342 7.97546 13.8624C7.97546 13.6906 8.0093 13.5205 8.07505 13.3618C8.14079 13.2031 8.23715 13.0589 8.35863 12.9374C8.48011 12.8159 8.62433 12.7195 8.78305 12.6538C8.94177 12.588 9.11189 12.5542 9.28369 12.5542C9.45549 12.5542 9.62561 12.5881 9.78433 12.6538C9.94305 12.7196 10.0873 12.8159 10.2087 12.9374C10.3302 13.0589 10.4266 13.2031 10.4923 13.3619C10.558 13.5206 10.5918 13.6907 10.5918 13.8625Z" fill="white"/>
<path d="M15.8246 13.8625C15.8246 14.0343 15.7908 14.2044 15.7251 14.3631C15.6593 14.5219 15.563 14.6661 15.4415 14.7876C15.32 14.909 15.1758 15.0054 15.0171 15.0711C14.8584 15.1369 14.6883 15.1707 14.5165 15.1707C14.3447 15.1707 14.1746 15.1368 14.0158 15.0711C13.8571 15.0053 13.7129 14.909 13.5914 14.7875C13.4699 14.666 13.3736 14.5218 13.3078 14.3631C13.2421 14.2043 13.2083 14.0342 13.2083 13.8624C13.2083 13.6906 13.2421 13.5205 13.3078 13.3618C13.3736 13.2031 13.4699 13.0589 13.5914 12.9374C13.7129 12.8159 13.8571 12.7195 14.0158 12.6538C14.1746 12.588 14.3447 12.5542 14.5165 12.5542C14.8634 12.5543 15.1962 12.6921 15.4415 12.9375C15.6868 13.1828 15.8246 13.5156 15.8246 13.8625Z" fill="white"/>
<path d="M21.0578 13.8625C21.0578 14.0343 21.0239 14.2044 20.9582 14.3632C20.8924 14.5219 20.7961 14.6661 20.6746 14.7876C20.5531 14.909 20.4089 15.0054 20.2501 15.0711C20.0914 15.1369 19.9213 15.1707 19.7495 15.1707C19.4907 15.1707 19.2378 15.0939 19.0226 14.9502C18.8074 14.8064 18.6398 14.602 18.5407 14.363C18.4417 14.1239 18.4158 13.8608 18.4663 13.607C18.5168 13.3533 18.6414 13.1201 18.8244 12.9372C19.0074 12.7542 19.2405 12.6296 19.4943 12.5792C19.7481 12.5287 20.0112 12.5546 20.2503 12.6537C20.4893 12.7527 20.6936 12.9204 20.8374 13.1356C20.9811 13.3508 21.0578 13.6038 21.0578 13.8625Z" fill="white"/>
</g>
</g>
<defs>
<clipPath id="clip0_328_156">
<rect width="88" height="88" fill="white"/>
</clipPath>
</defs>
</svg>
