<svg width="88" height="88" viewBox="0 0 88 88" fill="none" xmlns="http://www.w3.org/2000/svg">
<path d="M17.6 55.7334V22H20.4174C21.7814 22 22.5001 20.3574 21.5908 19.3014L12.9198 9.39549C12.2232 8.59469 11.242 8.60936 10.5438 9.39549L1.87291 19.3014C0.963572 20.3574 1.68224 22 3.04624 22H5.86371V55.7334C5.86371 56.1187 5.93963 56.5003 6.08713 56.8562C6.23464 57.2122 6.45084 57.5356 6.72338 57.8081C6.99592 58.0805 7.31946 58.2965 7.67552 58.4438C8.03157 58.5912 8.41317 58.6669 8.79851 58.6667H14.6681C15.4461 58.6667 16.1922 58.3576 16.7423 57.8075C17.2924 57.2574 17.6014 56.5113 17.6014 55.7334H17.6ZM70.4 55.7334V22H67.5825C66.2185 22 65.4998 20.3574 66.4092 19.3014L75.0801 9.39549C75.7768 8.59469 76.758 8.60936 77.4561 9.39549L86.127 19.3014C87.0364 20.3574 86.3177 22 84.9537 22H82.1362V55.7334C82.1362 56.1187 82.0603 56.5003 81.9128 56.8562C81.7653 57.2122 81.5491 57.5356 81.2766 57.8081C81.004 58.0805 80.6805 58.2965 80.3244 58.4438C79.9684 58.5912 79.5868 58.6669 79.2014 58.6667H73.3318C72.5539 58.6667 71.8078 58.3576 71.2577 57.8075C70.7076 57.2574 70.4 56.5113 70.4 55.7334ZM38.1333 27.8667V14.6652H35.3173C33.9533 14.6652 33.2346 13.0226 34.144 11.9666L42.812 2.06509C43.5013 1.25842 44.484 1.27309 45.188 2.06509L53.856 11.9666C54.7653 13.0226 54.0466 14.6652 52.6826 14.6652H49.8666V27.8667H38.1333Z" fill="#24BC8D"/>
<path d="M44 86.5334C61.0103 86.5334 74.8 72.7437 74.8 55.7334C74.8 38.723 61.0103 24.9333 44 24.9333C26.9896 24.9333 13.2 38.723 13.2 55.7334C13.2 72.7437 26.9896 86.5334 44 86.5334Z" fill="#DFE5EA"/>
<path d="M34.672 46.4053C33.4441 47.6285 32.4699 49.0823 31.8054 50.6831C31.141 52.2838 30.7993 54.0001 30.8 55.7333C30.8 56.54 30.14 57.2 29.3333 57.2H20.5333C19.7267 57.2 19.0667 56.54 19.0667 55.7333C19.0667 48.8693 21.868 42.6213 26.3853 38.1187L27.8667 38.1333L35.2 45.4667L34.672 46.4053Z" fill="#FF5B45"/>
<path d="M43.9999 30.8001L45.4666 32.2667V41.0667L43.9999 42.5334C40.3626 42.5334 37.0626 44.0147 34.6719 46.4054L26.3853 38.1187C28.694 35.7979 31.4388 33.9565 34.4618 32.7005C37.4848 31.4445 40.7264 30.7986 43.9999 30.8001Z" fill="#FF8243"/>
<path d="M44 30.8001V42.5334C47.6373 42.5334 50.9373 44.0147 53.328 46.4054L55.7333 45.4667L61.6 39.6001L61.6147 38.1187C59.306 35.7979 56.5611 33.9565 53.5381 32.7005C50.5151 31.4445 47.2736 30.7986 44 30.8001Z" fill="#F2CA25"/>
<path d="M49.8666 68.9333H38.1333C37.3233 68.9333 36.6666 69.59 36.6666 70.4V74.8C36.6666 75.61 37.3233 76.2667 38.1333 76.2667H49.8666C50.6766 76.2667 51.3333 75.61 51.3333 74.8V70.4C51.3333 69.59 50.6766 68.9333 49.8666 68.9333Z" fill="white"/>
<path d="M53.328 46.4053C54.5559 47.6285 55.5301 49.0823 56.1946 50.6831C56.859 52.2838 57.2007 54.0001 57.2 55.7333C57.2 56.54 57.86 57.2 58.6667 57.2H67.4667C68.2733 57.2 68.9333 56.54 68.9333 55.7333C68.9333 48.8693 66.132 42.6213 61.6147 38.1187L53.328 46.4053Z" fill="#2C39E5"/>
<path d="M43.912 51.3334C50.8493 44.9974 57.5227 40.2454 58.5053 41.228C59.488 42.2107 54.736 48.884 48.4 55.8214L43.912 51.3334Z" fill="#272E68"/>
<path d="M44 60.1334C46.43 60.1334 48.4 58.1634 48.4 55.7334C48.4 53.3033 46.43 51.3334 44 51.3334C41.5699 51.3334 39.6 53.3033 39.6 55.7334C39.6 58.1634 41.5699 60.1334 44 60.1334Z" fill="#13193A"/>
</svg>
