<svg width="88" height="88" viewBox="0 0 88 88" fill="none" xmlns="http://www.w3.org/2000/svg">
<g clip-path="url(#clip0_328_153)">
<path d="M49.651 13.8017C50.5913 13.8017 51.3538 13.0393 51.3538 12.0989V1.0612C51.3538 0.120857 50.5913 -0.641602 49.651 -0.641602C48.7106 -0.641602 47.9482 0.120857 47.9482 1.0612V12.0989C47.9482 13.0393 48.7106 13.8017 49.651 13.8017ZM31.176 19.117C31.5129 19.5186 31.995 19.7254 32.4815 19.7254C32.8675 19.7254 33.2565 19.5947 33.5752 19.3269C34.2956 18.7222 34.3899 17.648 33.7852 16.9276L26.6898 8.47208C26.0851 7.75173 25.0109 7.65745 24.2906 8.26213C23.5702 8.86682 23.4759 9.94105 24.0806 10.6614L31.176 19.117ZM11.9687 33.3573L22.8386 35.2738C22.9385 35.2914 23.0378 35.2996 23.1365 35.2996C23.9474 35.2996 24.6658 34.7181 24.8117 33.8922C24.9751 32.9657 24.3566 32.0825 23.4307 31.9197L12.5608 30.0032C11.6343 29.8404 10.7511 30.4583 10.5883 31.3842C10.4243 32.3107 11.0421 33.1939 11.9687 33.3573ZM59.4624 63.168C59.1405 62.2842 58.1637 61.8285 57.28 62.1503C56.3962 62.4722 55.9405 63.449 56.2623 64.3327L60.0375 74.7048C60.2889 75.3962 60.942 75.8256 61.6379 75.8256C61.8308 75.8256 62.0276 75.7922 62.2199 75.7225C63.1037 75.4006 63.5594 74.4238 63.2376 73.5401L59.4624 63.168ZM82.3814 56.3561L72.8227 50.8373C72.008 50.3671 70.9665 50.6462 70.4963 51.4608C70.0262 52.2754 70.3053 53.317 71.1199 53.7872L80.6786 59.306C80.947 59.4607 81.2393 59.5342 81.5284 59.5342C82.1168 59.5342 82.6894 59.2287 83.0049 58.6825C83.4751 57.8679 83.196 56.8263 82.3814 56.3561ZM87.9738 32.2673C87.8104 31.3408 86.9279 30.7229 86.0013 30.8864L75.1314 32.8029C74.2056 32.9663 73.587 33.8495 73.7498 34.7753C73.8957 35.6013 74.6141 36.1827 75.425 36.1827C75.523 36.1827 75.6223 36.1739 75.7229 36.1563L86.5928 34.2398C87.5187 34.077 88.1372 33.1939 87.9738 32.2673ZM65.5174 19.9033C65.8235 20.161 66.211 20.3022 66.6111 20.3018C67.097 20.3018 67.5798 20.095 67.9167 19.6934L75.0114 11.2378C75.6154 10.5175 75.5218 9.44322 74.8014 8.83854C74.0811 8.23448 73.0069 8.32814 72.4022 9.04848L65.3075 17.504C64.7028 18.2244 64.7971 19.2986 65.5174 19.9033ZM19.9302 49.6996C19.6555 49.4255 19.2111 49.4255 18.937 49.6996L0 68.6372C0.363944 68.8258 0.720344 68.8811 1.15092 68.9471C1.9272 69.0671 2.89395 69.2161 3.93801 70.2608C4.98207 71.3049 5.13104 72.2716 5.25173 73.0479C5.35796 73.7387 5.43527 74.2378 6.08333 74.8865C6.73202 75.5352 7.23047 75.6125 7.9219 75.7187C8.69819 75.8388 9.66494 75.9877 10.709 77.0324C11.7531 78.0765 11.902 79.0432 12.0221 79.8195C12.1289 80.5097 12.2063 81.0094 12.8543 81.6581C13.503 82.3068 14.0021 82.3835 14.6935 82.4903C15.4698 82.6097 16.4372 82.7594 17.4806 83.8034C18.5247 84.8475 18.6736 85.8142 18.7937 86.5905C18.8603 87.0211 18.915 87.3775 19.1036 87.7414L38.0412 68.8044C38.3153 68.5303 38.3153 68.0853 38.0412 67.8113L19.9302 49.6996ZM39.641 49.7932L57.7747 31.6589C58.2417 31.1918 58.2417 30.4338 57.7747 29.9655C57.3064 29.4978 56.5489 29.4978 56.0813 29.9655L37.9476 48.0998L39.641 49.7932ZM67.813 44.8137C65.2987 43.0442 62.3098 42.4138 58.9281 42.9392C56.3264 43.3428 53.4928 44.4365 50.5033 46.1877C46.6294 48.4588 43.5343 51.215 42.264 52.4162L43.9592 54.1115C46.7564 51.4916 58.5623 41.2308 66.4345 46.7717C66.9757 47.1526 67.7231 47.0225 68.1034 46.4813C68.4837 45.9407 68.3535 45.1939 67.813 44.8137ZM31.1169 43.6879C30.8428 43.4138 30.3978 43.4138 30.1237 43.6879L23.2308 50.5814L37.1587 64.51L44.0523 57.6171C44.3263 57.343 44.3263 56.898 44.0523 56.6239L31.1169 43.6879ZM33.6287 43.7809L35.3245 45.4768C36.5257 44.2065 39.2827 41.1114 41.5531 37.2375C43.3049 34.2486 44.398 31.4144 44.8015 28.8127C45.327 25.431 44.6966 22.4415 42.9271 19.9278C42.5468 19.3872 41.7995 19.2571 41.2589 19.6374C40.7177 20.0177 40.5876 20.7651 40.9691 21.3063C44.6827 26.5825 41.2853 33.6389 37.8571 38.5556C36.1775 40.9649 34.4898 42.8607 33.6287 43.7809Z" fill="url(#paint0_linear_328_153)"/>
</g>
<defs>
<linearGradient id="paint0_linear_328_153" x1="44" y1="-0.641602" x2="44" y2="87.7414" gradientUnits="userSpaceOnUse">
<stop stop-color="#F2CA25"/>
<stop offset="1" stop-color="#FF8243"/>
</linearGradient>
<clipPath id="clip0_328_153">
<rect width="88" height="88" fill="white"/>
</clipPath>
</defs>
</svg>
