<svg width="88" height="88" viewBox="0 0 88 88" fill="none" xmlns="http://www.w3.org/2000/svg">
<g clip-path="url(#clip0_313_25)">
<path d="M0 56.3475C0 62.1799 1.12509 67.8482 3.34417 73.1951L4.33245 75.5762L21.8041 68.3257L20.8139 65.9437C19.482 62.7394 18.842 59.34 18.9114 55.8398C18.9977 51.4917 20.2053 47.306 22.385 43.6262L15.5767 36.889L6.06667 34.0223C2.11166 40.7164 0 48.3705 0 56.3475Z" fill="#7BC5B0"/>
<path d="M75.0791 25.1445C66.7905 16.8893 55.7585 12.3475 44.0021 12.3475H44L42.2812 21.2369L44 31.255C50.5606 31.2543 56.7414 33.758 61.474 38.3557C63.1101 39.9452 64.4999 41.7144 65.6281 43.6188L76.5973 39.8934L81.96 34.007C80.0762 30.8076 77.7748 27.8293 75.0791 25.1445Z" fill="#FF7A63"/>
<path d="M43.8825 12.3477C32.1543 12.3783 21.1328 16.9687 12.8486 25.2734C10.1966 27.932 7.92816 30.8712 6.06641 34.0223L22.3847 43.6262C23.4466 41.8348 24.7251 40.181 26.1914 38.7023C30.7587 34.0921 36.82 31.4508 43.2588 31.2646C43.5058 31.2578 43.7528 31.2546 43.9999 31.255V12.3475L43.8825 12.3477Z" fill="#FDD278"/>
<path d="M81.9598 34.0068L65.6279 43.6186C67.8881 47.4337 69.0938 51.7926 69.0938 56.3475C69.0938 59.6743 68.4503 62.9069 67.1813 65.9556L66.1937 68.3282L83.631 75.6525L84.626 73.267C86.8732 67.8791 88.0085 62.1651 88 56.2837C87.9887 48.3103 85.8865 40.6759 81.9598 34.0068Z" fill="#FF6058"/>
<path d="M44 37.5012L42.2812 55.9035L44 75.1936C54.3917 75.1936 62.8461 66.7394 62.8461 56.3475C62.8461 45.9556 54.3917 37.5012 44 37.5012Z" fill="#B9B9BE"/>
<path d="M25.1538 56.3475C25.1538 66.7394 33.6082 75.1936 43.9999 75.1936V37.5012C33.608 37.5012 25.1538 45.9556 25.1538 56.3475Z" fill="#D3D3D8"/>
<path d="M46.0084 48.1443C45.3516 47.977 44.6776 47.8872 44 47.8768L42.2812 55.5999L44 64.818C44.6624 64.8077 45.3353 64.7218 46.0084 64.5506L78.2557 56.3473L46.0084 48.1443Z" fill="#474F54"/>
<path d="M35.2909 56.3476C35.2909 61.1867 39.4786 64.8886 44 64.8183V47.8771C39.4788 47.8066 35.2909 51.5932 35.2909 56.3476Z" fill="#5A5F64"/>
</g>
<defs>
<clipPath id="clip0_313_25">
<rect width="88" height="88" fill="white"/>
</clipPath>
</defs>
</svg>
