<svg width="88" height="88" viewBox="0 0 88 88" fill="none" xmlns="http://www.w3.org/2000/svg">
<path d="M86.5846 47.2037C86.7206 50.4527 85.5623 53.6229 83.3638 56.0189C81.1653 58.4149 78.1062 59.841 74.8576 59.9843C74.6676 59.9932 74.478 59.9976 74.2887 59.9976C73.4255 59.997 72.5649 59.9036 71.7217 59.719C69.2198 63.5818 65.9393 66.8799 62.0899 69.4024C58.2404 71.9248 53.9069 73.616 49.3664 74.3679C48.8294 75.9456 47.758 77.2861 46.3375 78.1576C44.9169 79.0292 43.2365 79.377 41.5867 79.141C39.9369 78.905 38.4214 78.1 37.3021 76.8652C36.1829 75.6303 35.5303 74.0432 35.4571 72.3782C35.3839 70.7132 35.8947 69.075 36.9013 67.7467C37.9078 66.4184 39.3469 65.4835 40.9696 65.1036C42.5923 64.7238 44.2968 64.9228 45.7883 65.6664C47.2799 66.4099 48.4648 67.6512 49.1382 69.1757C55.5305 67.9935 61.3053 64.6056 65.4561 59.6026C69.6069 54.5995 71.8705 48.2986 71.8523 41.7979C71.8523 26.44 59.3579 13.9456 44 13.9456C28.6421 13.9456 16.1476 26.44 16.1476 41.7979C16.1468 46.5468 17.3605 51.217 19.6733 55.3647C19.7517 55.5016 19.8105 55.6487 19.8481 55.8019C20.0715 56.4229 20.0476 57.1059 19.7814 57.7097C19.5152 58.3135 19.027 58.7918 18.4179 59.0457C16.9265 59.6734 15.3246 59.9966 13.7065 59.9964C13.5161 59.9964 13.3252 59.992 13.134 59.9831C9.88673 59.838 6.82954 58.411 4.63279 56.0152C2.43603 53.6193 1.27899 50.4502 1.41538 47.2025C1.47021 45.9074 1.43961 44.7519 1.40971 43.6346C1.38186 42.5825 1.35282 41.4945 1.4006 40.3593C1.5432 37.1883 2.90724 34.1955 5.20704 32.0077C7.50683 29.8198 10.564 28.6068 13.7381 28.6225C18.8353 16.9604 30.4803 8.78931 44 8.78931C57.5197 8.78931 69.1649 16.9604 74.262 28.6227C77.4365 28.6046 80.4946 29.8166 82.7948 32.0045C85.095 34.1923 86.4585 37.186 86.5992 40.3574C86.6472 41.4944 86.6183 42.5822 86.5901 43.6342C86.5605 44.7517 86.5298 45.9078 86.5846 47.2037ZM65.6227 41.7979C65.6215 45.1105 64.8594 48.3786 63.3953 51.3501C61.9312 54.3216 59.8042 56.9172 57.1783 58.9366C54.5524 60.9561 51.4977 62.3454 48.2499 62.9975C45.0021 63.6497 41.6479 63.5472 38.446 62.6979L29.694 67.7522C29.2524 68.0073 28.7451 68.1256 28.2362 68.0923C27.7274 68.0589 27.2398 67.8755 26.8352 67.565C26.4307 67.2546 26.1272 66.8312 25.9633 66.3483C25.7994 65.8654 25.7824 65.3447 25.9144 64.8522L28.1512 56.508C24.447 52.5041 22.3859 47.2525 22.3781 41.7979C22.3781 29.8718 32.0772 20.1702 44 20.1702C55.9228 20.1702 65.6227 29.8718 65.6227 41.7979ZM37.9887 41.7979C37.9887 41.1141 37.717 40.4584 37.2335 39.9749C36.7501 39.4914 36.0943 39.2198 35.4105 39.2198H35.4062C34.8965 39.2207 34.3986 39.3727 33.9752 39.6566C33.5519 39.9405 33.2222 40.3435 33.0278 40.8146C32.8334 41.2858 32.783 41.804 32.8831 42.3038C32.9831 42.8036 33.229 43.2625 33.5897 43.6226C33.9505 43.9827 34.4099 44.2277 34.9099 44.3268C35.4098 44.4259 35.928 44.3746 36.3988 44.1793C36.8696 43.984 37.2719 43.6536 37.555 43.2297C37.8381 42.8059 37.9892 42.3076 37.9892 41.7979H37.9887ZM46.5786 41.7979C46.5784 41.7135 46.5738 41.6292 46.5649 41.5452C46.5568 41.461 46.5442 41.3772 46.5272 41.2943C46.5118 41.2117 46.4911 41.1302 46.4652 41.0502C46.4413 40.9695 46.4121 40.8904 46.3811 40.8113C46.3502 40.7323 46.3124 40.6584 46.2729 40.5845C46.2336 40.5101 46.1906 40.4379 46.144 40.3679C46.097 40.2972 46.0464 40.2289 45.9925 40.1634C45.9396 40.0977 45.8828 40.0351 45.8226 39.976C45.7641 39.9159 45.7005 39.8591 45.6352 39.8041C45.5697 39.7526 45.501 39.701 45.4305 39.6546C45.3606 39.608 45.2884 39.565 45.2141 39.5257C45.14 39.4862 45.0629 39.4501 44.9854 39.4174C44.908 39.385 44.8288 39.3569 44.7483 39.3332C44.5876 39.2816 44.4215 39.2481 44.2533 39.2335C44.0008 39.2092 43.7461 39.2214 43.4971 39.2696C43.4142 39.2865 43.3322 39.3078 43.2515 39.3332C43.1709 39.3569 43.0917 39.385 43.0143 39.4174C42.9369 39.4501 42.8596 39.4862 42.7857 39.5257C42.7118 39.5652 42.6396 39.6082 42.569 39.6546C42.4279 39.7483 42.2966 39.8559 42.1773 39.976C42.1169 40.0352 42.0601 40.0977 42.0069 40.1634C41.9537 40.229 41.9039 40.2972 41.8576 40.3679C41.8103 40.4378 41.7667 40.5101 41.7269 40.5845C41.6873 40.6581 41.6517 40.7338 41.6202 40.8113C41.5876 40.8895 41.5589 40.9692 41.5343 41.0502C41.5104 41.1293 41.4898 41.2118 41.4726 41.2943C41.4556 41.3772 41.4429 41.461 41.4346 41.5452C41.4262 41.6295 41.4226 41.7137 41.4226 41.7979C41.4226 41.8821 41.4262 41.9681 41.4346 42.0523C41.443 42.1359 41.4557 42.2191 41.4726 42.3015C41.4898 42.384 41.5104 42.4665 41.5343 42.5473C41.5589 42.6277 41.5876 42.7069 41.6202 42.7845C41.6516 42.8625 41.6873 42.9388 41.7269 43.0131C41.7663 43.087 41.8112 43.1592 41.8576 43.2296C41.9039 43.2997 41.9537 43.3674 42.0069 43.4324C42.0605 43.4983 42.1173 43.5614 42.1773 43.6215C42.2374 43.6799 42.2993 43.7384 42.3663 43.7916C42.431 43.8453 42.4986 43.8952 42.569 43.9412C42.6396 43.9876 42.7116 44.0323 42.7857 44.0718C42.935 44.1496 43.0908 44.214 43.2515 44.2643C43.3321 44.2884 43.4146 44.309 43.4971 44.3262C43.6628 44.3601 43.8315 44.3768 44.0007 44.376C44.6836 44.3742 45.3383 44.1031 45.8226 43.6215C45.9414 43.5009 46.0489 43.3697 46.144 43.2296C46.1904 43.1592 46.2333 43.087 46.2729 43.0131C46.3124 42.9391 46.3485 42.8618 46.3811 42.7845C46.4138 42.7071 46.4413 42.6263 46.4652 42.5473C46.4909 42.4667 46.5116 42.3846 46.5272 42.3015C46.5441 42.2191 46.5566 42.1359 46.5649 42.0523C46.5737 41.9677 46.5781 41.8826 46.5781 41.7976L46.5786 41.7979ZM55.1724 41.7979C55.1724 41.1141 54.9008 40.4584 54.4173 39.9749C53.9338 39.4914 53.278 39.2198 52.5943 39.2198H52.5893C52.0796 39.2208 51.5816 39.3728 51.1583 39.6567C50.735 39.9406 50.4053 40.3436 50.211 40.8147C50.0166 41.2859 49.9662 41.8041 50.0663 42.3039C50.1663 42.8037 50.4123 43.2626 50.773 43.6227C51.1338 43.9827 51.5931 44.2278 52.0931 44.3268C52.5931 44.4259 53.1112 44.3746 53.582 44.1793C54.0528 43.984 54.4552 43.6536 54.7382 43.2297C55.0213 42.8058 55.1724 42.3076 55.1724 41.7979Z" fill="url(#paint0_linear_328_144)"/>
<defs>
<linearGradient id="paint0_linear_328_144" x1="18.4539" y1="18.7553" x2="69.5482" y2="69.8498" gradientUnits="userSpaceOnUse">
<stop stop-color="#FF9B8C"/>
<stop offset="1" stop-color="#FD4D86"/>
</linearGradient>
</defs>
</svg>
