<svg width="72" height="72" viewBox="0 0 72 72" fill="none" xmlns="http://www.w3.org/2000/svg">
<g clip-path="url(#clip0_372_309)">
<path d="M42.75 9H8.25C3.69 9 0 12.69 0 17.25V54.75C0 59.31 3.69 63 8.25 63H30.39L31.05 59.31C31.353 57.63 32.13 56.13 33.333 54.9L37.233 51H11.25C10.02 51 9 49.98 9 48.75C9 47.52 10.02 46.5 11.25 46.5H39.75C40.29 46.5 40.8 46.71 41.19 47.04L51 37.26V17.25C51 12.69 47.31 9 42.75 9ZM39.75 41.25H11.25C10.02 41.25 9 40.23 9 39C9 37.77 10.02 36.75 11.25 36.75H39.75C40.98 36.75 42 37.77 42 39C42 40.23 40.98 41.25 39.75 41.25ZM39.75 31.5H11.25C10.02 31.5 9 30.48 9 29.25C9 28.02 10.02 27 11.25 27H39.75C40.98 27 42 28.02 42 29.25C42 30.48 40.98 31.5 39.75 31.5Z" fill="#2196F3"/>
<path d="M36.75 6H33.45C32.46 2.55 29.28 0 25.5 0C21.72 0 18.54 2.55 17.55 6H14.25C13.02 6 12 7.02 12 8.25V14.25C12 17.13 14.37 19.5 17.25 19.5H33.75C36.63 19.5 39 17.13 39 14.25V8.25C39 7.02 37.98 6 36.75 6Z" fill="#1976D2"/>
<path d="M42 29.25C42 30.48 40.98 31.5 39.75 31.5H11.25C10.02 31.5 9 30.48 9 29.25C9 28.02 10.02 27 11.25 27H39.75C40.98 27 42 28.02 42 29.25ZM42 39C42 40.23 40.98 41.25 39.75 41.25H11.25C10.02 41.25 9 40.23 9 39C9 37.77 10.02 36.75 11.25 36.75H39.75C40.98 36.75 42 37.77 42 39ZM41.19 47.04L37.23 51H11.25C10.02 51 9 49.98 9 48.75C9 47.52 10.02 46.5 11.25 46.5H39.75C40.29 46.5 40.8 46.71 41.19 47.04Z" fill="white"/>
<path d="M12 9H8.25C3.69 9 0 12.69 0 17.25V54.75C0 59.31 3.69 63 8.25 63H25.5V51H11.25C10.02 51 9 49.98 9 48.75C9 47.52 10.02 46.5 11.25 46.5H25.5V41.25H11.25C10.02 41.25 9 40.23 9 39C9 37.77 10.02 36.75 11.25 36.75H25.5V31.5H11.25C10.02 31.5 9 30.48 9 29.25C9 28.02 10.02 27 11.25 27H25.5V19.5H17.25C14.37 19.5 12 17.13 12 14.25V9Z" fill="#1D83D4"/>
<path d="M25.5 0C21.72 0 18.54 2.55 17.55 6H14.25C13.02 6 12 7.02 12 8.25V14.25C12 17.13 14.37 19.5 17.25 19.5H25.5V0Z" fill="#1667B7"/>
<path d="M25.5 27H11.25C10.02 27 9 28.02 9 29.25C9 30.48 10.02 31.5 11.25 31.5H25.5V27ZM25.5 36.75H11.25C10.02 36.75 9 37.77 9 39C9 40.23 10.02 41.25 11.25 41.25H25.5V36.75ZM25.5 46.5H11.25C10.02 46.5 9 47.52 9 48.75C9 49.98 10.02 51 11.25 51H25.5V46.5Z" fill="#DEDEDE"/>
<path d="M37.5811 72C37.2521 72.0008 36.927 71.9293 36.6287 71.7906C36.3304 71.6518 36.0663 71.4491 35.8551 71.197C35.6439 70.9448 35.4906 70.6493 35.4063 70.3313C35.322 70.0133 35.3086 69.6807 35.3671 69.357L36.9571 60.342C37.0369 59.8883 37.2548 59.4702 37.5811 59.145L59.8561 36.87C62.5921 34.131 65.2801 34.869 66.7501 36.339L70.4611 40.05C70.9486 40.5375 71.3354 41.1163 71.5993 41.7533C71.8631 42.3903 71.9989 43.073 71.9989 43.7625C71.9989 44.452 71.8631 45.1347 71.5993 45.7717C71.3354 46.4087 70.9486 46.9875 70.4611 47.475L48.1861 69.75C47.8603 70.0777 47.4411 70.2967 46.9861 70.377L37.9711 71.964L37.5811 72Z" fill="#FFC107"/>
<path d="M63.69 35.025C62.514 35.025 61.191 35.535 59.856 36.87L37.581 59.145C37.2547 59.4703 37.0368 59.8883 36.957 60.342L35.367 69.357C35.3033 69.7134 35.3269 70.0798 35.4355 70.4251C35.5442 70.7704 35.7347 71.0843 35.991 71.34L36.06 71.406L68.937 38.526L66.747 36.336C65.9417 35.5116 64.8424 35.0401 63.69 35.025Z" fill="#DEA806"/>
</g>
<defs>
<clipPath id="clip0_372_309">
<rect width="72" height="72" fill="white"/>
</clipPath>
</defs>
</svg>
