<svg width="72" height="72" viewBox="0 0 72 72" fill="none" xmlns="http://www.w3.org/2000/svg">
<g clip-path="url(#clip0_372_320)">
<path d="M24.6683 0.0488281C23.5026 0.0488281 22.5576 0.993841 22.5576 2.15949V69.8405C22.5576 71.0062 23.5026 71.9512 24.6683 71.9512H47.2788L48.6859 33.8194L47.2788 0.0488281H24.6683Z" fill="#E7F2FF"/>
<path d="M69.8893 0.0488281H47.2788V71.9512H69.8893C71.055 71.9512 72 71.0062 72 69.8405V2.15949C72 0.993841 71.055 0.0488281 69.8893 0.0488281Z" fill="#D0E8FF"/>
<path d="M35.2215 54.926C34.0559 54.926 33.1108 55.871 33.1108 57.0367C33.1108 58.2023 34.0559 59.1473 35.2215 59.1473H47.2789L48.686 57.0367L47.2789 54.926H35.2215Z" fill="#9DCFFF"/>
<path d="M59.336 54.926H47.2788V59.1473H59.336C60.5017 59.1473 61.4467 58.2023 61.4467 57.0367C61.4467 55.871 60.5018 54.926 59.336 54.926Z" fill="#75BCFF"/>
<path d="M35.2215 46.4834C34.0559 46.4834 33.1108 47.4284 33.1108 48.5941C33.1108 49.7597 34.0559 50.7047 35.2215 50.7047H47.2789L48.686 48.5941L47.2789 46.4834H35.2215Z" fill="#9DCFFF"/>
<path d="M59.336 46.4834H47.2788V50.7047H59.336C60.5017 50.7047 61.4467 49.7597 61.4467 48.5941C61.4467 47.4284 60.5018 46.4834 59.336 46.4834Z" fill="#75BCFF"/>
<path d="M35.2215 38.0408C34.0559 38.0408 33.1108 38.9858 33.1108 40.1514C33.1108 41.3171 34.0559 42.2621 35.2215 42.2621H47.2789L48.686 40.1514L47.2789 38.0408H35.2215Z" fill="#9DCFFF"/>
<path d="M59.336 38.0408H47.2788V42.2621H59.336C60.5017 42.2621 61.4467 41.3171 61.4467 40.1514C61.4467 38.9858 60.5018 38.0408 59.336 38.0408Z" fill="#75BCFF"/>
<path d="M35.2215 29.5981C34.0559 29.5981 33.1108 30.5432 33.1108 31.7088C33.1108 32.8745 34.0559 33.8195 35.2215 33.8195H47.2789L48.686 31.7088L47.2789 29.5981H35.2215Z" fill="#9DCFFF"/>
<path d="M59.336 29.5981H47.2788V33.8195H59.336C60.5017 33.8195 61.4467 32.8745 61.4467 31.7088C61.4467 30.5432 60.5018 29.5981 59.336 29.5981Z" fill="#75BCFF"/>
<path d="M35.2215 21.1554C34.0559 21.1554 33.1108 22.1004 33.1108 23.2661C33.1108 24.4317 34.0559 25.3767 35.2215 25.3767H47.2789L48.686 23.2661L47.2789 21.1554H35.2215Z" fill="#9DCFFF"/>
<path d="M59.336 21.1554H47.2788V25.3767H59.336C60.5017 25.3767 61.4467 24.4317 61.4467 23.2661C61.4467 22.1004 60.5018 21.1554 59.336 21.1554Z" fill="#75BCFF"/>
<path d="M35.2215 12.7128C34.0559 12.7128 33.1108 13.6578 33.1108 14.8234C33.1108 15.9891 34.0559 16.9341 35.2215 16.9341H47.2789L48.686 14.8234L47.2789 12.7128H35.2215Z" fill="#9DCFFF"/>
<path d="M59.336 12.7128H47.2788V16.9341H59.336C60.5017 16.9341 61.4467 15.9891 61.4467 14.8234C61.4467 13.6578 60.5018 12.7128 59.336 12.7128Z" fill="#75BCFF"/>
<path d="M13.2563 51.2355C12.7167 51.2355 12.1771 51.0298 11.7649 50.6183C10.9401 49.7948 10.9391 48.4584 11.7627 47.6334L17.7194 41.6679C18.543 40.8432 19.8791 40.8419 20.7043 41.6656C21.5291 42.4893 21.5301 43.8257 20.7065 44.6505L14.7498 50.6161C14.554 50.8127 14.3212 50.9687 14.0649 51.075C13.8086 51.1813 13.5338 51.2358 13.2563 51.2355Z" fill="#414C7F"/>
<path d="M32.4881 50.0626C27.0982 50.0626 22.0311 47.9636 18.2198 44.1523C10.3522 36.2848 10.3522 23.483 18.2198 15.6155C22.0311 11.8042 27.0983 9.7052 32.4881 9.7052C37.8782 9.7052 42.9453 11.8042 46.7565 15.6155C50.5678 19.4268 52.6667 24.494 52.6667 29.8838C52.6667 35.2735 50.5673 40.341 46.7565 44.1522C46.7563 44.1525 46.7567 44.1519 46.7565 44.1522C42.9455 47.9636 37.8782 50.0626 32.4881 50.0626Z" fill="#75BCFF"/>
<path d="M32.4882 45.8413C28.2259 45.8413 24.2186 44.1813 21.2047 41.1674C14.983 34.9456 14.983 24.8222 21.2047 18.6004C24.2187 15.5865 28.2259 13.9265 32.4882 13.9265C35.685 13.9265 38.7381 14.8601 41.3365 16.5985L42.3645 18.6002L45.761 21.0169C46.6313 22.3129 47.3043 23.7309 47.7581 25.2246L46.8326 27.3064L48.44 29.4597C48.4436 29.6008 48.4455 29.7421 48.4455 29.8838C48.4455 31.1802 48.2919 32.4529 47.9934 33.6813L45.9333 35.7417L46.4127 37.6917C45.7048 38.9498 44.82 40.1187 43.7715 41.1674C40.7577 44.1814 36.7506 45.8413 32.4882 45.8413Z" fill="#E7F2FF"/>
<path d="M47.9925 33.6812H31.5895C30.4239 33.6812 29.4789 34.6262 29.4789 35.7918C29.4789 36.9575 30.4239 37.9025 31.5895 37.9025H46.2907C47.0593 36.5852 47.6325 35.1632 47.9925 33.6812ZM47.7623 25.2385H31.5895C30.4239 25.2385 29.4789 26.1836 29.4789 27.3492C29.4789 28.5149 30.4239 29.4599 31.5895 29.4599H48.4397C48.4021 28.0104 48.1724 26.5934 47.7623 25.2385ZM43.7716 18.6004C43.1093 17.9377 42.3906 17.3339 41.6236 16.7959H31.5895C30.4239 16.7959 29.4789 17.7409 29.4789 18.9066C29.4789 20.0722 30.4239 21.0172 31.5895 21.0172H45.7607C45.1776 20.149 44.5114 19.3395 43.7716 18.6004Z" fill="#9DCFFF"/>
<path d="M6.34352 62.3752C4.64838 62.3752 3.05455 61.715 1.85583 60.5163H1.85569C-0.618564 58.0419 -0.618564 54.0158 1.85569 51.5411L8.76417 44.6327C9.58831 43.8085 10.9248 43.8085 11.7491 44.6327L17.7394 50.6231C18.5637 51.4472 18.5637 52.7837 17.7394 53.608L10.8311 60.5163C9.63249 61.7152 8.03866 62.3752 6.34352 62.3752Z" fill="#FEDC47"/>
</g>
<defs>
<clipPath id="clip0_372_320">
<rect width="72" height="72" fill="white"/>
</clipPath>
</defs>
</svg>
