<svg width="80" height="80" viewBox="0 0 80 80" fill="none" xmlns="http://www.w3.org/2000/svg">
<g clip-path="url(#clip0_381_1260)">
<path d="M40 80C62.0914 80 80 62.0914 80 40C80 17.9086 62.0914 0 40 0C17.9086 0 0 17.9086 0 40C0 62.0914 17.9086 80 40 80Z" fill="#7584F2"/>
<path d="M79.9753 41.4174L66.1077 27.5496L15.9897 30.9664L37.3028 52.2796L10.5608 56.223L33.8713 79.5335C35.8993 79.8447 37.9482 80.0007 40 80C61.617 80 79.2289 62.8524 79.9753 41.4174Z" fill="#4253CE"/>
<path d="M34.8859 56.223H10.5608V51.5355H31.8728L38.8055 36.3486L43.0697 38.2952L34.8859 56.223Z" fill="#DCE1EB"/>
<path d="M10.5608 56.2229H34.8859L36.3867 52.9348H10.5608V56.2229Z" fill="#BEC3D2"/>
<path d="M57.8373 30.4817L65.6892 33.3665L61.7165 44.1793L53.8645 41.2945L57.8373 30.4817Z" fill="#FFCE00"/>
<path d="M55.7558 36.0564L53.8341 41.2826L61.6824 44.1686L63.6141 38.9153L55.7558 36.0564Z" fill="#FDBA12"/>
<path d="M64.5329 31.9253L70.1205 33.9783L65.4893 46.5836L59.9016 44.5306L64.5329 31.9253Z" fill="white"/>
<path d="M59.8676 44.5184L65.4526 46.5721L67.719 40.4087L62.127 38.3741L59.8676 44.5184ZM20.7151 18.1543L59.5095 32.4079L54.797 45.2346L16.0023 30.9812L20.7151 18.1543Z" fill="#E9EDF5"/>
<path d="M19.0309 22.696L15.9895 30.9665L54.7656 45.2256L57.8564 36.8207L19.0309 22.696Z" fill="#CDD2E1"/>
<path d="M53.6021 38.4771L18.037 25.3986L23.0664 11.7219L66.1076 27.5494L53.6021 38.4771Z" fill="white"/>
<path d="M19.0309 22.696L18.037 25.3989L53.6021 38.4773L56.1912 36.215L19.0309 22.696Z" fill="#E9EDF5"/>
<path d="M23.8517 18.5732L41.9322 25.2162L40.0431 30.3578L21.9626 23.7148L23.8517 18.5732Z" fill="#BEC3D2"/>
<path d="M38.8787 54.4581C39.7245 50.8803 37.5097 47.2943 33.9319 46.4486C30.3541 45.6028 26.7681 47.8176 25.9224 51.3954C25.0766 54.9732 27.2914 58.5592 30.8692 59.4049C34.447 60.2507 38.033 58.0359 38.8787 54.4581Z" fill="white"/>
<path d="M25.7499 52.9348C25.7657 56.5976 28.7393 59.5623 32.4058 59.5623C36.0724 59.5623 39.046 56.5978 39.0618 52.9348H25.7499Z" fill="#E9EDF5"/>
</g>
<defs>
<clipPath id="clip0_381_1260">
<rect width="80" height="80" fill="white"/>
</clipPath>
</defs>
</svg>
