<svg width="80" height="80" viewBox="0 0 80 80" fill="none" xmlns="http://www.w3.org/2000/svg">
<g clip-path="url(#clip0_381_1134)">
<path d="M40 80C62.0914 80 80 62.0914 80 40C80 17.9086 62.0914 0 40 0C17.9086 0 0 17.9086 0 40C0 62.0914 17.9086 80 40 80Z" fill="#1DD1A1"/>
<path d="M39.9365 40.9324C41.0213 40.9324 41.9007 40.053 41.9007 38.9683C41.9007 37.8835 41.0213 37.0042 39.9365 37.0042C38.8518 37.0042 37.9724 37.8835 37.9724 38.9683C37.9724 40.053 38.8518 40.9324 39.9365 40.9324Z" fill="white"/>
<path fill-rule="evenodd" clip-rule="evenodd" d="M37.8566 36.0277C38.4254 35.46 39.1963 35.1412 40 35.1412C40.8037 35.1412 41.5746 35.46 42.1435 36.0277C42.4036 36.2789 42.752 36.418 43.1137 36.4148C43.4753 36.4117 43.8213 36.2666 44.077 36.0109C44.3327 35.7551 44.4778 35.4092 44.4809 35.0475C44.4841 34.6859 44.345 34.3375 44.0938 34.0773C43.0076 32.9925 41.5352 32.3831 40 32.3831C38.4648 32.3831 36.9924 32.9925 35.9062 34.0773C35.7745 34.2046 35.6694 34.3568 35.5971 34.5251C35.5248 34.6933 35.4868 34.8743 35.4852 35.0575C35.4836 35.2406 35.5185 35.4222 35.5878 35.5918C35.6572 35.7613 35.7596 35.9153 35.8891 36.0448C36.0186 36.1743 36.1726 36.2767 36.3421 36.3461C36.5116 36.4154 36.6933 36.4503 36.8764 36.4487C37.0596 36.4471 37.2406 36.4091 37.4088 36.3368C37.5771 36.2645 37.7293 36.1594 37.8566 36.0277Z" fill="white"/>
<path fill-rule="evenodd" clip-rule="evenodd" d="M34.7365 32.9075C36.133 31.5127 38.0261 30.7292 39.9999 30.7292C41.9737 30.7292 43.8668 31.5127 45.2633 32.9075C45.5235 33.1587 45.8719 33.2978 46.2336 33.2946C46.5952 33.2915 46.9412 33.1464 47.1969 32.8907C47.4526 32.6349 47.5977 32.289 47.6008 31.9273C47.604 31.5657 47.4649 31.2173 47.2137 30.9571C45.2998 29.0452 42.7052 27.9712 39.9999 27.9712C37.2946 27.9712 34.7 29.0452 32.7861 30.9571C32.5349 31.2173 32.3958 31.5657 32.399 31.9273C32.4021 32.289 32.5472 32.6349 32.8029 32.8907C33.0586 33.1464 33.4046 33.2915 33.7662 33.2946C34.1279 33.2978 34.4763 33.1587 34.7365 32.9075Z" fill="white"/>
<path fill-rule="evenodd" clip-rule="evenodd" d="M31.6193 29.7932C33.8433 27.5729 36.8574 26.3259 40 26.3259C43.1426 26.3259 46.1567 27.5729 48.3807 29.7932C48.5079 29.9249 48.6601 30.03 48.8284 30.1023C48.9967 30.1746 49.1777 30.2126 49.3608 30.2142C49.544 30.2158 49.7256 30.1809 49.8951 30.1116C50.0646 30.0422 50.2186 29.9398 50.3481 29.8103C50.4776 29.6808 50.5801 29.5268 50.6494 29.3573C50.7188 29.1878 50.7537 29.0061 50.7521 28.823C50.7505 28.6399 50.7124 28.4589 50.6401 28.2906C50.5679 28.1223 50.4628 27.9701 50.331 27.8429C47.5897 25.1054 43.8741 23.5679 40 23.5679C36.126 23.5679 32.4103 25.1054 29.669 27.8429C29.4177 28.103 29.2787 28.4514 29.2818 28.8131C29.285 29.1747 29.43 29.5207 29.6858 29.7764C29.9415 30.0321 30.2875 30.1772 30.6491 30.1803C31.0108 30.1835 31.3592 30.0445 31.6193 29.7932Z" fill="white"/>
<path fill-rule="evenodd" clip-rule="evenodd" d="M44.8275 49.3104V63.4484H35.1723V49.3104C35.1723 48.8532 35.354 48.4146 35.6773 48.0913C36.0006 47.768 36.4392 47.5863 36.8965 47.5863H43.1034C43.5606 47.5863 43.9992 47.768 44.3225 48.0913C44.6458 48.4146 44.8275 48.8532 44.8275 49.3104ZM47.5861 63.4484H55.5172C55.7432 63.4477 55.9668 63.4023 56.1751 63.3147C56.3835 63.2271 56.5724 63.0991 56.7309 62.938C57.0587 62.6059 57.2421 62.1578 57.2413 61.6911V40.9325C57.2409 39.7398 57.7108 38.595 58.5489 37.7463C58.9636 37.3253 59.4578 36.9909 60.0029 36.7626C60.548 36.5344 61.1331 36.4168 61.724 36.4167C61.9526 36.4145 62.1786 36.3673 62.3889 36.2778C62.5993 36.1884 62.79 36.0583 62.9501 35.8951C63.1102 35.732 63.2366 35.5388 63.322 35.3268C63.4075 35.1148 63.4504 34.888 63.4482 34.6594V31.8263C63.4493 31.5264 63.3739 31.2312 63.229 30.9686C63.0842 30.706 62.8748 30.4847 62.6206 30.3256L40.8965 16.8084C40.6275 16.6406 40.3169 16.5516 39.9999 16.5516C39.6829 16.5516 39.3723 16.6406 39.1034 16.8084L17.3792 30.3256C17.1252 30.4849 16.9159 30.7063 16.7711 30.9688C16.6263 31.2314 16.5508 31.5265 16.5516 31.8263V34.6594C16.5494 34.888 16.5923 35.1148 16.6778 35.3268C16.7632 35.5388 16.8896 35.732 17.0497 35.8951C17.2098 36.0583 17.4005 36.1884 17.6109 36.2778C17.8212 36.3673 18.0472 36.4145 18.2758 36.4167C18.8667 36.4168 19.4518 36.5344 19.9969 36.7626C20.542 36.9909 21.0362 37.3253 21.4509 37.7463C22.2891 38.595 22.7589 39.7398 22.7585 40.9325V61.6911C22.7577 62.1578 22.9411 62.6059 23.2689 62.938C23.4274 63.0991 23.6164 63.2271 23.8247 63.3147C24.033 63.4023 24.2567 63.4477 24.4827 63.4484H32.4137V49.3104C32.4137 48.1215 32.886 46.9813 33.7267 46.1407C34.5674 45.3 35.7076 44.8277 36.8965 44.8277H43.1034C44.2923 44.8277 45.4325 45.3 46.2731 46.1407C47.1138 46.9813 47.5861 48.1215 47.5861 49.3104V63.4484ZM18.2758 39.1725C18.5018 39.1732 18.7254 39.2186 18.9337 39.3062C19.1421 39.3938 19.331 39.5218 19.4896 39.6829C19.8173 40.015 20.0007 40.4631 19.9999 40.9298V61.6884C19.9996 62.8811 20.4694 64.0259 21.3075 64.8746C21.7222 65.2956 22.2165 65.63 22.7616 65.8583C23.3067 66.0865 23.8917 66.2041 24.4827 66.2042H55.5172C56.1081 66.2041 56.6932 66.0865 57.2383 65.8583C57.7834 65.63 58.2776 65.2956 58.6923 64.8746C59.5304 64.0259 60.0003 62.8811 59.9999 61.6884V40.9325C59.9991 40.4659 60.1825 40.0178 60.5103 39.6856C60.6688 39.5246 60.8577 39.3966 61.0661 39.309C61.2744 39.2214 61.498 39.1759 61.724 39.1753C62.3149 39.1731 62.8996 39.0546 63.4446 38.8265C63.9897 38.5983 64.4844 38.2651 64.9007 37.8458C65.317 37.4264 65.6466 36.9292 65.8707 36.3825C66.0948 35.8358 66.209 35.2503 66.2068 34.6594V31.8263C66.2073 31.058 66.0123 30.3021 65.6403 29.6299C65.2682 28.9577 64.7312 28.3911 64.0799 27.9836L42.3558 14.4663C41.649 14.0256 40.8328 13.792 39.9999 13.792C39.167 13.792 38.3508 14.0256 37.644 14.4663L15.9199 27.9836C15.2686 28.3911 14.7316 28.9577 14.3596 29.6299C13.9875 30.3021 13.7925 31.058 13.793 31.8263V34.6594C13.7893 35.8522 14.2595 36.9977 15.1001 37.844C15.9407 38.6903 17.083 39.1681 18.2758 39.1725Z" fill="white"/>
</g>
<defs>
<clipPath id="clip0_381_1134">
<rect width="80" height="80" fill="white"/>
</clipPath>
</defs>
</svg>
