<svg width="80" height="80" viewBox="0 0 80 80" fill="none" xmlns="http://www.w3.org/2000/svg">
<path d="M78.7867 40C78.7867 61.417 61.4249 78.7788 40.0085 78.7788H39.9903C18.5734 78.7788 1.21155 61.417 1.21155 40C1.21155 18.583 18.5734 1.22119 39.9903 1.22119H40.0085C61.4249 1.22119 78.7867 18.583 78.7867 40Z" fill="#FFEB33"/>
<path opacity="0.25" d="M69.7158 60.4514C69.7047 62.0635 69.6076 63.6739 69.4249 65.2756C63.0431 72.6877 53.9158 77.6635 43.6188 78.609H36.3758C16.6485 76.7908 1.21216 60.1968 1.21216 40.0029V39.9968C1.21216 33.609 2.75761 27.5847 5.49701 22.2696C12.0425 18.6574 19.6182 16.6877 27.6667 16.9241C51.0485 17.5968 69.8309 37.0574 69.7158 60.4514Z" fill="white"/>
<path opacity="0.25" d="M78.7885 39.9969V40.0029C78.7885 50.9787 74.2249 60.8878 66.8976 67.9423C54.4552 60.3302 46.1461 46.609 46.1461 30.9545C46.1461 20.9241 49.5522 11.6938 55.2795 4.34839C69.1037 10.2696 78.7885 24.0029 78.7885 39.9969Z" fill="white"/>
<path d="M43.3709 19.1799C43.2355 19.1805 43.1038 19.1357 42.9968 19.0527C42.8898 18.9696 42.8137 18.8531 42.7808 18.7217C42.7478 18.5903 42.7599 18.4517 42.815 18.328C42.8701 18.2043 42.9652 18.1026 43.0849 18.0393L52.1952 13.172C52.2655 13.132 52.3431 13.1066 52.4235 13.0971C52.5038 13.0876 52.5852 13.0943 52.6629 13.1168C52.7406 13.1392 52.813 13.177 52.8759 13.2279C52.9388 13.2788 52.9908 13.3418 53.0289 13.4131C53.0671 13.4844 53.0906 13.5627 53.098 13.6432C53.1055 13.7238 53.0967 13.805 53.0723 13.8821C53.0478 13.9592 53.0082 14.0306 52.9557 14.0922C52.9032 14.1537 52.839 14.2042 52.7667 14.2405L43.6564 19.109C43.5688 19.1558 43.4709 19.1804 43.3716 19.1805L43.3709 19.1799ZM37.1406 18.7835C37.0413 18.7834 36.9434 18.7589 36.8558 18.712L28.1134 14.0423C27.9739 13.9652 27.8704 13.8363 27.8252 13.6835C27.7801 13.5307 27.797 13.3662 27.8722 13.2257C27.9474 13.0853 28.0749 12.9801 28.2272 12.9329C28.3794 12.8857 28.544 12.9004 28.6855 12.9738L37.4267 17.6435C37.5456 17.7074 37.6399 17.8091 37.6944 17.9326C37.7489 18.0561 37.7607 18.1943 37.7277 18.3252C37.6948 18.4562 37.6191 18.5724 37.5126 18.6554C37.4062 18.7384 37.275 18.7835 37.14 18.7835H37.1406Z" fill="#474646"/>
<path d="M55.8388 13.0605C55.8388 14.2423 54.8752 15.2059 53.6933 15.2059C53.269 15.2059 52.8542 15.0801 52.5014 14.8444C52.1486 14.6086 51.8736 14.2736 51.7112 13.8815C51.5488 13.4895 51.5063 13.0581 51.5891 12.6419C51.6719 12.2258 51.8762 11.8435 52.1763 11.5434C52.4763 11.2434 52.8586 11.039 53.2748 10.9563C53.691 10.8735 54.1223 10.916 54.5144 11.0784C54.9064 11.2407 55.2415 11.5157 55.4772 11.8685C55.713 12.2214 55.8388 12.6362 55.8388 13.0605ZM25.4133 13.0605C25.4133 14.2423 26.377 15.2059 27.5588 15.2059C27.9831 15.2059 28.3979 15.0801 28.7507 14.8444C29.1036 14.6086 29.3785 14.2736 29.5409 13.8815C29.7033 13.4895 29.7458 13.0581 29.663 12.6419C29.5802 12.2258 29.3759 11.8435 29.0759 11.5434C28.7758 11.2434 28.3935 11.039 27.9773 10.9563C27.5612 10.8735 27.1298 10.916 26.7378 11.0784C26.3457 11.2407 26.0107 11.5157 25.7749 11.8685C25.5392 12.2214 25.4133 12.6362 25.4133 13.0605Z" fill="white"/>
<path d="M55.8388 13.0607C55.8388 14.2425 54.8752 15.2061 53.6933 15.2061C53.1243 15.2061 52.5786 14.9801 52.1763 14.5777C51.7739 14.1754 51.5479 13.6297 51.5479 13.0607C51.5479 12.9092 51.56 12.7698 51.5903 12.6243C51.9721 13.2061 52.6267 13.588 53.3782 13.588C53.8724 13.5871 54.3512 13.4161 54.7342 13.1038C55.1172 12.7914 55.381 12.3567 55.4812 11.8728C55.7055 12.2122 55.8388 12.6243 55.8388 13.0607ZM29.7055 13.0607C29.7055 13.6297 29.4794 14.1754 29.0771 14.5777C28.6747 14.9801 28.129 15.2061 27.56 15.2061C26.3782 15.2061 25.4146 14.2425 25.4146 13.0607C25.4146 12.9092 25.4267 12.7698 25.457 12.6243C25.8388 13.2061 26.4994 13.588 27.2449 13.588C28.2873 13.588 29.1479 12.8486 29.3479 11.8728C29.5721 12.2122 29.7055 12.6243 29.7055 13.0607Z" fill="white"/>
<path d="M25.6061 62.9274L23.3043 67.5304C23.1316 67.8763 22.8472 68.1536 22.4971 68.3176C22.147 68.4815 21.7518 68.5224 21.3756 68.4335C20.9994 68.3447 20.6642 68.1314 20.4244 67.8282C20.1846 67.525 20.0543 67.1497 20.0546 66.7631V62.9268L25.6061 62.9274ZM54.394 62.9274L56.6958 67.5304C56.8684 67.8763 57.1529 68.1536 57.503 68.3176C57.853 68.4815 58.2482 68.5224 58.6244 68.4335C59.0007 68.3447 59.3358 68.1314 59.5756 67.8282C59.8154 67.525 59.9457 67.1497 59.9455 66.7631V62.9268L54.394 62.9274Z" fill="#2D2C2C"/>
<path d="M47.5649 22.6108C46.7879 19.1478 43.6994 16.5569 40.0018 16.5569C36.3 16.5569 33.2109 19.1478 32.434 22.6114L47.5649 22.6108Z" fill="#FC6559"/>
<path d="M47.5661 22.6122H32.4327C32.5358 22.1456 32.6873 21.691 32.8691 21.2607H41.3903C43.5236 21.2607 44.6085 18.6146 43.0261 17.1837L42.9897 17.1516C45.2806 18.1092 47.0146 20.1395 47.5661 22.6122Z" fill="#F05543"/>
<path d="M68.7194 27.6381V57.8987C68.7194 59.232 68.1898 60.5107 67.247 61.4535C66.3042 62.3963 65.0255 62.926 63.6922 62.926H16.3079C15.6477 62.926 14.994 62.796 14.3841 62.5433C13.7741 62.2907 13.2199 61.9204 12.7531 61.4535C11.8103 60.5107 11.2806 59.232 11.2806 57.8987V27.6381C11.2806 26.3048 11.8103 25.0261 12.7531 24.0833C13.6959 23.1405 14.9746 22.6108 16.3079 22.6108H63.6922C65.0255 22.6108 66.3042 23.1405 67.247 24.0833C68.1898 25.0261 68.7194 26.3048 68.7194 27.6381Z" fill="white"/>
<path d="M18.0631 35.1843C19.5402 35.1843 20.7376 33.9869 20.7376 32.5097C20.7376 31.0326 19.5402 29.8352 18.0631 29.8352C16.586 29.8352 15.3885 31.0326 15.3885 32.5097C15.3885 33.9869 16.586 35.1843 18.0631 35.1843Z" fill="#FC6559"/>
<path d="M18.0631 44.7653C19.5402 44.7653 20.7376 43.5679 20.7376 42.0908C20.7376 40.6137 19.5402 39.4163 18.0631 39.4163C16.586 39.4163 15.3885 40.6137 15.3885 42.0908C15.3885 43.5679 16.586 44.7653 18.0631 44.7653Z" fill="#7979F7"/>
<path d="M63.6268 30.9576V54.5818C63.6268 56.7455 61.8752 58.497 59.7116 58.497H29.0025C26.8389 58.497 25.0813 56.7455 25.0813 54.5818V30.9576C25.0813 28.794 26.8389 27.0364 29.0025 27.0364H59.7116C61.8752 27.0364 63.6268 28.794 63.6268 30.9576Z" fill="#7979F7"/>
<path d="M63.6267 30.9576V54.5818C63.6267 56.7455 61.8751 58.497 59.7115 58.497H29.0024C27.2448 58.497 25.7539 57.3394 25.257 55.7455H55.657C57.8206 55.7455 59.5721 53.994 59.5721 51.8303V28.2061C59.5721 27.8 59.5115 27.4061 59.3964 27.0364H59.7115C61.8751 27.0364 63.6267 28.794 63.6267 30.9576Z" fill="#5E5EEF"/>
<path d="M45.0449 52.7334C43.1601 54.3576 41.5661 56.3092 40.354 58.497H29.0025C26.8389 58.497 25.0813 56.7455 25.0813 54.5819V50.0061C27.4669 49.1121 29.9943 48.6563 32.5419 48.6607C37.2146 48.6607 41.5358 50.1698 45.0449 52.7334Z" fill="#5BC658"/>
<path d="M45.0448 52.7334C43.16 54.3576 41.5661 56.3091 40.3539 58.497H29.0024C27.1297 58.497 25.56 57.1819 25.1721 55.4243C25.8145 55.8909 26.6085 56.1637 27.463 56.1637H37.18C38.1697 56.1637 39.08 55.6522 39.6236 54.8243C40.4861 53.5115 41.4935 52.2999 42.6267 51.2122C43.4691 51.6606 44.2751 52.1758 45.0448 52.7334Z" fill="#49A247"/>
<path d="M63.6267 48.0789V54.5819C63.6267 56.7455 61.8752 58.497 59.7116 58.497H40.354C41.5661 56.3092 43.1601 54.3576 45.0449 52.7334C48.9032 49.3876 53.841 47.5494 58.9479 47.5576C60.554 47.5576 62.1237 47.7334 63.6267 48.0789Z" fill="#5BC658"/>
<path d="M63.6267 48.0788V54.5818C63.6267 56.7454 61.8752 58.4969 59.7116 58.4969H40.354C40.7904 57.7091 41.2752 56.9515 41.8086 56.2303H57.3783C59.5419 56.2303 61.2934 54.4788 61.2934 52.3151V47.6848C62.0873 47.7697 62.8631 47.903 63.6267 48.0788Z" fill="#49A247"/>
<path d="M68.7176 27.6364V57.897C68.7176 60.6727 66.4692 62.9273 63.6934 62.9273H16.3055C14.4085 62.9273 12.7601 61.8727 11.9055 60.3273C12.4267 60.5091 12.9964 60.6121 13.5843 60.6121H60.9661C63.7479 60.6121 65.9964 58.3636 65.9964 55.5818V25.3212C65.9964 24.4424 65.7722 23.6182 65.3722 22.897C66.3514 23.2441 67.1989 23.8863 67.798 24.735C68.3972 25.5838 68.7185 26.5974 68.7176 27.6364Z" fill="#E4E3FF"/>
<path d="M21.4485 49.2666H14.677C14.5162 49.2666 14.3621 49.2027 14.2484 49.0891C14.1348 48.9754 14.0709 48.8212 14.0709 48.6605C14.0709 48.4998 14.1348 48.3456 14.2484 48.232C14.3621 48.1183 14.5162 48.0544 14.677 48.0544H21.4485C21.6092 48.0544 21.7634 48.1183 21.8771 48.232C21.9907 48.3456 22.0546 48.4998 22.0546 48.6605C22.0546 48.8212 21.9907 48.9754 21.8771 49.0891C21.7634 49.2027 21.6092 49.2666 21.4485 49.2666ZM21.4485 54.749H14.677C14.5162 54.749 14.3621 54.6851 14.2484 54.5715C14.1348 54.4578 14.0709 54.3037 14.0709 54.1429C14.0709 53.9822 14.1348 53.828 14.2484 53.7144C14.3621 53.6007 14.5162 53.5369 14.677 53.5369H21.4485C21.6092 53.5369 21.7634 53.6007 21.8771 53.7144C21.9907 53.828 22.0546 53.9822 22.0546 54.1429C22.0546 54.3037 21.9907 54.4578 21.8771 54.5715C21.7634 54.6851 21.6092 54.749 21.4485 54.749ZM21.4485 52.0072H14.677C14.5162 52.0072 14.3621 51.9433 14.2484 51.8297C14.1348 51.716 14.0709 51.5618 14.0709 51.4011C14.0709 51.2404 14.1348 51.0862 14.2484 50.9726C14.3621 50.8589 14.5162 50.795 14.677 50.795H21.4485C21.6092 50.795 21.7634 50.8589 21.8771 50.9726C21.9907 51.0862 22.0546 51.2404 22.0546 51.4011C22.0546 51.5618 21.9907 51.716 21.8771 51.8297C21.7634 51.9433 21.6092 52.0072 21.4485 52.0072ZM67.5806 69.0847H17.8182C17.6575 69.0847 17.5033 69.0209 17.3897 68.9072C17.276 68.7936 17.2121 68.6394 17.2121 68.4787C17.2121 68.3179 17.276 68.1638 17.3897 68.0501C17.5033 67.9365 17.6575 67.8726 17.8182 67.8726H67.58C67.7408 67.8726 67.8949 67.9365 68.0086 68.0501C68.1222 68.1638 68.1861 68.3179 68.1861 68.4787C68.1861 68.6394 68.1222 68.7936 68.0086 68.9072C67.8949 69.0209 67.7414 69.0847 67.5806 69.0847ZM13.9521 69.0847H12.4188C12.2581 69.0847 12.1039 69.0209 11.9903 68.9072C11.8766 68.7936 11.8127 68.6394 11.8127 68.4787C11.8127 68.3179 11.8766 68.1638 11.9903 68.0501C12.1039 67.9365 12.2581 67.8726 12.4188 67.8726H13.9521C14.1129 67.8726 14.267 67.9365 14.3807 68.0501C14.4943 68.1638 14.5582 68.3179 14.5582 68.4787C14.5582 68.6394 14.4943 68.7936 14.3807 68.9072C14.267 69.0209 14.1129 69.0847 13.9521 69.0847Z" fill="#474646"/>
<path d="M49.154 39.0036C49.154 40.0484 48.739 41.0504 48.0002 41.7892C47.2614 42.528 46.2594 42.943 45.2146 42.943C43.0389 42.943 41.2698 41.1794 41.2698 39.0036C41.2698 36.8278 43.0383 35.0642 45.2146 35.0642C46.2594 35.0642 47.2614 35.4793 48.0002 36.218C48.739 36.9568 49.154 37.9588 49.154 39.0036Z" fill="white"/>
<path d="M49.1558 39.0059C49.1558 41.1787 47.3873 42.9405 45.2146 42.9405C44.3949 42.943 43.5949 42.689 42.9269 42.2141C42.2588 41.7391 41.756 41.067 41.4891 40.292C42.0732 40.7353 42.7695 41.0067 43.4995 41.0756C44.2295 41.1444 44.9642 41.008 45.6209 40.6817C46.2775 40.3554 46.83 39.8522 47.216 39.2288C47.6019 38.6053 47.8061 37.8865 47.8055 37.1532C47.8055 36.7029 47.7267 36.2653 47.5831 35.8611C48.0719 36.2269 48.4685 36.7017 48.7416 37.2477C49.0146 37.7938 49.1564 38.3954 49.1558 39.0059Z" fill="#E4E3FF"/>
<path d="M45.2122 33.8454C45.0514 33.8454 44.8973 33.7816 44.7836 33.6679C44.67 33.5543 44.6061 33.4001 44.6061 33.2394V32.0345C44.6061 31.8738 44.67 31.7196 44.7836 31.606C44.8973 31.4923 45.0514 31.4285 45.2122 31.4285C45.3729 31.4285 45.5271 31.4923 45.6407 31.606C45.7544 31.7196 45.8182 31.8738 45.8182 32.0345V33.2394C45.8182 33.4001 45.7544 33.5543 45.6407 33.6679C45.5271 33.7816 45.3729 33.8454 45.2122 33.8454ZM41.1358 35.5333C41.0562 35.5334 40.9774 35.5178 40.9039 35.4873C40.8303 35.4568 40.7635 35.4121 40.7073 35.3557L39.8552 34.5042C39.7973 34.4483 39.7512 34.3814 39.7194 34.3075C39.6876 34.2336 39.6709 34.154 39.6702 34.0736C39.6695 33.9931 39.6848 33.9133 39.7153 33.8388C39.7458 33.7643 39.7908 33.6966 39.8477 33.6397C39.9046 33.5828 39.9723 33.5378 40.0468 33.5074C40.1212 33.4769 40.201 33.4616 40.2815 33.4623C40.362 33.463 40.4415 33.4797 40.5155 33.5114C40.5894 33.5432 40.6563 33.5894 40.7122 33.6473L41.5643 34.4988C41.649 34.5835 41.7067 34.6915 41.7301 34.8091C41.7535 34.9266 41.7415 35.0484 41.6956 35.1592C41.6498 35.2699 41.5721 35.3645 41.4725 35.4311C41.3728 35.4977 41.2557 35.5333 41.1358 35.5333ZM39.4473 39.6103H38.2419C38.0811 39.6103 37.927 39.5464 37.8133 39.4328C37.6997 39.3191 37.6358 39.165 37.6358 39.0042C37.6358 38.8435 37.6997 38.6893 37.8133 38.5757C37.927 38.462 38.0811 38.3982 38.2419 38.3982H39.4473C39.6081 38.3982 39.7622 38.462 39.8759 38.5757C39.9895 38.6893 40.0534 38.8435 40.0534 39.0042C40.0534 39.165 39.9895 39.3191 39.8759 39.4328C39.7622 39.5464 39.6081 39.6103 39.4473 39.6103ZM40.2837 44.5382C40.1638 44.5381 40.0467 44.5026 39.9471 44.436C39.8474 44.3694 39.7698 44.2747 39.7239 44.164C39.678 44.0533 39.666 43.9315 39.6894 43.8139C39.7128 43.6964 39.7705 43.5884 39.8552 43.5036L40.7073 42.6515C40.7632 42.5936 40.8301 42.5474 40.9041 42.5157C40.978 42.4839 41.0575 42.4672 41.138 42.4665C41.2185 42.4658 41.2983 42.4811 41.3728 42.5116C41.4472 42.5421 41.5149 42.5871 41.5718 42.644C41.6287 42.7009 41.6737 42.7686 41.7042 42.843C41.7347 42.9175 41.75 42.9973 41.7493 43.0778C41.7486 43.1583 41.7319 43.2378 41.7001 43.3117C41.6684 43.3857 41.6222 43.4526 41.5643 43.5085L40.7122 44.3606C40.656 44.417 40.5892 44.4617 40.5157 44.4921C40.4421 44.5226 40.3633 44.5382 40.2837 44.5382ZM45.2122 46.58C45.0514 46.58 44.8973 46.5161 44.7836 46.4025C44.67 46.2888 44.6061 46.1347 44.6061 45.9739V44.7679C44.6061 44.6071 44.67 44.453 44.7836 44.3393C44.8973 44.2257 45.0514 44.1618 45.2122 44.1618C45.3729 44.1618 45.5271 44.2257 45.6407 44.3393C45.7544 44.453 45.8182 44.6071 45.8182 44.7679V45.9739C45.8182 46.1347 45.7544 46.2888 45.6407 46.4025C45.5271 46.5161 45.3729 46.58 45.2122 46.58ZM50.1401 44.5382C50.0605 44.5382 49.9816 44.5226 49.9081 44.4921C49.8346 44.4617 49.7678 44.417 49.7116 44.3606L48.8595 43.5085C48.8016 43.4526 48.7554 43.3857 48.7236 43.3117C48.6919 43.2378 48.6752 43.1583 48.6745 43.0778C48.6738 42.9973 48.6891 42.9175 48.7196 42.843C48.75 42.7686 48.795 42.7009 48.8519 42.644C48.9088 42.5871 48.9765 42.5421 49.051 42.5116C49.1255 42.4811 49.2053 42.4658 49.2858 42.4665C49.3662 42.4672 49.4458 42.4839 49.5197 42.5157C49.5936 42.5474 49.6605 42.5936 49.7164 42.6515L50.5685 43.5036C50.6533 43.5884 50.711 43.6964 50.7344 43.8139C50.7577 43.9315 50.7457 44.0533 50.6999 44.164C50.654 44.2747 50.5763 44.3694 50.4767 44.436C50.3771 44.5026 50.2599 44.5381 50.1401 44.5382ZM52.1819 39.6103H50.9758C50.8151 39.6103 50.6609 39.5464 50.5473 39.4328C50.4336 39.3191 50.3698 39.165 50.3698 39.0042C50.3698 38.8435 50.4336 38.6893 50.5473 38.5757C50.6609 38.462 50.8151 38.3982 50.9758 38.3982H52.1819C52.3426 38.3982 52.4968 38.462 52.6104 38.5757C52.7241 38.6893 52.7879 38.8435 52.7879 39.0042C52.7879 39.165 52.7241 39.3191 52.6104 39.4328C52.4968 39.5464 52.3426 39.6103 52.1819 39.6103ZM49.2879 35.5333C49.1681 35.5333 49.0509 35.4977 48.9513 35.4311C48.8517 35.3645 48.774 35.2699 48.7281 35.1592C48.6823 35.0484 48.6703 34.9266 48.6936 34.8091C48.717 34.6915 48.7747 34.5835 48.8595 34.4988L49.7116 33.6473C49.7675 33.5894 49.8344 33.5432 49.9083 33.5114C49.9822 33.4797 50.0618 33.463 50.1422 33.4623C50.2227 33.4616 50.3025 33.4769 50.377 33.5074C50.4515 33.5378 50.5192 33.5828 50.5761 33.6397C50.633 33.6966 50.678 33.7643 50.7084 33.8388C50.7389 33.9133 50.7542 33.9931 50.7535 34.0736C50.7528 34.154 50.7361 34.2336 50.7044 34.3075C50.6726 34.3814 50.6264 34.4483 50.5685 34.5042L49.7164 35.3557C49.6602 35.4121 49.5934 35.4568 49.5199 35.4873C49.4464 35.5178 49.3675 35.5334 49.2879 35.5333ZM18.0625 35.7903C17.9017 35.7903 17.7476 35.7264 17.6339 35.6128C17.5203 35.4991 17.4564 35.345 17.4564 35.1842V32.8879C17.4564 32.7271 17.5203 32.573 17.6339 32.4593C17.7476 32.3457 17.9017 32.2818 18.0625 32.2818C18.2232 32.2818 18.3774 32.3457 18.491 32.4593C18.6047 32.573 18.6685 32.7271 18.6685 32.8879V35.1842C18.6685 35.345 18.6047 35.4991 18.491 35.6128C18.3774 35.7264 18.2232 35.7903 18.0625 35.7903ZM20.7376 42.697H18.4413C18.2805 42.697 18.1264 42.6331 18.0127 42.5194C17.8991 42.4058 17.8352 42.2516 17.8352 42.0909C17.8352 41.9302 17.8991 41.776 18.0127 41.6623C18.1264 41.5487 18.2805 41.4848 18.4413 41.4848H20.7376C20.8984 41.4848 21.0525 41.5487 21.1662 41.6623C21.2798 41.776 21.3437 41.9302 21.3437 42.0909C21.3437 42.2516 21.2798 42.4058 21.1662 42.5194C21.0525 42.6331 20.8984 42.697 20.7376 42.697Z" fill="white"/>
</svg>
