<svg width="82" height="84" viewBox="0 0 82 84" fill="none" xmlns="http://www.w3.org/2000/svg">
<g clip-path="url(#clip0_381_1172)">
<path d="M40.8083 3.60938C18.609 3.60938 0.613037 21.6054 0.613037 43.8046C0.613037 51.3646 2.70172 58.4362 6.33127 64.4765L7.20555 64.6405H74.4358L75.2855 64.4765C78.9149 58.4362 81.0036 51.3646 81.0036 43.8046C81.0036 21.6054 63.0076 3.60938 40.8083 3.60938Z" fill="#B3DAFE"/>
<path d="M66.7008 24.6937C67.1036 24.6937 67.4314 25.0215 67.4314 25.4242V64.6405H74.4411V5.16796C74.4411 4.26185 73.7066 3.52734 72.8005 3.52734H60.4958C59.5897 3.52734 58.8552 4.26185 58.8552 5.16796V24.6937H66.7008Z" fill="#A2AEE6"/>
<path d="M14.2302 21.4921V18.7031C14.2302 17.9783 13.6426 17.3906 12.9177 17.3906C12.1929 17.3906 11.6052 17.9783 11.6052 18.7031V21.4921H14.2302Z" fill="#6C7FD8"/>
<path d="M18.4958 21.4921V16.0781C18.4958 15.3533 17.9082 14.7656 17.1833 14.7656C16.4585 14.7656 15.8708 15.3533 15.8708 16.0781V21.4921H18.4958Z" fill="#6C7FD8"/>
<path d="M55.902 20.6719H49.8226C49.436 21.0923 49.0178 21.4885 48.5694 21.857C47.5196 22.7193 46.5804 23.6815 45.7666 24.7177C45.8234 24.7029 45.8823 24.6938 45.9436 24.6938H56.7224V21.4922C56.7224 21.0393 56.355 20.6719 55.902 20.6719Z" fill="#A2AEE6"/>
<path d="M27.3065 21.4922C27.7587 21.4922 28.1265 21.8601 28.1265 22.3124V26.1703H28.8274C29.2301 26.1703 29.5579 26.4981 29.5579 26.9009V64.6406H40.6443V33.7052C40.4103 33.6594 40.1615 33.5129 40.035 33.2045L38.2071 28.7464C37.1385 26.14 35.3493 23.7535 33.0331 21.8453C30.1914 19.504 28.5659 16.0514 28.5735 12.3732C28.5738 12.1852 28.58 11.9986 28.5889 11.8127H25.8787C25.4257 11.8127 25.0583 12.1801 25.0583 12.633V21.4924L27.3065 21.4922Z" fill="#A2AEE6"/>
<path d="M62.3005 13.125H70.9958C71.4488 13.125 71.8161 12.7576 71.8161 12.3046V9.67969C71.8161 9.22671 71.4488 8.85938 70.9958 8.85938H62.3005C61.8475 8.85938 61.4802 9.22671 61.4802 9.67969V12.3046C61.4802 12.7576 61.8475 13.125 62.3005 13.125Z" fill="white"/>
<path d="M65.4177 12.3046V9.67969C65.4177 9.22671 65.785 8.85938 66.238 8.85938H62.3005C61.8475 8.85938 61.4802 9.22671 61.4802 9.67969V12.3046C61.4802 12.7576 61.8475 13.125 62.3005 13.125H66.238C65.785 13.125 65.4177 12.7576 65.4177 12.3046Z" fill="#F5F8F9"/>
<path d="M62.3005 19.6876H70.9958C71.4488 19.6876 71.8161 19.3202 71.8161 18.8672V16.2422C71.8161 15.7893 71.4488 15.4219 70.9958 15.4219H62.3005C61.8475 15.4219 61.4802 15.7893 61.4802 16.2422V18.8672C61.4802 19.3202 61.8475 19.6876 62.3005 19.6876Z" fill="white"/>
<path d="M65.4177 18.8672V16.2422C65.4177 15.7893 65.785 15.4219 66.238 15.4219H62.3005C61.8475 15.4219 61.4802 15.7893 61.4802 16.2422V18.8672C61.4802 19.3202 61.8475 19.6876 62.3005 19.6876H66.238C65.785 19.6876 65.4177 19.3202 65.4177 18.8672Z" fill="#F5F8F9"/>
<path d="M66.7008 24.6938C67.1036 24.6938 67.4314 25.0216 67.4314 25.4243V26.2501H70.9958C71.4488 26.2501 71.8161 25.8827 71.8161 25.4297V22.8047C71.8161 22.3518 71.4488 21.9844 70.9958 21.9844H62.3005C61.8475 21.9844 61.4802 22.3518 61.4802 22.8047V24.6938H66.7008Z" fill="white"/>
<path d="M66.238 21.9844H62.3005C61.8475 21.9844 61.4802 22.3518 61.4802 22.8047V24.6938H65.4177V22.8047C65.4177 22.3518 65.785 21.9844 66.238 21.9844Z" fill="#F5F8F9"/>
<path d="M28.2904 26.1702V22.3123C28.2904 21.7688 27.8498 21.3281 27.3062 21.3281H9.59114C9.04761 21.3281 8.60693 21.7688 8.60693 22.3123V26.1702H28.2904Z" fill="#4F66D0"/>
<path d="M13.7378 21.3281H9.59114C9.04761 21.3281 8.60693 21.7688 8.60693 22.3123V26.1702H12.7536V22.3123C12.7536 21.7688 13.1942 21.3281 13.7378 21.3281Z" fill="#314DC9"/>
<path d="M29.7221 64.6406V26.9009C29.7221 26.4067 29.3215 26.0061 28.8273 26.0061H8.07017C7.57601 26.0061 7.17554 26.4067 7.17554 26.9009V64.6406H29.7221Z" fill="#6C7FD8"/>
<path d="M12.2657 26.0063H8.07017C7.57601 26.0063 7.17554 26.407 7.17554 26.9011V64.6407H11.3711V26.901C11.3711 26.4068 11.7717 26.0063 12.2657 26.0063Z" fill="#4F66D0"/>
<path d="M10.5129 70.2188C17.8811 78.6634 28.7209 83.9999 40.8083 83.9999C52.8958 83.9999 63.7356 78.6634 71.1038 70.2188H10.5129Z" fill="#6C7FD8"/>
<path d="M10.6616 34.9606H14.0474C14.3439 34.9606 14.5842 34.7203 14.5842 34.4238V31.038C14.5842 30.7416 14.3439 30.5012 14.0474 30.5012H10.6616C10.3652 30.5012 10.1248 30.7416 10.1248 31.038V34.4238C10.1247 34.7203 10.365 34.9606 10.6616 34.9606Z" fill="white"/>
<path d="M16.756 34.9606H20.1417C20.4382 34.9606 20.6785 34.7203 20.6785 34.4238V31.038C20.6785 30.7416 20.4382 30.5012 20.1417 30.5012H16.756C16.4595 30.5012 16.2191 30.7416 16.2191 31.038V34.4238C16.2191 34.7203 16.4595 34.9606 16.756 34.9606Z" fill="white"/>
<path d="M22.3136 31.038V34.4238C22.3136 34.7203 22.5539 34.9606 22.8504 34.9606H26.2361C26.5326 34.9606 26.7729 34.7203 26.7729 34.4238V31.038C26.7729 30.7416 26.5326 30.5012 26.2361 30.5012H22.8504C22.5539 30.5012 22.3136 30.7416 22.3136 31.038Z" fill="white"/>
<path d="M10.6616 41.1562H14.0474C14.3439 41.1562 14.5842 40.9158 14.5842 40.6194V37.2336C14.5842 36.9371 14.3439 36.6968 14.0474 36.6968H10.6616C10.3652 36.6968 10.1248 36.9371 10.1248 37.2336V40.6194C10.1247 40.9158 10.365 41.1562 10.6616 41.1562Z" fill="white"/>
<path d="M16.756 41.1562H20.1417C20.4382 41.1562 20.6785 40.9158 20.6785 40.6194V37.2336C20.6785 36.9371 20.4382 36.6968 20.1417 36.6968H16.756C16.4595 36.6968 16.2191 36.9371 16.2191 37.2336V40.6194C16.2191 40.9158 16.4595 41.1562 16.756 41.1562Z" fill="white"/>
<path d="M22.8506 41.1562H26.2363C26.5328 41.1562 26.7731 40.9158 26.7731 40.6194V37.2336C26.7731 36.9371 26.5328 36.6968 26.2363 36.6968H22.8506C22.5541 36.6968 22.3138 36.9371 22.3138 37.2336V40.6194C22.3136 40.9158 22.5539 41.1562 22.8506 41.1562Z" fill="white"/>
<path d="M10.6616 47.352H14.0474C14.3439 47.352 14.5842 47.1117 14.5842 46.8152V43.4294C14.5842 43.133 14.3439 42.8926 14.0474 42.8926H10.6616C10.3652 42.8926 10.1248 43.133 10.1248 43.4294V46.8152C10.1247 47.1117 10.365 47.352 10.6616 47.352Z" fill="white"/>
<path d="M16.756 47.352H20.1417C20.4382 47.352 20.6785 47.1117 20.6785 46.8152V43.4294C20.6785 43.133 20.4382 42.8926 20.1417 42.8926H16.756C16.4595 42.8926 16.2191 43.133 16.2191 43.4294V46.8152C16.2191 47.1117 16.4595 47.352 16.756 47.352Z" fill="white"/>
<path d="M22.8506 47.352H26.2363C26.5328 47.352 26.7731 47.1117 26.7731 46.8152V43.4294C26.7731 43.133 26.5328 42.8926 26.2363 42.8926H22.8506C22.5541 42.8926 22.3138 43.133 22.3138 43.4294V46.8152C22.3136 47.1117 22.5539 47.352 22.8506 47.352Z" fill="white"/>
<path d="M10.6616 53.5473H14.0474C14.3439 53.5473 14.5842 53.307 14.5842 53.0105V49.6247C14.5842 49.3283 14.3439 49.0879 14.0474 49.0879H10.6616C10.3652 49.0879 10.1248 49.3283 10.1248 49.6247V53.0105C10.1247 53.307 10.365 53.5473 10.6616 53.5473Z" fill="white"/>
<path d="M16.756 53.5473H20.1417C20.4382 53.5473 20.6785 53.307 20.6785 53.0105V49.6247C20.6785 49.3283 20.4382 49.0879 20.1417 49.0879H16.756C16.4595 49.0879 16.2191 49.3283 16.2191 49.6247V53.0105C16.2191 53.307 16.4595 53.5473 16.756 53.5473Z" fill="white"/>
<path d="M22.8506 53.5473H26.2363C26.5328 53.5473 26.7731 53.307 26.7731 53.0105V49.6247C26.7731 49.3283 26.5328 49.0879 26.2363 49.0879H22.8506C22.5541 49.0879 22.3138 49.3283 22.3138 49.6247V53.0105C22.3136 53.307 22.5539 53.5473 22.8506 53.5473Z" fill="white"/>
<path d="M10.6616 59.7431H14.0474C14.3439 59.7431 14.5842 59.5027 14.5842 59.2062V55.8205C14.5842 55.524 14.3439 55.2837 14.0474 55.2837H10.6616C10.3652 55.2837 10.1248 55.524 10.1248 55.8205V59.2062C10.1247 59.5027 10.365 59.7431 10.6616 59.7431Z" fill="white"/>
<path d="M12.2616 34.4238V31.038C12.2616 30.7416 12.5019 30.5012 12.7984 30.5012H10.6616C10.3652 30.5012 10.1248 30.7416 10.1248 31.038V34.4238C10.1248 34.7203 10.3652 34.9606 10.6616 34.9606H12.7986C12.5019 34.9606 12.2616 34.7203 12.2616 34.4238Z" fill="#F5F8F9"/>
<path d="M12.2616 40.6194V37.2336C12.2616 36.9371 12.5019 36.6968 12.7984 36.6968H10.6616C10.3652 36.6968 10.1248 36.9371 10.1248 37.2336V40.6194C10.1248 40.9158 10.3652 41.1562 10.6616 41.1562H12.7986C12.5019 41.1562 12.2616 40.9158 12.2616 40.6194Z" fill="#F5F8F9"/>
<path d="M12.2616 46.8152V43.4294C12.2616 43.133 12.5019 42.8926 12.7984 42.8926H10.6616C10.3652 42.8926 10.1248 43.133 10.1248 43.4294V46.8152C10.1248 47.1117 10.3652 47.352 10.6616 47.352H12.7986C12.5019 47.352 12.2616 47.1117 12.2616 46.8152Z" fill="#F5F8F9"/>
<path d="M12.2616 53.0105V49.6247C12.2616 49.3283 12.5019 49.0879 12.7984 49.0879H10.6616C10.3652 49.0879 10.1248 49.3283 10.1248 49.6247V53.0105C10.1248 53.307 10.3652 53.5473 10.6616 53.5473H12.7986C12.5019 53.5473 12.2616 53.307 12.2616 53.0105Z" fill="#F5F8F9"/>
<path d="M12.2616 59.2062V55.8205C12.2616 55.524 12.5019 55.2837 12.7984 55.2837H10.6616C10.3652 55.2837 10.1248 55.524 10.1248 55.8205V59.2062C10.1248 59.5027 10.3652 59.7431 10.6616 59.7431H12.7986C12.5019 59.7431 12.2616 59.5027 12.2616 59.2062Z" fill="#F5F8F9"/>
<path d="M16.756 59.7431H20.1417C20.4382 59.7431 20.6785 59.5027 20.6785 59.2062V55.8205C20.6785 55.524 20.4382 55.2837 20.1417 55.2837H16.756C16.4595 55.2837 16.2191 55.524 16.2191 55.8205V59.2062C16.2191 59.5027 16.4595 59.7431 16.756 59.7431Z" fill="white"/>
<path d="M22.8506 59.7431H26.2363C26.5328 59.7431 26.7731 59.5027 26.7731 59.2062V55.8205C26.7731 55.524 26.5328 55.2837 26.2363 55.2837H22.8506C22.5541 55.2837 22.3138 55.524 22.3138 55.8205V59.2062C22.3136 59.5027 22.5539 59.7431 22.8506 59.7431Z" fill="white"/>
<path d="M18.3561 34.4238V31.038C18.3561 30.7416 18.5964 30.5012 18.8929 30.5012H16.756C16.4595 30.5012 16.2191 30.7416 16.2191 31.038V34.4238C16.2191 34.7203 16.4595 34.9606 16.756 34.9606H18.8929C18.5964 34.9606 18.3561 34.7203 18.3561 34.4238Z" fill="#F5F8F9"/>
<path d="M18.3561 40.6194V37.2336C18.3561 36.9371 18.5964 36.6968 18.8929 36.6968H16.756C16.4595 36.6968 16.2191 36.9371 16.2191 37.2336V40.6194C16.2191 40.9158 16.4595 41.1562 16.756 41.1562H18.8929C18.5964 41.1562 18.3561 40.9158 18.3561 40.6194Z" fill="#F5F8F9"/>
<path d="M18.3561 46.8152V43.4294C18.3561 43.133 18.5964 42.8926 18.8929 42.8926H16.756C16.4595 42.8926 16.2191 43.133 16.2191 43.4294V46.8152C16.2191 47.1117 16.4595 47.352 16.756 47.352H18.8929C18.5964 47.352 18.3561 47.1117 18.3561 46.8152Z" fill="#F5F8F9"/>
<path d="M18.3561 53.0105V49.6247C18.3561 49.3283 18.5964 49.0879 18.8929 49.0879H16.756C16.4595 49.0879 16.2191 49.3283 16.2191 49.6247V53.0105C16.2191 53.307 16.4595 53.5473 16.756 53.5473H18.8929C18.5964 53.5473 18.3561 53.307 18.3561 53.0105Z" fill="#F5F8F9"/>
<path d="M18.3561 59.2062V55.8205C18.3561 55.524 18.5964 55.2837 18.8929 55.2837H16.756C16.4595 55.2837 16.2191 55.524 16.2191 55.8205V59.2062C16.2191 59.5027 16.4595 59.7431 16.756 59.7431H18.8929C18.5964 59.7431 18.3561 59.5027 18.3561 59.2062Z" fill="#F5F8F9"/>
<path d="M24.4505 34.4238V31.038C24.4505 30.7416 24.6908 30.5012 24.9873 30.5012H22.8504C22.5539 30.5012 22.3136 30.7416 22.3136 31.038V34.4238C22.3136 34.7203 22.5539 34.9606 22.8504 34.9606H24.9873C24.6908 34.9606 24.4505 34.7203 24.4505 34.4238Z" fill="#F5F8F9"/>
<path d="M24.4505 40.6194V37.2336C24.4505 36.9371 24.6908 36.6968 24.9873 36.6968H22.8504C22.5539 36.6968 22.3136 36.9371 22.3136 37.2336V40.6194C22.3136 40.9158 22.5539 41.1562 22.8504 41.1562H24.9873C24.6908 41.1562 24.4505 40.9158 24.4505 40.6194Z" fill="#F5F8F9"/>
<path d="M24.4505 46.8152V43.4294C24.4505 43.133 24.6908 42.8926 24.9873 42.8926H22.8504C22.5539 42.8926 22.3136 43.133 22.3136 43.4294V46.8152C22.3136 47.1117 22.5539 47.352 22.8504 47.352H24.9873C24.6908 47.352 24.4505 47.1117 24.4505 46.8152Z" fill="#F5F8F9"/>
<path d="M24.4505 53.0105V49.6247C24.4505 49.3283 24.6908 49.0879 24.9873 49.0879H22.8504C22.5539 49.0879 22.3136 49.3283 22.3136 49.6247V53.0105C22.3136 53.307 22.5539 53.5473 22.8504 53.5473H24.9873C24.6908 53.5473 24.4505 53.307 24.4505 53.0105Z" fill="#F5F8F9"/>
<path d="M24.4505 59.2062V55.8205C24.4505 55.524 24.6908 55.2837 24.9873 55.2837H22.8504C22.5539 55.2837 22.3136 55.524 22.3136 55.8205V59.2062C22.3136 59.5027 22.5539 59.7431 22.8504 59.7431H24.9873C24.6908 59.7431 24.4505 59.5027 24.4505 59.2062Z" fill="#F5F8F9"/>
<path d="M66.7007 24.5298H45.9436C45.9336 24.5298 45.924 24.5309 45.9142 24.5313C45.6079 24.9107 45.3199 25.3012 45.049 25.7004V64.6407H67.5955V25.4244C67.5953 24.9303 67.1949 24.5298 66.7007 24.5298Z" fill="#6C7FD8"/>
<path d="M49.4785 24.5313C49.4885 24.5309 49.4981 24.5298 49.5079 24.5298H45.9436C45.9336 24.5298 45.9241 24.5309 45.9142 24.5313C45.6079 24.9107 45.3198 25.3012 45.049 25.7004V64.6407H48.6133V25.7002C48.8843 25.3012 49.1725 24.9107 49.4785 24.5313Z" fill="#4F66D0"/>
<path d="M70.959 70.3828C72.5723 68.554 74.0226 66.5782 75.2854 64.4766H6.3313C7.59409 66.5782 9.04456 68.554 10.6576 70.3828H70.959Z" fill="#BEC6ED"/>
<path d="M14.0284 66.8763C13.3835 66.1005 12.7674 65.2997 12.1806 64.4766H6.3313C7.59409 66.5782 9.04456 68.554 10.6576 70.3828H70.959C71.7034 69.5389 72.4115 68.6623 73.0841 67.7578H15.9173C15.1883 67.7578 14.4944 67.4369 14.0284 66.8763Z" fill="#A2AEE6"/>
<path d="M68.1325 32.2241H50.2383C49.7441 32.2241 49.3438 31.8235 49.3438 31.3295V29.5401C49.3438 29.0459 49.7443 28.6455 50.2383 28.6455H68.1325C68.6266 28.6455 69.0271 29.0461 69.0271 29.5401V31.3295C69.0271 31.8237 68.6264 32.2241 68.1325 32.2241Z" fill="#4F66D0"/>
<path d="M68.1325 38.8451H50.2383C49.7441 38.8451 49.3438 38.4444 49.3438 37.9504V36.161C49.3438 35.6668 49.7443 35.2664 50.2383 35.2664H68.1325C68.6266 35.2664 69.0271 35.667 69.0271 36.161V37.9504C69.0271 38.4444 68.6264 38.8451 68.1325 38.8451Z" fill="#4F66D0"/>
<path d="M68.1325 45.4657H50.2383C49.7441 45.4657 49.3438 45.065 49.3438 44.5711V42.7816C49.3438 42.2875 49.7443 41.887 50.2383 41.887H68.1325C68.6266 41.887 69.0271 42.2876 69.0271 42.7816V44.5711C69.0271 45.0652 68.6264 45.4657 68.1325 45.4657Z" fill="#4F66D0"/>
<path d="M68.1325 52.0865H50.2383C49.7441 52.0865 49.3438 51.6859 49.3438 51.1919V49.4024C49.3438 48.9083 49.7443 48.5078 50.2383 48.5078H68.1325C68.6266 48.5078 69.0271 48.9084 69.0271 49.4024V51.1919C69.0271 51.6859 68.6264 52.0865 68.1325 52.0865Z" fill="#4F66D0"/>
<path d="M68.1325 58.7076H50.2383C49.7441 58.7076 49.3438 58.3069 49.3438 57.813V56.0235C49.3438 55.5294 49.7443 55.1289 50.2383 55.1289H68.1325C68.6266 55.1289 69.0271 55.5295 69.0271 56.0235V57.813C69.0271 58.3069 68.6264 58.7076 68.1325 58.7076Z" fill="#4F66D0"/>
<path d="M41.5817 33.2044C41.4249 33.5868 41.0794 33.723 40.8083 33.723C40.5373 33.723 40.1918 33.5868 40.035 33.2044L39.6051 32.1562H35.2302C34.7772 32.1562 34.4099 32.5236 34.4099 32.9766V34.7812C34.4099 35.2343 34.7772 35.6016 35.2302 35.6016H41.1365C41.5894 35.6016 41.9568 35.2343 41.9568 34.7812V32.9766C41.9568 32.8265 41.9135 32.6878 41.8433 32.5667L41.5817 33.2044Z" fill="#6C7FD8"/>
<path d="M41.1364 37.8984H35.2302C34.7772 37.8984 34.4099 38.2657 34.4099 38.7187V40.5234C34.4099 40.9764 34.7772 41.3437 35.2302 41.3437H41.1364C41.5894 41.3437 41.9567 40.9764 41.9567 40.5234V38.7187C41.9567 38.2657 41.5894 37.8984 41.1364 37.8984Z" fill="#6C7FD8"/>
<path d="M41.1364 43.6406H35.2302C34.7772 43.6406 34.4099 44.0079 34.4099 44.4609V46.2656C34.4099 46.7185 34.7772 47.0859 35.2302 47.0859H41.1364C41.5894 47.0859 41.9567 46.7185 41.9567 46.2656V44.4609C41.9567 44.0079 41.5894 43.6406 41.1364 43.6406Z" fill="#6C7FD8"/>
<path d="M41.1364 49.3828H35.2302C34.7772 49.3828 34.4099 49.7502 34.4099 50.2032V52.0078C34.4099 52.4608 34.7772 52.8282 35.2302 52.8282H41.1364C41.5894 52.8282 41.9567 52.4608 41.9567 52.0078V50.2032C41.9567 49.7502 41.5894 49.3828 41.1364 49.3828Z" fill="#6C7FD8"/>
<path d="M41.1364 55.125H35.2302C34.7772 55.125 34.4099 55.4924 34.4099 55.9453V57.75C34.4099 58.203 34.7772 58.5703 35.2302 58.5703H41.1364C41.5894 58.5703 41.9567 58.203 41.9567 57.75V55.9453C41.9567 55.4924 41.5894 55.125 41.1364 55.125Z" fill="#6C7FD8"/>
<path d="M53.2073 12.3989C53.2073 5.62134 47.7691 0.113768 41.0183 0.00171343C34.1423 -0.112474 28.4238 5.49551 28.4095 12.3725C28.4014 16.2383 30.1628 19.6926 32.9289 21.9716C35.1631 23.8126 36.9571 26.1298 38.0554 28.8084L39.8832 33.2665C40.2225 34.0939 41.3942 34.0939 41.7335 33.2665L43.577 28.7702C44.6679 26.1096 46.4514 23.8088 48.6735 21.9834C51.4415 19.7099 53.2073 16.2608 53.2073 12.3989Z" fill="#FE646F"/>
<path d="M42.8829 27.0777C41.7847 24.3992 39.9906 22.0818 37.7564 20.2409C34.9904 17.9619 33.229 14.5076 33.237 10.6418C33.2462 6.20223 35.6346 2.29427 39.175 0.110596C33.1496 0.919259 28.4224 6.12102 28.4095 12.3726C28.4014 16.2384 30.1628 19.6927 32.9289 21.9717C35.1631 23.8127 36.9571 26.1299 38.0554 28.8085L39.8832 33.2666C40.2225 34.094 41.3942 34.094 41.7335 33.2666L43.5769 28.7705L42.8829 27.0777Z" fill="#FD4755"/>
<path d="M40.8083 17.7985C43.7904 17.7985 46.2079 15.381 46.2079 12.3989C46.2079 9.41676 43.7904 6.99927 40.8083 6.99927C37.8262 6.99927 35.4087 9.41676 35.4087 12.3989C35.4087 15.381 37.8262 17.7985 40.8083 17.7985Z" fill="white"/>
<path d="M39.3608 12.3989C39.3608 10.1145 40.7801 8.16304 42.7843 7.37422C42.1722 7.13322 41.5061 6.99951 40.8083 6.99951C37.8262 6.99951 35.4089 9.41696 35.4089 12.3989C35.4089 15.3811 37.8263 17.7985 40.8083 17.7985C41.5061 17.7985 42.1722 17.6648 42.7843 17.4238C40.7801 16.6348 39.3608 14.6833 39.3608 12.3989Z" fill="#E8EDF2"/>
</g>
<defs>
<clipPath id="clip0_381_1172">
<rect width="82" height="84" fill="white"/>
</clipPath>
</defs>
</svg>
